  0
SECTION
  2
HEADER
  9
$ANGBASE
  50
0.0
  9
$ANGDIR
  70
1
  9
$MEASUREMENT
  70
1
  0
ENDSEC
  0
SECTION
  2
TABLES
  0
TABLE
  2
LTYPE
  70
4
  0
LTYPE
  5
40F
  2
CONTINUOUS
  70
0
  3
Solid line
  72
65
  73
0
  40
0.0
  0
LTYPE
  5
410
  2
DASHDOT
 70
0
  3
Dash Dot ____ _ ____ _
 72
65
 73
4
 40
2.0
 49
1.25
 49
-0.25
 49
0.25
 49
-0.25
  0
LTYPE
  5
411
  2
DASHED
 70
0
  3
Dashed __ __ __ __ __
 72
65
 73
2
 40
0.75
 49
0.5
 49
-0.25
  0
LTYPE
  5
43B
  2
DOTTED
 70
0
  3
Dotted .  .  .  .
 72
65
 73
2
 40
0.2
 49
0.0
 49
-0.2
  0
ENDTAB
  0
TABLE
  2
STYLE
  70
4
  0
STYLE
  2
KICAD
  70
0
  40
0
  41
1
  42
1
  50
0
  71
0
  3
isocp.shx
  0
STYLE
  2
KICADB
  70
0
  40
0
  41
1
  42
1
  50
0
  71
0
  3
isocp.shx
  0
STYLE
  2
KICADI
  70
0
  40
0
  41
1
  42
1
  50
15
  71
0
  3
isocp.shx
  0
STYLE
  2
KICADBI
  70
0
  40
0
  41
1
  42
1
  50
15
  71
0
  3
isocp.shx
  0
ENDTAB
  0
TABLE
  2
LAYER
  70
1
  0
LAYER
  2
BLACK
  70
0
  62
7
  6
CONTINUOUS
  0
ENDTAB
  0
ENDSEC
  0
SECTION
  2
ENTITIES
0
LINE
8
BLACK
6
CONTINUOUS
10
33.7563
20
-130.403
11
33.3858
21
-130.351
0
LINE
8
BLACK
6
CONTINUOUS
10
33.3858
20
-130.351
11
33.0217
21
-130.265
0
LINE
8
BLACK
6
CONTINUOUS
10
33.0217
20
-130.265
11
32.667
21
-130.147
0
LINE
8
BLACK
6
CONTINUOUS
10
32.667
20
-130.147
11
32.3248
21
-129.995
0
LINE
8
BLACK
6
CONTINUOUS
10
32.3248
20
-129.995
11
31.9979
21
-129.813
0
LINE
8
BLACK
6
CONTINUOUS
10
31.9979
20
-129.813
11
31.6893
21
-129.602
0
LINE
8
BLACK
6
CONTINUOUS
10
31.6893
20
-129.602
11
31.4015
21
-129.363
0
LINE
8
BLACK
6
CONTINUOUS
10
31.4015
20
-129.363
11
31.137
21
-129.098
0
LINE
8
BLACK
6
CONTINUOUS
10
31.137
20
-129.098
11
30.898
21
-128.811
0
LINE
8
BLACK
6
CONTINUOUS
10
30.898
20
-128.811
11
30.6866
21
-128.502
0
LINE
8
BLACK
6
CONTINUOUS
10
30.6866
20
-128.502
11
30.5046
21
-128.175
0
LINE
8
BLACK
6
CONTINUOUS
10
30.5046
20
-128.175
11
30.3535
21
-127.833
0
LINE
8
BLACK
6
CONTINUOUS
10
30.3535
20
-127.833
11
30.2346
21
-127.478
0
LINE
8
BLACK
6
CONTINUOUS
10
30.2346
20
-127.478
11
30.149
21
-127.114
0
LINE
8
BLACK
6
CONTINUOUS
10
30.149
20
-127.114
11
30.0973
21
-126.744
0
LINE
8
BLACK
6
CONTINUOUS
10
30.0973
20
-126.744
11
30.08
21
-126.37
0
LINE
8
BLACK
6
CONTINUOUS
10
30.08
20
-126.37
11
30.08
21
-36.125
0
LINE
8
BLACK
6
CONTINUOUS
10
30.08
20
-36.125
11
30.0973
21
-35.7513
0
LINE
8
BLACK
6
CONTINUOUS
10
30.0973
20
-35.7513
11
30.149
21
-35.3808
0
LINE
8
BLACK
6
CONTINUOUS
10
30.149
20
-35.3808
11
30.2346
21
-35.0167
0
LINE
8
BLACK
6
CONTINUOUS
10
30.2346
20
-35.0167
11
30.3535
21
-34.662
0
LINE
8
BLACK
6
CONTINUOUS
10
30.3535
20
-34.662
11
30.5046
21
-34.3198
0
LINE
8
BLACK
6
CONTINUOUS
10
30.5046
20
-34.3198
11
30.6866
21
-33.993
0
LINE
8
BLACK
6
CONTINUOUS
10
30.6866
20
-33.993
11
30.898
21
-33.6843
0
LINE
8
BLACK
6
CONTINUOUS
10
30.898
20
-33.6843
11
31.137
21
-33.3965
0
LINE
8
BLACK
6
CONTINUOUS
10
31.137
20
-33.3965
11
31.4015
21
-33.132
0
LINE
8
BLACK
6
CONTINUOUS
10
31.4015
20
-33.132
11
31.6893
21
-32.893
0
LINE
8
BLACK
6
CONTINUOUS
10
31.6893
20
-32.893
11
31.9979
21
-32.6816
0
LINE
8
BLACK
6
CONTINUOUS
10
31.9979
20
-32.6816
11
32.3248
21
-32.4996
0
LINE
8
BLACK
6
CONTINUOUS
10
32.3248
20
-32.4996
11
32.667
21
-32.3485
0
LINE
8
BLACK
6
CONTINUOUS
10
32.667
20
-32.3485
11
33.0217
21
-32.2296
0
LINE
8
BLACK
6
CONTINUOUS
10
33.0217
20
-32.2296
11
33.3858
21
-32.144
0
LINE
8
BLACK
6
CONTINUOUS
10
33.3858
20
-32.144
11
33.7563
21
-32.0923
0
LINE
8
BLACK
6
CONTINUOUS
10
33.7563
20
-32.0923
11
34.13
21
-32.075
0
LINE
8
BLACK
6
CONTINUOUS
10
34.13
20
-32.075
11
102.33
21
-32.075
0
LINE
8
BLACK
6
CONTINUOUS
10
102.33
20
-32.075
11
102.704
21
-32.0923
0
LINE
8
BLACK
6
CONTINUOUS
10
102.704
20
-32.0923
11
103.074
21
-32.144
0
LINE
8
BLACK
6
CONTINUOUS
10
103.074
20
-32.144
11
103.438
21
-32.2296
0
LINE
8
BLACK
6
CONTINUOUS
10
103.438
20
-32.2296
11
103.793
21
-32.3485
0
LINE
8
BLACK
6
CONTINUOUS
10
103.793
20
-32.3485
11
104.135
21
-32.4996
0
LINE
8
BLACK
6
CONTINUOUS
10
104.135
20
-32.4996
11
104.462
21
-32.6816
0
LINE
8
BLACK
6
CONTINUOUS
10
104.462
20
-32.6816
11
104.771
21
-32.893
0
LINE
8
BLACK
6
CONTINUOUS
10
104.771
20
-32.893
11
105.058
21
-33.132
0
LINE
8
BLACK
6
CONTINUOUS
10
105.058
20
-33.132
11
105.323
21
-33.3965
0
LINE
8
BLACK
6
CONTINUOUS
10
105.323
20
-33.3965
11
105.562
21
-33.6843
0
LINE
8
BLACK
6
CONTINUOUS
10
105.562
20
-33.6843
11
105.773
21
-33.993
0
LINE
8
BLACK
6
CONTINUOUS
10
105.773
20
-33.993
11
105.955
21
-34.3198
0
LINE
8
BLACK
6
CONTINUOUS
10
105.955
20
-34.3198
11
106.107
21
-34.662
0
LINE
8
BLACK
6
CONTINUOUS
10
106.107
20
-34.662
11
106.225
21
-35.0167
0
LINE
8
BLACK
6
CONTINUOUS
10
106.225
20
-35.0167
11
106.311
21
-35.3808
0
LINE
8
BLACK
6
CONTINUOUS
10
106.311
20
-35.3808
11
106.363
21
-35.7513
0
LINE
8
BLACK
6
CONTINUOUS
10
106.363
20
-35.7513
11
106.38
21
-36.125
0
LINE
8
BLACK
6
CONTINUOUS
10
106.38
20
-36.125
11
106.38
21
-126.37
0
LINE
8
BLACK
6
CONTINUOUS
10
106.38
20
-126.37
11
106.363
21
-126.744
0
LINE
8
BLACK
6
CONTINUOUS
10
106.363
20
-126.744
11
106.311
21
-127.114
0
LINE
8
BLACK
6
CONTINUOUS
10
106.311
20
-127.114
11
106.225
21
-127.478
0
LINE
8
BLACK
6
CONTINUOUS
10
106.225
20
-127.478
11
106.107
21
-127.833
0
LINE
8
BLACK
6
CONTINUOUS
10
106.107
20
-127.833
11
105.955
21
-128.175
0
LINE
8
BLACK
6
CONTINUOUS
10
105.955
20
-128.175
11
105.773
21
-128.502
0
LINE
8
BLACK
6
CONTINUOUS
10
105.773
20
-128.502
11
105.562
21
-128.811
0
LINE
8
BLACK
6
CONTINUOUS
10
105.562
20
-128.811
11
105.323
21
-129.098
0
LINE
8
BLACK
6
CONTINUOUS
10
105.323
20
-129.098
11
105.058
21
-129.363
0
LINE
8
BLACK
6
CONTINUOUS
10
105.058
20
-129.363
11
104.771
21
-129.602
0
LINE
8
BLACK
6
CONTINUOUS
10
104.771
20
-129.602
11
104.462
21
-129.813
0
LINE
8
BLACK
6
CONTINUOUS
10
104.462
20
-129.813
11
104.135
21
-129.995
0
LINE
8
BLACK
6
CONTINUOUS
10
104.135
20
-129.995
11
103.793
21
-130.147
0
LINE
8
BLACK
6
CONTINUOUS
10
103.793
20
-130.147
11
103.438
21
-130.265
0
LINE
8
BLACK
6
CONTINUOUS
10
103.438
20
-130.265
11
103.074
21
-130.351
0
LINE
8
BLACK
6
CONTINUOUS
10
103.074
20
-130.351
11
102.704
21
-130.403
0
LINE
8
BLACK
6
CONTINUOUS
10
102.704
20
-130.403
11
102.33
21
-130.42
0
LINE
8
BLACK
6
CONTINUOUS
10
102.33
20
-130.42
11
34.13
21
-130.42
0
LINE
8
BLACK
6
CONTINUOUS
10
34.13
20
-130.42
11
33.7563
21
-130.403
0
LINE
8
BLACK
6
CONTINUOUS
10
34.1208
20
-32.1712
11
33.7652
21
-32.1876
0
LINE
8
BLACK
6
CONTINUOUS
10
33.7652
20
-32.1876
11
33.4034
21
-32.2381
0
LINE
8
BLACK
6
CONTINUOUS
10
33.4034
20
-32.2381
11
33.0479
21
-32.3217
0
LINE
8
BLACK
6
CONTINUOUS
10
33.0479
20
-32.3217
11
32.7016
21
-32.4378
0
LINE
8
BLACK
6
CONTINUOUS
10
32.7016
20
-32.4378
11
32.3675
21
-32.5853
0
LINE
8
BLACK
6
CONTINUOUS
10
32.3675
20
-32.5853
11
32.0484
21
-32.7631
0
LINE
8
BLACK
6
CONTINUOUS
10
32.0484
20
-32.7631
11
31.7471
21
-32.9695
0
LINE
8
BLACK
6
CONTINUOUS
10
31.7471
20
-32.9695
11
31.4661
21
-33.2028
0
LINE
8
BLACK
6
CONTINUOUS
10
31.4661
20
-33.2028
11
31.2078
21
-33.4611
0
LINE
8
BLACK
6
CONTINUOUS
10
31.2078
20
-33.4611
11
30.9745
21
-33.7421
0
LINE
8
BLACK
6
CONTINUOUS
10
30.9745
20
-33.7421
11
30.7681
21
-34.0434
0
LINE
8
BLACK
6
CONTINUOUS
10
30.7681
20
-34.0434
11
30.5903
21
-34.3625
0
LINE
8
BLACK
6
CONTINUOUS
10
30.5903
20
-34.3625
11
30.4428
21
-34.6966
0
LINE
8
BLACK
6
CONTINUOUS
10
30.4428
20
-34.6966
11
30.3267
21
-35.0429
0
LINE
8
BLACK
6
CONTINUOUS
10
30.3267
20
-35.0429
11
30.2431
21
-35.3984
0
LINE
8
BLACK
6
CONTINUOUS
10
30.2431
20
-35.3984
11
30.1926
21
-35.7602
0
LINE
8
BLACK
6
CONTINUOUS
10
30.1926
20
-35.7602
11
30.1762
21
-36.1158
0
LINE
8
BLACK
6
CONTINUOUS
10
30.1762
20
-36.1158
11
30.18
21
-36.125
0
LINE
8
BLACK
6
CONTINUOUS
10
30.18
20
-36.125
11
30.18
21
-126.37
0
LINE
8
BLACK
6
CONTINUOUS
10
30.18
20
-126.37
11
30.1762
21
-126.379
0
LINE
8
BLACK
6
CONTINUOUS
10
30.1762
20
-126.379
11
30.1926
21
-126.735
0
LINE
8
BLACK
6
CONTINUOUS
10
30.1926
20
-126.735
11
30.2431
21
-127.097
0
LINE
8
BLACK
6
CONTINUOUS
10
30.2431
20
-127.097
11
30.3267
21
-127.452
0
LINE
8
BLACK
6
CONTINUOUS
10
30.3267
20
-127.452
11
30.4428
21
-127.798
0
LINE
8
BLACK
6
CONTINUOUS
10
30.4428
20
-127.798
11
30.5903
21
-128.133
0
LINE
8
BLACK
6
CONTINUOUS
10
30.5903
20
-128.133
11
30.7681
21
-128.452
0
LINE
8
BLACK
6
CONTINUOUS
10
30.7681
20
-128.452
11
30.9745
21
-128.753
0
LINE
8
BLACK
6
CONTINUOUS
10
30.9745
20
-128.753
11
31.2078
21
-129.034
0
LINE
8
BLACK
6
CONTINUOUS
10
31.2078
20
-129.034
11
31.4661
21
-129.292
0
LINE
8
BLACK
6
CONTINUOUS
10
31.4661
20
-129.292
11
31.7471
21
-129.526
0
LINE
8
BLACK
6
CONTINUOUS
10
31.7471
20
-129.526
11
32.0484
21
-129.732
0
LINE
8
BLACK
6
CONTINUOUS
10
32.0484
20
-129.732
11
32.3675
21
-129.91
0
LINE
8
BLACK
6
CONTINUOUS
10
32.3675
20
-129.91
11
32.7016
21
-130.057
0
LINE
8
BLACK
6
CONTINUOUS
10
32.7016
20
-130.057
11
33.0479
21
-130.173
0
LINE
8
BLACK
6
CONTINUOUS
10
33.0479
20
-130.173
11
33.4034
21
-130.257
0
LINE
8
BLACK
6
CONTINUOUS
10
33.4034
20
-130.257
11
33.7652
21
-130.307
0
LINE
8
BLACK
6
CONTINUOUS
10
33.7652
20
-130.307
11
34.1208
21
-130.324
0
LINE
8
BLACK
6
CONTINUOUS
10
34.1208
20
-130.324
11
34.13
21
-130.32
0
LINE
8
BLACK
6
CONTINUOUS
10
34.13
20
-130.32
11
102.33
21
-130.32
0
LINE
8
BLACK
6
CONTINUOUS
10
102.33
20
-130.32
11
102.339
21
-130.324
0
LINE
8
BLACK
6
CONTINUOUS
10
102.339
20
-130.324
11
102.695
21
-130.307
0
LINE
8
BLACK
6
CONTINUOUS
10
102.695
20
-130.307
11
103.057
21
-130.257
0
LINE
8
BLACK
6
CONTINUOUS
10
103.057
20
-130.257
11
103.412
21
-130.173
0
LINE
8
BLACK
6
CONTINUOUS
10
103.412
20
-130.173
11
103.758
21
-130.057
0
LINE
8
BLACK
6
CONTINUOUS
10
103.758
20
-130.057
11
104.093
21
-129.91
0
LINE
8
BLACK
6
CONTINUOUS
10
104.093
20
-129.91
11
104.412
21
-129.732
0
LINE
8
BLACK
6
CONTINUOUS
10
104.412
20
-129.732
11
104.713
21
-129.526
0
LINE
8
BLACK
6
CONTINUOUS
10
104.713
20
-129.526
11
104.994
21
-129.292
0
LINE
8
BLACK
6
CONTINUOUS
10
104.994
20
-129.292
11
105.252
21
-129.034
0
LINE
8
BLACK
6
CONTINUOUS
10
105.252
20
-129.034
11
105.486
21
-128.753
0
LINE
8
BLACK
6
CONTINUOUS
10
105.486
20
-128.753
11
105.692
21
-128.452
0
LINE
8
BLACK
6
CONTINUOUS
10
105.692
20
-128.452
11
105.87
21
-128.133
0
LINE
8
BLACK
6
CONTINUOUS
10
105.87
20
-128.133
11
106.017
21
-127.798
0
LINE
8
BLACK
6
CONTINUOUS
10
106.017
20
-127.798
11
106.133
21
-127.452
0
LINE
8
BLACK
6
CONTINUOUS
10
106.133
20
-127.452
11
106.217
21
-127.097
0
LINE
8
BLACK
6
CONTINUOUS
10
106.217
20
-127.097
11
106.267
21
-126.735
0
LINE
8
BLACK
6
CONTINUOUS
10
106.267
20
-126.735
11
106.284
21
-126.379
0
LINE
8
BLACK
6
CONTINUOUS
10
106.284
20
-126.379
11
106.28
21
-126.37
0
LINE
8
BLACK
6
CONTINUOUS
10
106.28
20
-126.37
11
106.28
21
-36.125
0
LINE
8
BLACK
6
CONTINUOUS
10
106.28
20
-36.125
11
106.284
21
-36.1158
0
LINE
8
BLACK
6
CONTINUOUS
10
106.284
20
-36.1158
11
106.267
21
-35.7602
0
LINE
8
BLACK
6
CONTINUOUS
10
106.267
20
-35.7602
11
106.217
21
-35.3984
0
LINE
8
BLACK
6
CONTINUOUS
10
106.217
20
-35.3984
11
106.133
21
-35.0429
0
LINE
8
BLACK
6
CONTINUOUS
10
106.133
20
-35.0429
11
106.017
21
-34.6966
0
LINE
8
BLACK
6
CONTINUOUS
10
106.017
20
-34.6966
11
105.87
21
-34.3625
0
LINE
8
BLACK
6
CONTINUOUS
10
105.87
20
-34.3625
11
105.692
21
-34.0434
0
LINE
8
BLACK
6
CONTINUOUS
10
105.692
20
-34.0434
11
105.486
21
-33.7421
0
LINE
8
BLACK
6
CONTINUOUS
10
105.486
20
-33.7421
11
105.252
21
-33.4611
0
LINE
8
BLACK
6
CONTINUOUS
10
105.252
20
-33.4611
11
104.994
21
-33.2028
0
LINE
8
BLACK
6
CONTINUOUS
10
104.994
20
-33.2028
11
104.713
21
-32.9695
0
LINE
8
BLACK
6
CONTINUOUS
10
104.713
20
-32.9695
11
104.412
21
-32.7631
0
LINE
8
BLACK
6
CONTINUOUS
10
104.412
20
-32.7631
11
104.093
21
-32.5853
0
LINE
8
BLACK
6
CONTINUOUS
10
104.093
20
-32.5853
11
103.758
21
-32.4378
0
LINE
8
BLACK
6
CONTINUOUS
10
103.758
20
-32.4378
11
103.412
21
-32.3217
0
LINE
8
BLACK
6
CONTINUOUS
10
103.412
20
-32.3217
11
103.057
21
-32.2381
0
LINE
8
BLACK
6
CONTINUOUS
10
103.057
20
-32.2381
11
102.695
21
-32.1876
0
LINE
8
BLACK
6
CONTINUOUS
10
102.695
20
-32.1876
11
102.339
21
-32.1712
0
LINE
8
BLACK
6
CONTINUOUS
10
102.339
20
-32.1712
11
102.33
21
-32.175
0
LINE
8
BLACK
6
CONTINUOUS
10
102.33
20
-32.175
11
34.13
21
-32.175
0
LINE
8
BLACK
6
CONTINUOUS
10
34.13
20
-32.175
11
34.1208
21
-32.1712
0
LINE
8
BLACK
6
CONTINUOUS
10
65.1946
20
-57.7054
11
65.18
21
-57.67
0
LINE
8
BLACK
6
CONTINUOUS
10
65.18
20
-57.67
11
65.18
21
-50.67
0
LINE
8
BLACK
6
CONTINUOUS
10
65.18
20
-50.67
11
65.1946
21
-50.6346
0
LINE
8
BLACK
6
CONTINUOUS
10
65.1946
20
-50.6346
11
65.23
21
-50.62
0
LINE
8
BLACK
6
CONTINUOUS
10
65.23
20
-50.62
11
71.23
21
-50.62
0
LINE
8
BLACK
6
CONTINUOUS
10
71.23
20
-50.62
11
71.2654
21
-50.6346
0
LINE
8
BLACK
6
CONTINUOUS
10
71.2654
20
-50.6346
11
71.28
21
-50.67
0
LINE
8
BLACK
6
CONTINUOUS
10
71.28
20
-50.67
11
71.28
21
-57.67
0
LINE
8
BLACK
6
CONTINUOUS
10
71.28
20
-57.67
11
71.2654
21
-57.7054
0
LINE
8
BLACK
6
CONTINUOUS
10
71.2654
20
-57.7054
11
71.23
21
-57.72
0
LINE
8
BLACK
6
CONTINUOUS
10
71.23
20
-57.72
11
65.23
21
-57.72
0
LINE
8
BLACK
6
CONTINUOUS
10
65.23
20
-57.72
11
65.1946
21
-57.7054
0
LINE
8
BLACK
6
CONTINUOUS
10
65.28
20
-50.72
11
65.28
21
-57.62
0
LINE
8
BLACK
6
CONTINUOUS
10
65.28
20
-57.62
11
71.18
21
-57.62
0
LINE
8
BLACK
6
CONTINUOUS
10
71.18
20
-57.62
11
71.18
21
-50.72
0
LINE
8
BLACK
6
CONTINUOUS
10
71.18
20
-50.72
11
65.28
21
-50.72
0
LINE
8
BLACK
6
CONTINUOUS
10
102.316
20
-120.366
11
102.409
21
-120.141
0
LINE
8
BLACK
6
CONTINUOUS
10
102.409
20
-120.141
11
102.536
21
-119.934
0
LINE
8
BLACK
6
CONTINUOUS
10
102.536
20
-119.934
11
102.694
21
-119.749
0
LINE
8
BLACK
6
CONTINUOUS
10
102.694
20
-119.749
11
102.879
21
-119.591
0
LINE
8
BLACK
6
CONTINUOUS
10
102.879
20
-119.591
11
103.086
21
-119.464
0
LINE
8
BLACK
6
CONTINUOUS
10
103.086
20
-119.464
11
103.311
21
-119.371
0
LINE
8
BLACK
6
CONTINUOUS
10
103.311
20
-119.371
11
103.548
21
-119.314
0
LINE
8
BLACK
6
CONTINUOUS
10
103.548
20
-119.314
11
103.79
21
-119.295
0
LINE
8
BLACK
6
CONTINUOUS
10
103.79
20
-119.295
11
104.032
21
-119.314
0
LINE
8
BLACK
6
CONTINUOUS
10
104.032
20
-119.314
11
104.269
21
-119.371
0
LINE
8
BLACK
6
CONTINUOUS
10
104.269
20
-119.371
11
104.494
21
-119.464
0
LINE
8
BLACK
6
CONTINUOUS
10
104.494
20
-119.464
11
104.701
21
-119.591
0
LINE
8
BLACK
6
CONTINUOUS
10
104.701
20
-119.591
11
104.886
21
-119.749
0
LINE
8
BLACK
6
CONTINUOUS
10
104.886
20
-119.749
11
105.044
21
-119.934
0
LINE
8
BLACK
6
CONTINUOUS
10
105.044
20
-119.934
11
105.171
21
-120.141
0
LINE
8
BLACK
6
CONTINUOUS
10
105.171
20
-120.141
11
105.264
21
-120.366
0
LINE
8
BLACK
6
CONTINUOUS
10
105.264
20
-120.366
11
105.321
21
-120.603
0
LINE
8
BLACK
6
CONTINUOUS
10
105.321
20
-120.603
11
105.34
21
-120.845
0
LINE
8
BLACK
6
CONTINUOUS
10
105.34
20
-120.845
11
105.321
21
-121.087
0
LINE
8
BLACK
6
CONTINUOUS
10
105.321
20
-121.087
11
105.264
21
-121.324
0
LINE
8
BLACK
6
CONTINUOUS
10
105.264
20
-121.324
11
105.171
21
-121.549
0
LINE
8
BLACK
6
CONTINUOUS
10
105.171
20
-121.549
11
105.044
21
-121.756
0
LINE
8
BLACK
6
CONTINUOUS
10
105.044
20
-121.756
11
104.886
21
-121.941
0
LINE
8
BLACK
6
CONTINUOUS
10
104.886
20
-121.941
11
104.701
21
-122.099
0
LINE
8
BLACK
6
CONTINUOUS
10
104.701
20
-122.099
11
104.494
21
-122.226
0
LINE
8
BLACK
6
CONTINUOUS
10
104.494
20
-122.226
11
104.269
21
-122.319
0
LINE
8
BLACK
6
CONTINUOUS
10
104.269
20
-122.319
11
104.032
21
-122.376
0
LINE
8
BLACK
6
CONTINUOUS
10
104.032
20
-122.376
11
103.79
21
-122.395
0
LINE
8
BLACK
6
CONTINUOUS
10
103.79
20
-122.395
11
103.548
21
-122.376
0
LINE
8
BLACK
6
CONTINUOUS
10
103.548
20
-122.376
11
103.311
21
-122.319
0
LINE
8
BLACK
6
CONTINUOUS
10
103.311
20
-122.319
11
103.086
21
-122.226
0
LINE
8
BLACK
6
CONTINUOUS
10
103.086
20
-122.226
11
102.879
21
-122.099
0
LINE
8
BLACK
6
CONTINUOUS
10
102.879
20
-122.099
11
102.694
21
-121.941
0
LINE
8
BLACK
6
CONTINUOUS
10
102.694
20
-121.941
11
102.536
21
-121.756
0
LINE
8
BLACK
6
CONTINUOUS
10
102.536
20
-121.756
11
102.409
21
-121.549
0
LINE
8
BLACK
6
CONTINUOUS
10
102.409
20
-121.549
11
102.316
21
-121.324
0
LINE
8
BLACK
6
CONTINUOUS
10
102.316
20
-121.324
11
102.259
21
-121.087
0
LINE
8
BLACK
6
CONTINUOUS
10
102.259
20
-121.087
11
102.24
21
-120.845
0
LINE
8
BLACK
6
CONTINUOUS
10
102.24
20
-120.845
11
102.243
21
-120.809
0
LINE
8
BLACK
6
CONTINUOUS
10
102.243
20
-120.809
11
102.259
21
-120.603
0
LINE
8
BLACK
6
CONTINUOUS
10
102.259
20
-120.603
11
102.316
21
-120.366
0
LINE
8
BLACK
6
CONTINUOUS
10
102.402
20
-121.28
11
102.491
21
-121.501
0
LINE
8
BLACK
6
CONTINUOUS
10
102.491
20
-121.501
11
102.616
21
-121.704
0
LINE
8
BLACK
6
CONTINUOUS
10
102.616
20
-121.704
11
102.772
21
-121.885
0
LINE
8
BLACK
6
CONTINUOUS
10
102.772
20
-121.885
11
102.955
21
-122.037
0
LINE
8
BLACK
6
CONTINUOUS
10
102.955
20
-122.037
11
103.161
21
-122.157
0
LINE
8
BLACK
6
CONTINUOUS
10
103.161
20
-122.157
11
103.384
21
-122.242
0
LINE
8
BLACK
6
CONTINUOUS
10
103.384
20
-122.242
11
103.618
21
-122.29
0
LINE
8
BLACK
6
CONTINUOUS
10
103.618
20
-122.29
11
103.856
21
-122.298
0
LINE
8
BLACK
6
CONTINUOUS
10
103.856
20
-122.298
11
104.093
21
-122.268
0
LINE
8
BLACK
6
CONTINUOUS
10
104.093
20
-122.268
11
104.321
21
-122.2
0
LINE
8
BLACK
6
CONTINUOUS
10
104.321
20
-122.2
11
104.535
21
-122.095
0
LINE
8
BLACK
6
CONTINUOUS
10
104.535
20
-122.095
11
104.729
21
-121.956
0
LINE
8
BLACK
6
CONTINUOUS
10
104.729
20
-121.956
11
104.898
21
-121.788
0
LINE
8
BLACK
6
CONTINUOUS
10
104.898
20
-121.788
11
105.037
21
-121.594
0
LINE
8
BLACK
6
CONTINUOUS
10
105.037
20
-121.594
11
105.143
21
-121.381
0
LINE
8
BLACK
6
CONTINUOUS
10
105.143
20
-121.381
11
105.212
21
-121.152
0
LINE
8
BLACK
6
CONTINUOUS
10
105.212
20
-121.152
11
105.243
21
-120.916
0
LINE
8
BLACK
6
CONTINUOUS
10
105.243
20
-120.916
11
105.245
21
-120.845
0
LINE
8
BLACK
6
CONTINUOUS
10
105.245
20
-120.845
11
105.225
21
-120.607
0
LINE
8
BLACK
6
CONTINUOUS
10
105.225
20
-120.607
11
105.167
21
-120.376
0
LINE
8
BLACK
6
CONTINUOUS
10
105.167
20
-120.376
11
105.072
21
-120.157
0
LINE
8
BLACK
6
CONTINUOUS
10
105.072
20
-120.157
11
104.943
21
-119.957
0
LINE
8
BLACK
6
CONTINUOUS
10
104.943
20
-119.957
11
104.782
21
-119.781
0
LINE
8
BLACK
6
CONTINUOUS
10
104.782
20
-119.781
11
104.595
21
-119.633
0
LINE
8
BLACK
6
CONTINUOUS
10
104.595
20
-119.633
11
104.386
21
-119.518
0
LINE
8
BLACK
6
CONTINUOUS
10
104.386
20
-119.518
11
104.162
21
-119.438
0
LINE
8
BLACK
6
CONTINUOUS
10
104.162
20
-119.438
11
103.927
21
-119.396
0
LINE
8
BLACK
6
CONTINUOUS
10
103.927
20
-119.396
11
103.689
21
-119.394
0
LINE
8
BLACK
6
CONTINUOUS
10
103.689
20
-119.394
11
103.453
21
-119.43
0
LINE
8
BLACK
6
CONTINUOUS
10
103.453
20
-119.43
11
103.226
21
-119.504
0
LINE
8
BLACK
6
CONTINUOUS
10
103.226
20
-119.504
11
103.015
21
-119.614
0
LINE
8
BLACK
6
CONTINUOUS
10
103.015
20
-119.614
11
102.824
21
-119.757
0
LINE
8
BLACK
6
CONTINUOUS
10
102.824
20
-119.757
11
102.659
21
-119.929
0
LINE
8
BLACK
6
CONTINUOUS
10
102.659
20
-119.929
11
102.525
21
-120.126
0
LINE
8
BLACK
6
CONTINUOUS
10
102.525
20
-120.126
11
102.425
21
-120.343
0
LINE
8
BLACK
6
CONTINUOUS
10
102.425
20
-120.343
11
102.361
21
-120.572
0
LINE
8
BLACK
6
CONTINUOUS
10
102.361
20
-120.572
11
102.335
21
-120.809
0
LINE
8
BLACK
6
CONTINUOUS
10
102.335
20
-120.809
11
102.349
21
-121.047
0
LINE
8
BLACK
6
CONTINUOUS
10
102.349
20
-121.047
11
102.402
21
-121.28
0
LINE
8
BLACK
6
CONTINUOUS
10
31.1959
20
-120.366
11
31.2889
21
-120.141
0
LINE
8
BLACK
6
CONTINUOUS
10
31.2889
20
-120.141
11
31.416
21
-119.934
0
LINE
8
BLACK
6
CONTINUOUS
10
31.416
20
-119.934
11
31.574
21
-119.749
0
LINE
8
BLACK
6
CONTINUOUS
10
31.574
20
-119.749
11
31.7589
21
-119.591
0
LINE
8
BLACK
6
CONTINUOUS
10
31.7589
20
-119.591
11
31.9663
21
-119.464
0
LINE
8
BLACK
6
CONTINUOUS
10
31.9663
20
-119.464
11
32.191
21
-119.371
0
LINE
8
BLACK
6
CONTINUOUS
10
32.191
20
-119.371
11
32.4275
21
-119.314
0
LINE
8
BLACK
6
CONTINUOUS
10
32.4275
20
-119.314
11
32.67
21
-119.295
0
LINE
8
BLACK
6
CONTINUOUS
10
32.67
20
-119.295
11
32.9125
21
-119.314
0
LINE
8
BLACK
6
CONTINUOUS
10
32.9125
20
-119.314
11
33.149
21
-119.371
0
LINE
8
BLACK
6
CONTINUOUS
10
33.149
20
-119.371
11
33.3737
21
-119.464
0
LINE
8
BLACK
6
CONTINUOUS
10
33.3737
20
-119.464
11
33.5811
21
-119.591
0
LINE
8
BLACK
6
CONTINUOUS
10
33.5811
20
-119.591
11
33.766
21
-119.749
0
LINE
8
BLACK
6
CONTINUOUS
10
33.766
20
-119.749
11
33.924
21
-119.934
0
LINE
8
BLACK
6
CONTINUOUS
10
33.924
20
-119.934
11
34.0511
21
-120.141
0
LINE
8
BLACK
6
CONTINUOUS
10
34.0511
20
-120.141
11
34.1441
21
-120.366
0
LINE
8
BLACK
6
CONTINUOUS
10
34.1441
20
-120.366
11
34.2009
21
-120.603
0
LINE
8
BLACK
6
CONTINUOUS
10
34.2009
20
-120.603
11
34.22
21
-120.845
0
LINE
8
BLACK
6
CONTINUOUS
10
34.22
20
-120.845
11
34.2009
21
-121.087
0
LINE
8
BLACK
6
CONTINUOUS
10
34.2009
20
-121.087
11
34.1441
21
-121.324
0
LINE
8
BLACK
6
CONTINUOUS
10
34.1441
20
-121.324
11
34.0511
21
-121.549
0
LINE
8
BLACK
6
CONTINUOUS
10
34.0511
20
-121.549
11
33.924
21
-121.756
0
LINE
8
BLACK
6
CONTINUOUS
10
33.924
20
-121.756
11
33.766
21
-121.941
0
LINE
8
BLACK
6
CONTINUOUS
10
33.766
20
-121.941
11
33.5811
21
-122.099
0
LINE
8
BLACK
6
CONTINUOUS
10
33.5811
20
-122.099
11
33.3737
21
-122.226
0
LINE
8
BLACK
6
CONTINUOUS
10
33.3737
20
-122.226
11
33.149
21
-122.319
0
LINE
8
BLACK
6
CONTINUOUS
10
33.149
20
-122.319
11
32.9125
21
-122.376
0
LINE
8
BLACK
6
CONTINUOUS
10
32.9125
20
-122.376
11
32.67
21
-122.395
0
LINE
8
BLACK
6
CONTINUOUS
10
32.67
20
-122.395
11
32.4275
21
-122.376
0
LINE
8
BLACK
6
CONTINUOUS
10
32.4275
20
-122.376
11
32.191
21
-122.319
0
LINE
8
BLACK
6
CONTINUOUS
10
32.191
20
-122.319
11
31.9663
21
-122.226
0
LINE
8
BLACK
6
CONTINUOUS
10
31.9663
20
-122.226
11
31.7589
21
-122.099
0
LINE
8
BLACK
6
CONTINUOUS
10
31.7589
20
-122.099
11
31.574
21
-121.941
0
LINE
8
BLACK
6
CONTINUOUS
10
31.574
20
-121.941
11
31.416
21
-121.756
0
LINE
8
BLACK
6
CONTINUOUS
10
31.416
20
-121.756
11
31.2889
21
-121.549
0
LINE
8
BLACK
6
CONTINUOUS
10
31.2889
20
-121.549
11
31.1959
21
-121.324
0
LINE
8
BLACK
6
CONTINUOUS
10
31.1959
20
-121.324
11
31.1391
21
-121.087
0
LINE
8
BLACK
6
CONTINUOUS
10
31.1391
20
-121.087
11
31.12
21
-120.845
0
LINE
8
BLACK
6
CONTINUOUS
10
31.12
20
-120.845
11
31.1228
21
-120.809
0
LINE
8
BLACK
6
CONTINUOUS
10
31.1228
20
-120.809
11
31.1391
21
-120.603
0
LINE
8
BLACK
6
CONTINUOUS
10
31.1391
20
-120.603
11
31.1959
21
-120.366
0
LINE
8
BLACK
6
CONTINUOUS
10
31.2816
20
-121.28
11
31.3713
21
-121.501
0
LINE
8
BLACK
6
CONTINUOUS
10
31.3713
20
-121.501
11
31.4959
21
-121.704
0
LINE
8
BLACK
6
CONTINUOUS
10
31.4959
20
-121.704
11
31.652
21
-121.885
0
LINE
8
BLACK
6
CONTINUOUS
10
31.652
20
-121.885
11
31.8355
21
-122.037
0
LINE
8
BLACK
6
CONTINUOUS
10
31.8355
20
-122.037
11
32.0413
21
-122.157
0
LINE
8
BLACK
6
CONTINUOUS
10
32.0413
20
-122.157
11
32.2641
21
-122.242
0
LINE
8
BLACK
6
CONTINUOUS
10
32.2641
20
-122.242
11
32.4977
21
-122.29
0
LINE
8
BLACK
6
CONTINUOUS
10
32.4977
20
-122.29
11
32.736
21
-122.298
0
LINE
8
BLACK
6
CONTINUOUS
10
32.736
20
-122.298
11
32.9725
21
-122.268
0
LINE
8
BLACK
6
CONTINUOUS
10
32.9725
20
-122.268
11
33.2009
21
-122.2
0
LINE
8
BLACK
6
CONTINUOUS
10
33.2009
20
-122.2
11
33.415
21
-122.095
0
LINE
8
BLACK
6
CONTINUOUS
10
33.415
20
-122.095
11
33.6091
21
-121.956
0
LINE
8
BLACK
6
CONTINUOUS
10
33.6091
20
-121.956
11
33.778
21
-121.788
0
LINE
8
BLACK
6
CONTINUOUS
10
33.778
20
-121.788
11
33.9172
21
-121.594
0
LINE
8
BLACK
6
CONTINUOUS
10
33.9172
20
-121.594
11
34.0228
21
-121.381
0
LINE
8
BLACK
6
CONTINUOUS
10
34.0228
20
-121.381
11
34.0921
21
-121.152
0
LINE
8
BLACK
6
CONTINUOUS
10
34.0921
20
-121.152
11
34.1232
21
-120.916
0
LINE
8
BLACK
6
CONTINUOUS
10
34.1232
20
-120.916
11
34.125
21
-120.845
0
LINE
8
BLACK
6
CONTINUOUS
10
34.125
20
-120.845
11
34.1054
21
-120.607
0
LINE
8
BLACK
6
CONTINUOUS
10
34.1054
20
-120.607
11
34.0473
21
-120.376
0
LINE
8
BLACK
6
CONTINUOUS
10
34.0473
20
-120.376
11
33.9523
21
-120.157
0
LINE
8
BLACK
6
CONTINUOUS
10
33.9523
20
-120.157
11
33.8228
21
-119.957
0
LINE
8
BLACK
6
CONTINUOUS
10
33.8228
20
-119.957
11
33.6623
21
-119.781
0
LINE
8
BLACK
6
CONTINUOUS
10
33.6623
20
-119.781
11
33.4752
21
-119.633
0
LINE
8
BLACK
6
CONTINUOUS
10
33.4752
20
-119.633
11
33.2664
21
-119.518
0
LINE
8
BLACK
6
CONTINUOUS
10
33.2664
20
-119.518
11
33.0417
21
-119.438
0
LINE
8
BLACK
6
CONTINUOUS
10
33.0417
20
-119.438
11
32.8069
21
-119.396
0
LINE
8
BLACK
6
CONTINUOUS
10
32.8069
20
-119.396
11
32.5685
21
-119.394
0
LINE
8
BLACK
6
CONTINUOUS
10
32.5685
20
-119.394
11
32.3328
21
-119.43
0
LINE
8
BLACK
6
CONTINUOUS
10
32.3328
20
-119.43
11
32.1062
21
-119.504
0
LINE
8
BLACK
6
CONTINUOUS
10
32.1062
20
-119.504
11
31.8947
21
-119.614
0
LINE
8
BLACK
6
CONTINUOUS
10
31.8947
20
-119.614
11
31.704
21
-119.757
0
LINE
8
BLACK
6
CONTINUOUS
10
31.704
20
-119.757
11
31.5393
21
-119.929
0
LINE
8
BLACK
6
CONTINUOUS
10
31.5393
20
-119.929
11
31.4049
21
-120.126
0
LINE
8
BLACK
6
CONTINUOUS
10
31.4049
20
-120.126
11
31.3045
21
-120.343
0
LINE
8
BLACK
6
CONTINUOUS
10
31.3045
20
-120.343
11
31.2408
21
-120.572
0
LINE
8
BLACK
6
CONTINUOUS
10
31.2408
20
-120.572
11
31.2155
21
-120.809
0
LINE
8
BLACK
6
CONTINUOUS
10
31.2155
20
-120.809
11
31.2292
21
-121.047
0
LINE
8
BLACK
6
CONTINUOUS
10
31.2292
20
-121.047
11
31.2816
21
-121.28
0
LINE
8
BLACK
6
CONTINUOUS
10
102.316
20
-53.691
11
102.409
21
-53.4663
0
LINE
8
BLACK
6
CONTINUOUS
10
102.409
20
-53.4663
11
102.536
21
-53.2589
0
LINE
8
BLACK
6
CONTINUOUS
10
102.536
20
-53.2589
11
102.694
21
-53.074
0
LINE
8
BLACK
6
CONTINUOUS
10
102.694
20
-53.074
11
102.879
21
-52.916
0
LINE
8
BLACK
6
CONTINUOUS
10
102.879
20
-52.916
11
103.086
21
-52.7889
0
LINE
8
BLACK
6
CONTINUOUS
10
103.086
20
-52.7889
11
103.311
21
-52.6959
0
LINE
8
BLACK
6
CONTINUOUS
10
103.311
20
-52.6959
11
103.548
21
-52.6391
0
LINE
8
BLACK
6
CONTINUOUS
10
103.548
20
-52.6391
11
103.79
21
-52.62
0
LINE
8
BLACK
6
CONTINUOUS
10
103.79
20
-52.62
11
104.032
21
-52.6391
0
LINE
8
BLACK
6
CONTINUOUS
10
104.032
20
-52.6391
11
104.269
21
-52.6959
0
LINE
8
BLACK
6
CONTINUOUS
10
104.269
20
-52.6959
11
104.494
21
-52.7889
0
LINE
8
BLACK
6
CONTINUOUS
10
104.494
20
-52.7889
11
104.701
21
-52.916
0
LINE
8
BLACK
6
CONTINUOUS
10
104.701
20
-52.916
11
104.886
21
-53.074
0
LINE
8
BLACK
6
CONTINUOUS
10
104.886
20
-53.074
11
105.044
21
-53.2589
0
LINE
8
BLACK
6
CONTINUOUS
10
105.044
20
-53.2589
11
105.171
21
-53.4663
0
LINE
8
BLACK
6
CONTINUOUS
10
105.171
20
-53.4663
11
105.264
21
-53.691
0
LINE
8
BLACK
6
CONTINUOUS
10
105.264
20
-53.691
11
105.321
21
-53.9275
0
LINE
8
BLACK
6
CONTINUOUS
10
105.321
20
-53.9275
11
105.34
21
-54.17
0
LINE
8
BLACK
6
CONTINUOUS
10
105.34
20
-54.17
11
105.321
21
-54.4125
0
LINE
8
BLACK
6
CONTINUOUS
10
105.321
20
-54.4125
11
105.264
21
-54.649
0
LINE
8
BLACK
6
CONTINUOUS
10
105.264
20
-54.649
11
105.171
21
-54.8737
0
LINE
8
BLACK
6
CONTINUOUS
10
105.171
20
-54.8737
11
105.044
21
-55.0811
0
LINE
8
BLACK
6
CONTINUOUS
10
105.044
20
-55.0811
11
104.886
21
-55.266
0
LINE
8
BLACK
6
CONTINUOUS
10
104.886
20
-55.266
11
104.701
21
-55.424
0
LINE
8
BLACK
6
CONTINUOUS
10
104.701
20
-55.424
11
104.494
21
-55.5511
0
LINE
8
BLACK
6
CONTINUOUS
10
104.494
20
-55.5511
11
104.269
21
-55.6441
0
LINE
8
BLACK
6
CONTINUOUS
10
104.269
20
-55.6441
11
104.032
21
-55.7009
0
LINE
8
BLACK
6
CONTINUOUS
10
104.032
20
-55.7009
11
103.79
21
-55.72
0
LINE
8
BLACK
6
CONTINUOUS
10
103.79
20
-55.72
11
103.548
21
-55.7009
0
LINE
8
BLACK
6
CONTINUOUS
10
103.548
20
-55.7009
11
103.311
21
-55.6441
0
LINE
8
BLACK
6
CONTINUOUS
10
103.311
20
-55.6441
11
103.086
21
-55.5511
0
LINE
8
BLACK
6
CONTINUOUS
10
103.086
20
-55.5511
11
102.879
21
-55.424
0
LINE
8
BLACK
6
CONTINUOUS
10
102.879
20
-55.424
11
102.694
21
-55.266
0
LINE
8
BLACK
6
CONTINUOUS
10
102.694
20
-55.266
11
102.536
21
-55.0811
0
LINE
8
BLACK
6
CONTINUOUS
10
102.536
20
-55.0811
11
102.409
21
-54.8737
0
LINE
8
BLACK
6
CONTINUOUS
10
102.409
20
-54.8737
11
102.316
21
-54.649
0
LINE
8
BLACK
6
CONTINUOUS
10
102.316
20
-54.649
11
102.259
21
-54.4125
0
LINE
8
BLACK
6
CONTINUOUS
10
102.259
20
-54.4125
11
102.24
21
-54.17
0
LINE
8
BLACK
6
CONTINUOUS
10
102.24
20
-54.17
11
102.243
21
-54.1345
0
LINE
8
BLACK
6
CONTINUOUS
10
102.243
20
-54.1345
11
102.259
21
-53.9275
0
LINE
8
BLACK
6
CONTINUOUS
10
102.259
20
-53.9275
11
102.316
21
-53.691
0
LINE
8
BLACK
6
CONTINUOUS
10
102.402
20
-54.6051
11
102.491
21
-54.826
0
LINE
8
BLACK
6
CONTINUOUS
10
102.491
20
-54.826
11
102.616
21
-55.0293
0
LINE
8
BLACK
6
CONTINUOUS
10
102.616
20
-55.0293
11
102.772
21
-55.2095
0
LINE
8
BLACK
6
CONTINUOUS
10
102.772
20
-55.2095
11
102.955
21
-55.3618
0
LINE
8
BLACK
6
CONTINUOUS
10
102.955
20
-55.3618
11
103.161
21
-55.4821
0
LINE
8
BLACK
6
CONTINUOUS
10
103.161
20
-55.4821
11
103.384
21
-55.5672
0
LINE
8
BLACK
6
CONTINUOUS
10
103.384
20
-55.5672
11
103.618
21
-55.6147
0
LINE
8
BLACK
6
CONTINUOUS
10
103.618
20
-55.6147
11
103.856
21
-55.6235
0
LINE
8
BLACK
6
CONTINUOUS
10
103.856
20
-55.6235
11
104.093
21
-55.5932
0
LINE
8
BLACK
6
CONTINUOUS
10
104.093
20
-55.5932
11
104.321
21
-55.5247
0
LINE
8
BLACK
6
CONTINUOUS
10
104.321
20
-55.5247
11
104.535
21
-55.4198
0
LINE
8
BLACK
6
CONTINUOUS
10
104.535
20
-55.4198
11
104.729
21
-55.2813
0
LINE
8
BLACK
6
CONTINUOUS
10
104.729
20
-55.2813
11
104.898
21
-55.113
0
LINE
8
BLACK
6
CONTINUOUS
10
104.898
20
-55.113
11
105.037
21
-54.9194
0
LINE
8
BLACK
6
CONTINUOUS
10
105.037
20
-54.9194
11
105.143
21
-54.7056
0
LINE
8
BLACK
6
CONTINUOUS
10
105.143
20
-54.7056
11
105.212
21
-54.4775
0
LINE
8
BLACK
6
CONTINUOUS
10
105.212
20
-54.4775
11
105.243
21
-54.2411
0
LINE
8
BLACK
6
CONTINUOUS
10
105.243
20
-54.2411
11
105.245
21
-54.17
0
LINE
8
BLACK
6
CONTINUOUS
10
105.245
20
-54.17
11
105.225
21
-53.9324
0
LINE
8
BLACK
6
CONTINUOUS
10
105.225
20
-53.9324
11
105.167
21
-53.7011
0
LINE
8
BLACK
6
CONTINUOUS
10
105.167
20
-53.7011
11
105.072
21
-53.4825
0
LINE
8
BLACK
6
CONTINUOUS
10
105.072
20
-53.4825
11
104.943
21
-53.2823
0
LINE
8
BLACK
6
CONTINUOUS
10
104.943
20
-53.2823
11
104.782
21
-53.1059
0
LINE
8
BLACK
6
CONTINUOUS
10
104.782
20
-53.1059
11
104.595
21
-52.9581
0
LINE
8
BLACK
6
CONTINUOUS
10
104.595
20
-52.9581
11
104.386
21
-52.8429
0
LINE
8
BLACK
6
CONTINUOUS
10
104.386
20
-52.8429
11
104.162
21
-52.7633
0
LINE
8
BLACK
6
CONTINUOUS
10
104.162
20
-52.7633
11
103.927
21
-52.7215
0
LINE
8
BLACK
6
CONTINUOUS
10
103.927
20
-52.7215
11
103.689
21
-52.7186
0
LINE
8
BLACK
6
CONTINUOUS
10
103.689
20
-52.7186
11
103.453
21
-52.7546
0
LINE
8
BLACK
6
CONTINUOUS
10
103.453
20
-52.7546
11
103.226
21
-52.8287
0
LINE
8
BLACK
6
CONTINUOUS
10
103.226
20
-52.8287
11
103.015
21
-52.9388
0
LINE
8
BLACK
6
CONTINUOUS
10
103.015
20
-52.9388
11
102.824
21
-53.082
0
LINE
8
BLACK
6
CONTINUOUS
10
102.824
20
-53.082
11
102.659
21
-53.2544
0
LINE
8
BLACK
6
CONTINUOUS
10
102.659
20
-53.2544
11
102.525
21
-53.4513
0
LINE
8
BLACK
6
CONTINUOUS
10
102.525
20
-53.4513
11
102.425
21
-53.6676
0
LINE
8
BLACK
6
CONTINUOUS
10
102.425
20
-53.6676
11
102.361
21
-53.8974
0
LINE
8
BLACK
6
CONTINUOUS
10
102.361
20
-53.8974
11
102.335
21
-54.1345
0
LINE
8
BLACK
6
CONTINUOUS
10
102.335
20
-54.1345
11
102.349
21
-54.3725
0
LINE
8
BLACK
6
CONTINUOUS
10
102.349
20
-54.3725
11
102.402
21
-54.6051
0
LINE
8
BLACK
6
CONTINUOUS
10
31.1959
20
-53.691
11
31.2889
21
-53.4663
0
LINE
8
BLACK
6
CONTINUOUS
10
31.2889
20
-53.4663
11
31.416
21
-53.2589
0
LINE
8
BLACK
6
CONTINUOUS
10
31.416
20
-53.2589
11
31.574
21
-53.074
0
LINE
8
BLACK
6
CONTINUOUS
10
31.574
20
-53.074
11
31.7589
21
-52.916
0
LINE
8
BLACK
6
CONTINUOUS
10
31.7589
20
-52.916
11
31.9663
21
-52.7889
0
LINE
8
BLACK
6
CONTINUOUS
10
31.9663
20
-52.7889
11
32.191
21
-52.6959
0
LINE
8
BLACK
6
CONTINUOUS
10
32.191
20
-52.6959
11
32.4275
21
-52.6391
0
LINE
8
BLACK
6
CONTINUOUS
10
32.4275
20
-52.6391
11
32.67
21
-52.62
0
LINE
8
BLACK
6
CONTINUOUS
10
32.67
20
-52.62
11
32.9125
21
-52.6391
0
LINE
8
BLACK
6
CONTINUOUS
10
32.9125
20
-52.6391
11
33.149
21
-52.6959
0
LINE
8
BLACK
6
CONTINUOUS
10
33.149
20
-52.6959
11
33.3737
21
-52.7889
0
LINE
8
BLACK
6
CONTINUOUS
10
33.3737
20
-52.7889
11
33.5811
21
-52.916
0
LINE
8
BLACK
6
CONTINUOUS
10
33.5811
20
-52.916
11
33.766
21
-53.074
0
LINE
8
BLACK
6
CONTINUOUS
10
33.766
20
-53.074
11
33.924
21
-53.2589
0
LINE
8
BLACK
6
CONTINUOUS
10
33.924
20
-53.2589
11
34.0511
21
-53.4663
0
LINE
8
BLACK
6
CONTINUOUS
10
34.0511
20
-53.4663
11
34.1441
21
-53.691
0
LINE
8
BLACK
6
CONTINUOUS
10
34.1441
20
-53.691
11
34.2009
21
-53.9275
0
LINE
8
BLACK
6
CONTINUOUS
10
34.2009
20
-53.9275
11
34.22
21
-54.17
0
LINE
8
BLACK
6
CONTINUOUS
10
34.22
20
-54.17
11
34.2009
21
-54.4125
0
LINE
8
BLACK
6
CONTINUOUS
10
34.2009
20
-54.4125
11
34.1441
21
-54.649
0
LINE
8
BLACK
6
CONTINUOUS
10
34.1441
20
-54.649
11
34.0511
21
-54.8737
0
LINE
8
BLACK
6
CONTINUOUS
10
34.0511
20
-54.8737
11
33.924
21
-55.0811
0
LINE
8
BLACK
6
CONTINUOUS
10
33.924
20
-55.0811
11
33.766
21
-55.266
0
LINE
8
BLACK
6
CONTINUOUS
10
33.766
20
-55.266
11
33.5811
21
-55.424
0
LINE
8
BLACK
6
CONTINUOUS
10
33.5811
20
-55.424
11
33.3737
21
-55.5511
0
LINE
8
BLACK
6
CONTINUOUS
10
33.3737
20
-55.5511
11
33.149
21
-55.6441
0
LINE
8
BLACK
6
CONTINUOUS
10
33.149
20
-55.6441
11
32.9125
21
-55.7009
0
LINE
8
BLACK
6
CONTINUOUS
10
32.9125
20
-55.7009
11
32.67
21
-55.72
0
LINE
8
BLACK
6
CONTINUOUS
10
32.67
20
-55.72
11
32.4275
21
-55.7009
0
LINE
8
BLACK
6
CONTINUOUS
10
32.4275
20
-55.7009
11
32.191
21
-55.6441
0
LINE
8
BLACK
6
CONTINUOUS
10
32.191
20
-55.6441
11
31.9663
21
-55.5511
0
LINE
8
BLACK
6
CONTINUOUS
10
31.9663
20
-55.5511
11
31.7589
21
-55.424
0
LINE
8
BLACK
6
CONTINUOUS
10
31.7589
20
-55.424
11
31.574
21
-55.266
0
LINE
8
BLACK
6
CONTINUOUS
10
31.574
20
-55.266
11
31.416
21
-55.0811
0
LINE
8
BLACK
6
CONTINUOUS
10
31.416
20
-55.0811
11
31.2889
21
-54.8737
0
LINE
8
BLACK
6
CONTINUOUS
10
31.2889
20
-54.8737
11
31.1959
21
-54.649
0
LINE
8
BLACK
6
CONTINUOUS
10
31.1959
20
-54.649
11
31.1391
21
-54.4125
0
LINE
8
BLACK
6
CONTINUOUS
10
31.1391
20
-54.4125
11
31.12
21
-54.17
0
LINE
8
BLACK
6
CONTINUOUS
10
31.12
20
-54.17
11
31.1228
21
-54.1345
0
LINE
8
BLACK
6
CONTINUOUS
10
31.1228
20
-54.1345
11
31.1391
21
-53.9275
0
LINE
8
BLACK
6
CONTINUOUS
10
31.1391
20
-53.9275
11
31.1959
21
-53.691
0
LINE
8
BLACK
6
CONTINUOUS
10
31.2816
20
-54.6051
11
31.3713
21
-54.826
0
LINE
8
BLACK
6
CONTINUOUS
10
31.3713
20
-54.826
11
31.4959
21
-55.0293
0
LINE
8
BLACK
6
CONTINUOUS
10
31.4959
20
-55.0293
11
31.652
21
-55.2095
0
LINE
8
BLACK
6
CONTINUOUS
10
31.652
20
-55.2095
11
31.8355
21
-55.3618
0
LINE
8
BLACK
6
CONTINUOUS
10
31.8355
20
-55.3618
11
32.0413
21
-55.4821
0
LINE
8
BLACK
6
CONTINUOUS
10
32.0413
20
-55.4821
11
32.2641
21
-55.5672
0
LINE
8
BLACK
6
CONTINUOUS
10
32.2641
20
-55.5672
11
32.4977
21
-55.6147
0
LINE
8
BLACK
6
CONTINUOUS
10
32.4977
20
-55.6147
11
32.736
21
-55.6235
0
LINE
8
BLACK
6
CONTINUOUS
10
32.736
20
-55.6235
11
32.9725
21
-55.5932
0
LINE
8
BLACK
6
CONTINUOUS
10
32.9725
20
-55.5932
11
33.2009
21
-55.5247
0
LINE
8
BLACK
6
CONTINUOUS
10
33.2009
20
-55.5247
11
33.415
21
-55.4198
0
LINE
8
BLACK
6
CONTINUOUS
10
33.415
20
-55.4198
11
33.6091
21
-55.2813
0
LINE
8
BLACK
6
CONTINUOUS
10
33.6091
20
-55.2813
11
33.778
21
-55.113
0
LINE
8
BLACK
6
CONTINUOUS
10
33.778
20
-55.113
11
33.9172
21
-54.9194
0
LINE
8
BLACK
6
CONTINUOUS
10
33.9172
20
-54.9194
11
34.0228
21
-54.7056
0
LINE
8
BLACK
6
CONTINUOUS
10
34.0228
20
-54.7056
11
34.0921
21
-54.4775
0
LINE
8
BLACK
6
CONTINUOUS
10
34.0921
20
-54.4775
11
34.1232
21
-54.2411
0
LINE
8
BLACK
6
CONTINUOUS
10
34.1232
20
-54.2411
11
34.125
21
-54.17
0
LINE
8
BLACK
6
CONTINUOUS
10
34.125
20
-54.17
11
34.1054
21
-53.9324
0
LINE
8
BLACK
6
CONTINUOUS
10
34.1054
20
-53.9324
11
34.0473
21
-53.7011
0
LINE
8
BLACK
6
CONTINUOUS
10
34.0473
20
-53.7011
11
33.9523
21
-53.4825
0
LINE
8
BLACK
6
CONTINUOUS
10
33.9523
20
-53.4825
11
33.8228
21
-53.2823
0
LINE
8
BLACK
6
CONTINUOUS
10
33.8228
20
-53.2823
11
33.6623
21
-53.1059
0
LINE
8
BLACK
6
CONTINUOUS
10
33.6623
20
-53.1059
11
33.4752
21
-52.9581
0
LINE
8
BLACK
6
CONTINUOUS
10
33.4752
20
-52.9581
11
33.2664
21
-52.8429
0
LINE
8
BLACK
6
CONTINUOUS
10
33.2664
20
-52.8429
11
33.0417
21
-52.7633
0
LINE
8
BLACK
6
CONTINUOUS
10
33.0417
20
-52.7633
11
32.8069
21
-52.7215
0
LINE
8
BLACK
6
CONTINUOUS
10
32.8069
20
-52.7215
11
32.5685
21
-52.7186
0
LINE
8
BLACK
6
CONTINUOUS
10
32.5685
20
-52.7186
11
32.3328
21
-52.7546
0
LINE
8
BLACK
6
CONTINUOUS
10
32.3328
20
-52.7546
11
32.1062
21
-52.8287
0
LINE
8
BLACK
6
CONTINUOUS
10
32.1062
20
-52.8287
11
31.8947
21
-52.9388
0
LINE
8
BLACK
6
CONTINUOUS
10
31.8947
20
-52.9388
11
31.704
21
-53.082
0
LINE
8
BLACK
6
CONTINUOUS
10
31.704
20
-53.082
11
31.5393
21
-53.2544
0
LINE
8
BLACK
6
CONTINUOUS
10
31.5393
20
-53.2544
11
31.4049
21
-53.4513
0
LINE
8
BLACK
6
CONTINUOUS
10
31.4049
20
-53.4513
11
31.3045
21
-53.6676
0
LINE
8
BLACK
6
CONTINUOUS
10
31.3045
20
-53.6676
11
31.2408
21
-53.8974
0
LINE
8
BLACK
6
CONTINUOUS
10
31.2408
20
-53.8974
11
31.2155
21
-54.1345
0
LINE
8
BLACK
6
CONTINUOUS
10
31.2155
20
-54.1345
11
31.2292
21
-54.3725
0
LINE
8
BLACK
6
CONTINUOUS
10
31.2292
20
-54.3725
11
31.2816
21
-54.6051
0
LINE
8
BLACK
6
CONTINUOUS
10
66.7559
20
-34.596
11
66.8489
21
-34.3713
0
LINE
8
BLACK
6
CONTINUOUS
10
66.8489
20
-34.3713
11
66.976
21
-34.1639
0
LINE
8
BLACK
6
CONTINUOUS
10
66.976
20
-34.1639
11
67.134
21
-33.979
0
LINE
8
BLACK
6
CONTINUOUS
10
67.134
20
-33.979
11
67.3189
21
-33.821
0
LINE
8
BLACK
6
CONTINUOUS
10
67.3189
20
-33.821
11
67.5263
21
-33.6939
0
LINE
8
BLACK
6
CONTINUOUS
10
67.5263
20
-33.6939
11
67.751
21
-33.6009
0
LINE
8
BLACK
6
CONTINUOUS
10
67.751
20
-33.6009
11
67.9875
21
-33.5441
0
LINE
8
BLACK
6
CONTINUOUS
10
67.9875
20
-33.5441
11
68.23
21
-33.525
0
LINE
8
BLACK
6
CONTINUOUS
10
68.23
20
-33.525
11
68.4725
21
-33.5441
0
LINE
8
BLACK
6
CONTINUOUS
10
68.4725
20
-33.5441
11
68.709
21
-33.6009
0
LINE
8
BLACK
6
CONTINUOUS
10
68.709
20
-33.6009
11
68.9337
21
-33.6939
0
LINE
8
BLACK
6
CONTINUOUS
10
68.9337
20
-33.6939
11
69.1411
21
-33.821
0
LINE
8
BLACK
6
CONTINUOUS
10
69.1411
20
-33.821
11
69.326
21
-33.979
0
LINE
8
BLACK
6
CONTINUOUS
10
69.326
20
-33.979
11
69.484
21
-34.1639
0
LINE
8
BLACK
6
CONTINUOUS
10
69.484
20
-34.1639
11
69.6111
21
-34.3713
0
LINE
8
BLACK
6
CONTINUOUS
10
69.6111
20
-34.3713
11
69.7041
21
-34.596
0
LINE
8
BLACK
6
CONTINUOUS
10
69.7041
20
-34.596
11
69.7609
21
-34.8325
0
LINE
8
BLACK
6
CONTINUOUS
10
69.7609
20
-34.8325
11
69.78
21
-35.075
0
LINE
8
BLACK
6
CONTINUOUS
10
69.78
20
-35.075
11
69.7609
21
-35.3175
0
LINE
8
BLACK
6
CONTINUOUS
10
69.7609
20
-35.3175
11
69.7041
21
-35.554
0
LINE
8
BLACK
6
CONTINUOUS
10
69.7041
20
-35.554
11
69.6111
21
-35.7787
0
LINE
8
BLACK
6
CONTINUOUS
10
69.6111
20
-35.7787
11
69.484
21
-35.9861
0
LINE
8
BLACK
6
CONTINUOUS
10
69.484
20
-35.9861
11
69.326
21
-36.171
0
LINE
8
BLACK
6
CONTINUOUS
10
69.326
20
-36.171
11
69.1411
21
-36.329
0
LINE
8
BLACK
6
CONTINUOUS
10
69.1411
20
-36.329
11
68.9337
21
-36.4561
0
LINE
8
BLACK
6
CONTINUOUS
10
68.9337
20
-36.4561
11
68.709
21
-36.5491
0
LINE
8
BLACK
6
CONTINUOUS
10
68.709
20
-36.5491
11
68.4725
21
-36.6059
0
LINE
8
BLACK
6
CONTINUOUS
10
68.4725
20
-36.6059
11
68.23
21
-36.625
0
LINE
8
BLACK
6
CONTINUOUS
10
68.23
20
-36.625
11
67.9875
21
-36.6059
0
LINE
8
BLACK
6
CONTINUOUS
10
67.9875
20
-36.6059
11
67.751
21
-36.5491
0
LINE
8
BLACK
6
CONTINUOUS
10
67.751
20
-36.5491
11
67.5263
21
-36.4561
0
LINE
8
BLACK
6
CONTINUOUS
10
67.5263
20
-36.4561
11
67.3189
21
-36.329
0
LINE
8
BLACK
6
CONTINUOUS
10
67.3189
20
-36.329
11
67.134
21
-36.171
0
LINE
8
BLACK
6
CONTINUOUS
10
67.134
20
-36.171
11
66.976
21
-35.9861
0
LINE
8
BLACK
6
CONTINUOUS
10
66.976
20
-35.9861
11
66.8489
21
-35.7787
0
LINE
8
BLACK
6
CONTINUOUS
10
66.8489
20
-35.7787
11
66.7559
21
-35.554
0
LINE
8
BLACK
6
CONTINUOUS
10
66.7559
20
-35.554
11
66.6991
21
-35.3175
0
LINE
8
BLACK
6
CONTINUOUS
10
66.6991
20
-35.3175
11
66.68
21
-35.075
0
LINE
8
BLACK
6
CONTINUOUS
10
66.68
20
-35.075
11
66.6828
21
-35.0395
0
LINE
8
BLACK
6
CONTINUOUS
10
66.6828
20
-35.0395
11
66.6991
21
-34.8325
0
LINE
8
BLACK
6
CONTINUOUS
10
66.6991
20
-34.8325
11
66.7559
21
-34.596
0
LINE
8
BLACK
6
CONTINUOUS
10
66.8416
20
-35.5101
11
66.9313
21
-35.731
0
LINE
8
BLACK
6
CONTINUOUS
10
66.9313
20
-35.731
11
67.0559
21
-35.9343
0
LINE
8
BLACK
6
CONTINUOUS
10
67.0559
20
-35.9343
11
67.212
21
-36.1145
0
LINE
8
BLACK
6
CONTINUOUS
10
67.212
20
-36.1145
11
67.3955
21
-36.2668
0
LINE
8
BLACK
6
CONTINUOUS
10
67.3955
20
-36.2668
11
67.6013
21
-36.3871
0
LINE
8
BLACK
6
CONTINUOUS
10
67.6013
20
-36.3871
11
67.8241
21
-36.4722
0
LINE
8
BLACK
6
CONTINUOUS
10
67.8241
20
-36.4722
11
68.0577
21
-36.5197
0
LINE
8
BLACK
6
CONTINUOUS
10
68.0577
20
-36.5197
11
68.296
21
-36.5285
0
LINE
8
BLACK
6
CONTINUOUS
10
68.296
20
-36.5285
11
68.5325
21
-36.4982
0
LINE
8
BLACK
6
CONTINUOUS
10
68.5325
20
-36.4982
11
68.7609
21
-36.4297
0
LINE
8
BLACK
6
CONTINUOUS
10
68.7609
20
-36.4297
11
68.975
21
-36.3248
0
LINE
8
BLACK
6
CONTINUOUS
10
68.975
20
-36.3248
11
69.1691
21
-36.1863
0
LINE
8
BLACK
6
CONTINUOUS
10
69.1691
20
-36.1863
11
69.338
21
-36.018
0
LINE
8
BLACK
6
CONTINUOUS
10
69.338
20
-36.018
11
69.4772
21
-35.8244
0
LINE
8
BLACK
6
CONTINUOUS
10
69.4772
20
-35.8244
11
69.5828
21
-35.6106
0
LINE
8
BLACK
6
CONTINUOUS
10
69.5828
20
-35.6106
11
69.6521
21
-35.3825
0
LINE
8
BLACK
6
CONTINUOUS
10
69.6521
20
-35.3825
11
69.6832
21
-35.1461
0
LINE
8
BLACK
6
CONTINUOUS
10
69.6832
20
-35.1461
11
69.685
21
-35.075
0
LINE
8
BLACK
6
CONTINUOUS
10
69.685
20
-35.075
11
69.6654
21
-34.8374
0
LINE
8
BLACK
6
CONTINUOUS
10
69.6654
20
-34.8374
11
69.6073
21
-34.6061
0
LINE
8
BLACK
6
CONTINUOUS
10
69.6073
20
-34.6061
11
69.5123
21
-34.3875
0
LINE
8
BLACK
6
CONTINUOUS
10
69.5123
20
-34.3875
11
69.3828
21
-34.1873
0
LINE
8
BLACK
6
CONTINUOUS
10
69.3828
20
-34.1873
11
69.2223
21
-34.0109
0
LINE
8
BLACK
6
CONTINUOUS
10
69.2223
20
-34.0109
11
69.0352
21
-33.8631
0
LINE
8
BLACK
6
CONTINUOUS
10
69.0352
20
-33.8631
11
68.8264
21
-33.7479
0
LINE
8
BLACK
6
CONTINUOUS
10
68.8264
20
-33.7479
11
68.6017
21
-33.6683
0
LINE
8
BLACK
6
CONTINUOUS
10
68.6017
20
-33.6683
11
68.3669
21
-33.6265
0
LINE
8
BLACK
6
CONTINUOUS
10
68.3669
20
-33.6265
11
68.1285
21
-33.6236
0
LINE
8
BLACK
6
CONTINUOUS
10
68.1285
20
-33.6236
11
67.8928
21
-33.6596
0
LINE
8
BLACK
6
CONTINUOUS
10
67.8928
20
-33.6596
11
67.6662
21
-33.7337
0
LINE
8
BLACK
6
CONTINUOUS
10
67.6662
20
-33.7337
11
67.4547
21
-33.8438
0
LINE
8
BLACK
6
CONTINUOUS
10
67.4547
20
-33.8438
11
67.264
21
-33.987
0
LINE
8
BLACK
6
CONTINUOUS
10
67.264
20
-33.987
11
67.0993
21
-34.1594
0
LINE
8
BLACK
6
CONTINUOUS
10
67.0993
20
-34.1594
11
66.9649
21
-34.3563
0
LINE
8
BLACK
6
CONTINUOUS
10
66.9649
20
-34.3563
11
66.8645
21
-34.5726
0
LINE
8
BLACK
6
CONTINUOUS
10
66.8645
20
-34.5726
11
66.8008
21
-34.8024
0
LINE
8
BLACK
6
CONTINUOUS
10
66.8008
20
-34.8024
11
66.7755
21
-35.0395
0
LINE
8
BLACK
6
CONTINUOUS
10
66.7755
20
-35.0395
11
66.7892
21
-35.2775
0
LINE
8
BLACK
6
CONTINUOUS
10
66.7892
20
-35.2775
11
66.8416
21
-35.5101
  0
ENDSEC
  0
EOF
