  0
SECTION
  2
HEADER
  9
$ANGBASE
  50
0.0
  9
$ANGDIR
  70
1
  9
$MEASUREMENT
  70
1
  0
ENDSEC
  0
SECTION
  2
TABLES
  0
TABLE
  2
LTYPE
  70
4
  0
LTYPE
  5
40F
  2
CONTINUOUS
  70
0
  3
Solid line
  72
65
  73
0
  40
0.0
  0
LTYPE
  5
410
  2
DASHDOT
 70
0
  3
Dash Dot ____ _ ____ _
 72
65
 73
4
 40
2.0
 49
1.25
 49
-0.25
 49
0.25
 49
-0.25
  0
LTYPE
  5
411
  2
DASHED
 70
0
  3
Dashed __ __ __ __ __
 72
65
 73
2
 40
0.75
 49
0.5
 49
-0.25
  0
LTYPE
  5
43B
  2
DOTTED
 70
0
  3
Dotted .  .  .  .
 72
65
 73
2
 40
0.2
 49
0.0
 49
-0.2
  0
ENDTAB
  0
TABLE
  2
STYLE
  70
4
  0
STYLE
  2
KICAD
  70
0
  40
0
  41
1
  42
1
  50
0
  71
0
  3
isocp.shx
  0
STYLE
  2
KICADB
  70
0
  40
0
  41
1
  42
1
  50
0
  71
0
  3
isocp.shx
  0
STYLE
  2
KICADI
  70
0
  40
0
  41
1
  42
1
  50
15
  71
0
  3
isocp.shx
  0
STYLE
  2
KICADBI
  70
0
  40
0
  41
1
  42
1
  50
15
  71
0
  3
isocp.shx
  0
ENDTAB
  0
TABLE
  2
LAYER
  70
1
  0
LAYER
  2
BLACK
  70
0
  62
7
  6
CONTINUOUS
  0
ENDTAB
  0
ENDSEC
  0
SECTION
  2
ENTITIES
0
LINE
8
BLACK
6
CONTINUOUS
10
102.944
20
-30.019
11
103.308
21
-30.1046
0
LINE
8
BLACK
6
CONTINUOUS
10
103.308
20
-30.1046
11
103.663
21
-30.2235
0
LINE
8
BLACK
6
CONTINUOUS
10
103.663
20
-30.2235
11
104.005
21
-30.3746
0
LINE
8
BLACK
6
CONTINUOUS
10
104.005
20
-30.3746
11
104.332
21
-30.5566
0
LINE
8
BLACK
6
CONTINUOUS
10
104.332
20
-30.5566
11
104.641
21
-30.768
0
LINE
8
BLACK
6
CONTINUOUS
10
104.641
20
-30.768
11
104.928
21
-31.007
0
LINE
8
BLACK
6
CONTINUOUS
10
104.928
20
-31.007
11
105.193
21
-31.2715
0
LINE
8
BLACK
6
CONTINUOUS
10
105.193
20
-31.2715
11
105.432
21
-31.5593
0
LINE
8
BLACK
6
CONTINUOUS
10
105.432
20
-31.5593
11
105.643
21
-31.8679
0
LINE
8
BLACK
6
CONTINUOUS
10
105.643
20
-31.8679
11
105.825
21
-32.1948
0
LINE
8
BLACK
6
CONTINUOUS
10
105.825
20
-32.1948
11
105.977
21
-32.537
0
LINE
8
BLACK
6
CONTINUOUS
10
105.977
20
-32.537
11
106.095
21
-32.8917
0
LINE
8
BLACK
6
CONTINUOUS
10
106.095
20
-32.8917
11
106.181
21
-33.2558
0
LINE
8
BLACK
6
CONTINUOUS
10
106.181
20
-33.2558
11
106.233
21
-33.6263
0
LINE
8
BLACK
6
CONTINUOUS
10
106.233
20
-33.6263
11
106.25
21
-34
0
LINE
8
BLACK
6
CONTINUOUS
10
106.25
20
-34
11
106.25
21
-124.245
0
LINE
8
BLACK
6
CONTINUOUS
10
106.25
20
-124.245
11
106.233
21
-124.619
0
LINE
8
BLACK
6
CONTINUOUS
10
106.233
20
-124.619
11
106.181
21
-124.989
0
LINE
8
BLACK
6
CONTINUOUS
10
106.181
20
-124.989
11
106.095
21
-125.353
0
LINE
8
BLACK
6
CONTINUOUS
10
106.095
20
-125.353
11
105.977
21
-125.708
0
LINE
8
BLACK
6
CONTINUOUS
10
105.977
20
-125.708
11
105.825
21
-126.05
0
LINE
8
BLACK
6
CONTINUOUS
10
105.825
20
-126.05
11
105.643
21
-126.377
0
LINE
8
BLACK
6
CONTINUOUS
10
105.643
20
-126.377
11
105.432
21
-126.686
0
LINE
8
BLACK
6
CONTINUOUS
10
105.432
20
-126.686
11
105.193
21
-126.973
0
LINE
8
BLACK
6
CONTINUOUS
10
105.193
20
-126.973
11
104.928
21
-127.238
0
LINE
8
BLACK
6
CONTINUOUS
10
104.928
20
-127.238
11
104.641
21
-127.477
0
LINE
8
BLACK
6
CONTINUOUS
10
104.641
20
-127.477
11
104.332
21
-127.688
0
LINE
8
BLACK
6
CONTINUOUS
10
104.332
20
-127.688
11
104.005
21
-127.87
0
LINE
8
BLACK
6
CONTINUOUS
10
104.005
20
-127.87
11
103.663
21
-128.022
0
LINE
8
BLACK
6
CONTINUOUS
10
103.663
20
-128.022
11
103.308
21
-128.14
0
LINE
8
BLACK
6
CONTINUOUS
10
103.308
20
-128.14
11
102.944
21
-128.226
0
LINE
8
BLACK
6
CONTINUOUS
10
102.944
20
-128.226
11
102.574
21
-128.278
0
LINE
8
BLACK
6
CONTINUOUS
10
102.574
20
-128.278
11
102.2
21
-128.295
0
LINE
8
BLACK
6
CONTINUOUS
10
102.2
20
-128.295
11
34
21
-128.295
0
LINE
8
BLACK
6
CONTINUOUS
10
34
20
-128.295
11
33.6263
21
-128.278
0
LINE
8
BLACK
6
CONTINUOUS
10
33.6263
20
-128.278
11
33.2558
21
-128.226
0
LINE
8
BLACK
6
CONTINUOUS
10
33.2558
20
-128.226
11
32.8917
21
-128.14
0
LINE
8
BLACK
6
CONTINUOUS
10
32.8917
20
-128.14
11
32.537
21
-128.022
0
LINE
8
BLACK
6
CONTINUOUS
10
32.537
20
-128.022
11
32.1948
21
-127.87
0
LINE
8
BLACK
6
CONTINUOUS
10
32.1948
20
-127.87
11
31.8679
21
-127.688
0
LINE
8
BLACK
6
CONTINUOUS
10
31.8679
20
-127.688
11
31.5593
21
-127.477
0
LINE
8
BLACK
6
CONTINUOUS
10
31.5593
20
-127.477
11
31.2715
21
-127.238
0
LINE
8
BLACK
6
CONTINUOUS
10
31.2715
20
-127.238
11
31.007
21
-126.973
0
LINE
8
BLACK
6
CONTINUOUS
10
31.007
20
-126.973
11
30.768
21
-126.686
0
LINE
8
BLACK
6
CONTINUOUS
10
30.768
20
-126.686
11
30.5566
21
-126.377
0
LINE
8
BLACK
6
CONTINUOUS
10
30.5566
20
-126.377
11
30.3746
21
-126.05
0
LINE
8
BLACK
6
CONTINUOUS
10
30.3746
20
-126.05
11
30.2235
21
-125.708
0
LINE
8
BLACK
6
CONTINUOUS
10
30.2235
20
-125.708
11
30.1046
21
-125.353
0
LINE
8
BLACK
6
CONTINUOUS
10
30.1046
20
-125.353
11
30.019
21
-124.989
0
LINE
8
BLACK
6
CONTINUOUS
10
30.019
20
-124.989
11
29.9673
21
-124.619
0
LINE
8
BLACK
6
CONTINUOUS
10
29.9673
20
-124.619
11
29.95
21
-124.245
0
LINE
8
BLACK
6
CONTINUOUS
10
29.95
20
-124.245
11
29.95
21
-34
0
LINE
8
BLACK
6
CONTINUOUS
10
29.95
20
-34
11
29.9673
21
-33.6263
0
LINE
8
BLACK
6
CONTINUOUS
10
29.9673
20
-33.6263
11
30.019
21
-33.2558
0
LINE
8
BLACK
6
CONTINUOUS
10
30.019
20
-33.2558
11
30.1046
21
-32.8917
0
LINE
8
BLACK
6
CONTINUOUS
10
30.1046
20
-32.8917
11
30.2235
21
-32.537
0
LINE
8
BLACK
6
CONTINUOUS
10
30.2235
20
-32.537
11
30.3746
21
-32.1948
0
LINE
8
BLACK
6
CONTINUOUS
10
30.3746
20
-32.1948
11
30.5566
21
-31.8679
0
LINE
8
BLACK
6
CONTINUOUS
10
30.5566
20
-31.8679
11
30.768
21
-31.5593
0
LINE
8
BLACK
6
CONTINUOUS
10
30.768
20
-31.5593
11
31.007
21
-31.2715
0
LINE
8
BLACK
6
CONTINUOUS
10
31.007
20
-31.2715
11
31.2715
21
-31.007
0
LINE
8
BLACK
6
CONTINUOUS
10
31.2715
20
-31.007
11
31.5593
21
-30.768
0
LINE
8
BLACK
6
CONTINUOUS
10
31.5593
20
-30.768
11
31.8679
21
-30.5566
0
LINE
8
BLACK
6
CONTINUOUS
10
31.8679
20
-30.5566
11
32.1948
21
-30.3746
0
LINE
8
BLACK
6
CONTINUOUS
10
32.1948
20
-30.3746
11
32.537
21
-30.2235
0
LINE
8
BLACK
6
CONTINUOUS
10
32.537
20
-30.2235
11
32.8917
21
-30.1046
0
LINE
8
BLACK
6
CONTINUOUS
10
32.8917
20
-30.1046
11
33.2558
21
-30.019
0
LINE
8
BLACK
6
CONTINUOUS
10
33.2558
20
-30.019
11
33.6263
21
-29.9673
0
LINE
8
BLACK
6
CONTINUOUS
10
33.6263
20
-29.9673
11
34
21
-29.95
0
LINE
8
BLACK
6
CONTINUOUS
10
34
20
-29.95
11
44.05
21
-29.95
0
LINE
8
BLACK
6
CONTINUOUS
10
44.05
20
-29.95
11
44.0854
21
-29.9646
0
LINE
8
BLACK
6
CONTINUOUS
10
44.0854
20
-29.9646
11
44.1
21
-30
0
LINE
8
BLACK
6
CONTINUOUS
10
44.1
20
-30
11
44.1
21
-35.945
0
LINE
8
BLACK
6
CONTINUOUS
10
44.1
20
-35.945
11
54
21
-35.945
0
LINE
8
BLACK
6
CONTINUOUS
10
54
20
-35.945
11
54
21
-30
0
LINE
8
BLACK
6
CONTINUOUS
10
54
20
-30
11
54.0146
21
-29.9646
0
LINE
8
BLACK
6
CONTINUOUS
10
54.0146
20
-29.9646
11
54.05
21
-29.95
0
LINE
8
BLACK
6
CONTINUOUS
10
54.05
20
-29.95
11
102.2
21
-29.95
0
LINE
8
BLACK
6
CONTINUOUS
10
102.2
20
-29.95
11
102.574
21
-29.9673
0
LINE
8
BLACK
6
CONTINUOUS
10
102.574
20
-29.9673
11
102.944
21
-30.019
0
LINE
8
BLACK
6
CONTINUOUS
10
54.1
20
-35.995
11
54.0854
21
-36.0304
0
LINE
8
BLACK
6
CONTINUOUS
10
54.0854
20
-36.0304
11
54.05
21
-36.045
0
LINE
8
BLACK
6
CONTINUOUS
10
54.05
20
-36.045
11
44.05
21
-36.045
0
LINE
8
BLACK
6
CONTINUOUS
10
44.05
20
-36.045
11
44.0146
21
-36.0304
0
LINE
8
BLACK
6
CONTINUOUS
10
44.0146
20
-36.0304
11
44
21
-35.995
0
LINE
8
BLACK
6
CONTINUOUS
10
44
20
-35.995
11
44
21
-30.05
0
LINE
8
BLACK
6
CONTINUOUS
10
44
20
-30.05
11
34
21
-30.05
0
LINE
8
BLACK
6
CONTINUOUS
10
34
20
-30.05
11
33.9908
21
-30.0462
0
LINE
8
BLACK
6
CONTINUOUS
10
33.9908
20
-30.0462
11
33.6352
21
-30.0626
0
LINE
8
BLACK
6
CONTINUOUS
10
33.6352
20
-30.0626
11
33.2734
21
-30.1131
0
LINE
8
BLACK
6
CONTINUOUS
10
33.2734
20
-30.1131
11
32.9179
21
-30.1967
0
LINE
8
BLACK
6
CONTINUOUS
10
32.9179
20
-30.1967
11
32.5716
21
-30.3128
0
LINE
8
BLACK
6
CONTINUOUS
10
32.5716
20
-30.3128
11
32.2375
21
-30.4603
0
LINE
8
BLACK
6
CONTINUOUS
10
32.2375
20
-30.4603
11
31.9184
21
-30.6381
0
LINE
8
BLACK
6
CONTINUOUS
10
31.9184
20
-30.6381
11
31.6171
21
-30.8445
0
LINE
8
BLACK
6
CONTINUOUS
10
31.6171
20
-30.8445
11
31.3361
21
-31.0778
0
LINE
8
BLACK
6
CONTINUOUS
10
31.3361
20
-31.0778
11
31.0778
21
-31.3361
0
LINE
8
BLACK
6
CONTINUOUS
10
31.0778
20
-31.3361
11
30.8445
21
-31.6171
0
LINE
8
BLACK
6
CONTINUOUS
10
30.8445
20
-31.6171
11
30.6381
21
-31.9184
0
LINE
8
BLACK
6
CONTINUOUS
10
30.6381
20
-31.9184
11
30.4603
21
-32.2375
0
LINE
8
BLACK
6
CONTINUOUS
10
30.4603
20
-32.2375
11
30.3128
21
-32.5716
0
LINE
8
BLACK
6
CONTINUOUS
10
30.3128
20
-32.5716
11
30.1967
21
-32.9179
0
LINE
8
BLACK
6
CONTINUOUS
10
30.1967
20
-32.9179
11
30.1131
21
-33.2734
0
LINE
8
BLACK
6
CONTINUOUS
10
30.1131
20
-33.2734
11
30.0626
21
-33.6352
0
LINE
8
BLACK
6
CONTINUOUS
10
30.0626
20
-33.6352
11
30.0462
21
-33.9908
0
LINE
8
BLACK
6
CONTINUOUS
10
30.0462
20
-33.9908
11
30.05
21
-34
0
LINE
8
BLACK
6
CONTINUOUS
10
30.05
20
-34
11
30.05
21
-124.245
0
LINE
8
BLACK
6
CONTINUOUS
10
30.05
20
-124.245
11
30.0462
21
-124.254
0
LINE
8
BLACK
6
CONTINUOUS
10
30.0462
20
-124.254
11
30.0626
21
-124.61
0
LINE
8
BLACK
6
CONTINUOUS
10
30.0626
20
-124.61
11
30.1131
21
-124.972
0
LINE
8
BLACK
6
CONTINUOUS
10
30.1131
20
-124.972
11
30.1967
21
-125.327
0
LINE
8
BLACK
6
CONTINUOUS
10
30.1967
20
-125.327
11
30.3128
21
-125.673
0
LINE
8
BLACK
6
CONTINUOUS
10
30.3128
20
-125.673
11
30.4603
21
-126.008
0
LINE
8
BLACK
6
CONTINUOUS
10
30.4603
20
-126.008
11
30.6381
21
-126.327
0
LINE
8
BLACK
6
CONTINUOUS
10
30.6381
20
-126.327
11
30.8445
21
-126.628
0
LINE
8
BLACK
6
CONTINUOUS
10
30.8445
20
-126.628
11
31.0778
21
-126.909
0
LINE
8
BLACK
6
CONTINUOUS
10
31.0778
20
-126.909
11
31.3361
21
-127.167
0
LINE
8
BLACK
6
CONTINUOUS
10
31.3361
20
-127.167
11
31.6171
21
-127.401
0
LINE
8
BLACK
6
CONTINUOUS
10
31.6171
20
-127.401
11
31.9184
21
-127.607
0
LINE
8
BLACK
6
CONTINUOUS
10
31.9184
20
-127.607
11
32.2375
21
-127.785
0
LINE
8
BLACK
6
CONTINUOUS
10
32.2375
20
-127.785
11
32.5716
21
-127.932
0
LINE
8
BLACK
6
CONTINUOUS
10
32.5716
20
-127.932
11
32.9179
21
-128.048
0
LINE
8
BLACK
6
CONTINUOUS
10
32.9179
20
-128.048
11
33.2734
21
-128.132
0
LINE
8
BLACK
6
CONTINUOUS
10
33.2734
20
-128.132
11
33.6352
21
-128.182
0
LINE
8
BLACK
6
CONTINUOUS
10
33.6352
20
-128.182
11
33.9908
21
-128.199
0
LINE
8
BLACK
6
CONTINUOUS
10
33.9908
20
-128.199
11
34
21
-128.195
0
LINE
8
BLACK
6
CONTINUOUS
10
34
20
-128.195
11
102.2
21
-128.195
0
LINE
8
BLACK
6
CONTINUOUS
10
102.2
20
-128.195
11
102.209
21
-128.199
0
LINE
8
BLACK
6
CONTINUOUS
10
102.209
20
-128.199
11
102.565
21
-128.182
0
LINE
8
BLACK
6
CONTINUOUS
10
102.565
20
-128.182
11
102.927
21
-128.132
0
LINE
8
BLACK
6
CONTINUOUS
10
102.927
20
-128.132
11
103.282
21
-128.048
0
LINE
8
BLACK
6
CONTINUOUS
10
103.282
20
-128.048
11
103.628
21
-127.932
0
LINE
8
BLACK
6
CONTINUOUS
10
103.628
20
-127.932
11
103.963
21
-127.785
0
LINE
8
BLACK
6
CONTINUOUS
10
103.963
20
-127.785
11
104.282
21
-127.607
0
LINE
8
BLACK
6
CONTINUOUS
10
104.282
20
-127.607
11
104.583
21
-127.401
0
LINE
8
BLACK
6
CONTINUOUS
10
104.583
20
-127.401
11
104.864
21
-127.167
0
LINE
8
BLACK
6
CONTINUOUS
10
104.864
20
-127.167
11
105.122
21
-126.909
0
LINE
8
BLACK
6
CONTINUOUS
10
105.122
20
-126.909
11
105.356
21
-126.628
0
LINE
8
BLACK
6
CONTINUOUS
10
105.356
20
-126.628
11
105.562
21
-126.327
0
LINE
8
BLACK
6
CONTINUOUS
10
105.562
20
-126.327
11
105.74
21
-126.008
0
LINE
8
BLACK
6
CONTINUOUS
10
105.74
20
-126.008
11
105.887
21
-125.673
0
LINE
8
BLACK
6
CONTINUOUS
10
105.887
20
-125.673
11
106.003
21
-125.327
0
LINE
8
BLACK
6
CONTINUOUS
10
106.003
20
-125.327
11
106.087
21
-124.972
0
LINE
8
BLACK
6
CONTINUOUS
10
106.087
20
-124.972
11
106.137
21
-124.61
0
LINE
8
BLACK
6
CONTINUOUS
10
106.137
20
-124.61
11
106.154
21
-124.254
0
LINE
8
BLACK
6
CONTINUOUS
10
106.154
20
-124.254
11
106.15
21
-124.245
0
LINE
8
BLACK
6
CONTINUOUS
10
106.15
20
-124.245
11
106.15
21
-34
0
LINE
8
BLACK
6
CONTINUOUS
10
106.15
20
-34
11
106.154
21
-33.9908
0
LINE
8
BLACK
6
CONTINUOUS
10
106.154
20
-33.9908
11
106.137
21
-33.6352
0
LINE
8
BLACK
6
CONTINUOUS
10
106.137
20
-33.6352
11
106.087
21
-33.2734
0
LINE
8
BLACK
6
CONTINUOUS
10
106.087
20
-33.2734
11
106.003
21
-32.9179
0
LINE
8
BLACK
6
CONTINUOUS
10
106.003
20
-32.9179
11
105.887
21
-32.5716
0
LINE
8
BLACK
6
CONTINUOUS
10
105.887
20
-32.5716
11
105.74
21
-32.2375
0
LINE
8
BLACK
6
CONTINUOUS
10
105.74
20
-32.2375
11
105.562
21
-31.9184
0
LINE
8
BLACK
6
CONTINUOUS
10
105.562
20
-31.9184
11
105.356
21
-31.6171
0
LINE
8
BLACK
6
CONTINUOUS
10
105.356
20
-31.6171
11
105.122
21
-31.3361
0
LINE
8
BLACK
6
CONTINUOUS
10
105.122
20
-31.3361
11
104.864
21
-31.0778
0
LINE
8
BLACK
6
CONTINUOUS
10
104.864
20
-31.0778
11
104.583
21
-30.8445
0
LINE
8
BLACK
6
CONTINUOUS
10
104.583
20
-30.8445
11
104.282
21
-30.6381
0
LINE
8
BLACK
6
CONTINUOUS
10
104.282
20
-30.6381
11
103.963
21
-30.4603
0
LINE
8
BLACK
6
CONTINUOUS
10
103.963
20
-30.4603
11
103.628
21
-30.3128
0
LINE
8
BLACK
6
CONTINUOUS
10
103.628
20
-30.3128
11
103.282
21
-30.1967
0
LINE
8
BLACK
6
CONTINUOUS
10
103.282
20
-30.1967
11
102.927
21
-30.1131
0
LINE
8
BLACK
6
CONTINUOUS
10
102.927
20
-30.1131
11
102.565
21
-30.0626
0
LINE
8
BLACK
6
CONTINUOUS
10
102.565
20
-30.0626
11
102.209
21
-30.0462
0
LINE
8
BLACK
6
CONTINUOUS
10
102.209
20
-30.0462
11
102.2
21
-30.05
0
LINE
8
BLACK
6
CONTINUOUS
10
102.2
20
-30.05
11
54.1
21
-30.05
0
LINE
8
BLACK
6
CONTINUOUS
10
54.1
20
-30.05
11
54.1
21
-35.995
0
LINE
8
BLACK
6
CONTINUOUS
10
99.2306
20
-39.2649
11
99.4845
21
-39.351
0
LINE
8
BLACK
6
CONTINUOUS
10
99.4845
20
-39.351
11
99.725
21
-39.4696
0
LINE
8
BLACK
6
CONTINUOUS
10
99.725
20
-39.4696
11
99.948
21
-39.6186
0
LINE
8
BLACK
6
CONTINUOUS
10
99.948
20
-39.6186
11
100.15
21
-39.7954
0
LINE
8
BLACK
6
CONTINUOUS
10
100.15
20
-39.7954
11
100.326
21
-39.997
0
LINE
8
BLACK
6
CONTINUOUS
10
100.326
20
-39.997
11
100.475
21
-40.22
0
LINE
8
BLACK
6
CONTINUOUS
10
100.475
20
-40.22
11
100.594
21
-40.4605
0
LINE
8
BLACK
6
CONTINUOUS
10
100.594
20
-40.4605
11
100.68
21
-40.7144
0
LINE
8
BLACK
6
CONTINUOUS
10
100.68
20
-40.7144
11
100.732
21
-40.9774
0
LINE
8
BLACK
6
CONTINUOUS
10
100.732
20
-40.9774
11
100.75
21
-41.245
0
LINE
8
BLACK
6
CONTINUOUS
10
100.75
20
-41.245
11
100.75
21
-48.395
0
LINE
8
BLACK
6
CONTINUOUS
10
100.75
20
-48.395
11
100.734
21
-48.5773
0
LINE
8
BLACK
6
CONTINUOUS
10
100.734
20
-48.5773
11
100.687
21
-48.7541
0
LINE
8
BLACK
6
CONTINUOUS
10
100.687
20
-48.7541
11
100.609
21
-48.92
0
LINE
8
BLACK
6
CONTINUOUS
10
100.609
20
-48.92
11
100.504
21
-49.0699
0
LINE
8
BLACK
6
CONTINUOUS
10
100.504
20
-49.0699
11
100.375
21
-49.1993
0
LINE
8
BLACK
6
CONTINUOUS
10
100.375
20
-49.1993
11
100.225
21
-49.3043
0
LINE
8
BLACK
6
CONTINUOUS
10
100.225
20
-49.3043
11
100.059
21
-49.3817
0
LINE
8
BLACK
6
CONTINUOUS
10
100.059
20
-49.3817
11
99.8823
21
-49.429
0
LINE
8
BLACK
6
CONTINUOUS
10
99.8823
20
-49.429
11
99.7
21
-49.445
0
LINE
8
BLACK
6
CONTINUOUS
10
99.7
20
-49.445
11
99
21
-49.445
0
LINE
8
BLACK
6
CONTINUOUS
10
99
20
-49.445
11
98.9928
21
-49.442
0
LINE
8
BLACK
6
CONTINUOUS
10
98.9928
20
-49.442
11
98.8344
21
-49.4559
0
LINE
8
BLACK
6
CONTINUOUS
10
98.8344
20
-49.4559
11
98.6738
21
-49.4989
0
LINE
8
BLACK
6
CONTINUOUS
10
98.6738
20
-49.4989
11
98.5232
21
-49.5691
0
LINE
8
BLACK
6
CONTINUOUS
10
98.5232
20
-49.5691
11
98.387
21
-49.6645
0
LINE
8
BLACK
6
CONTINUOUS
10
98.387
20
-49.6645
11
98.2695
21
-49.782
0
LINE
8
BLACK
6
CONTINUOUS
10
98.2695
20
-49.782
11
98.1741
21
-49.9182
0
LINE
8
BLACK
6
CONTINUOUS
10
98.1741
20
-49.9182
11
98.1039
21
-50.0688
0
LINE
8
BLACK
6
CONTINUOUS
10
98.1039
20
-50.0688
11
98.0609
21
-50.2294
0
LINE
8
BLACK
6
CONTINUOUS
10
98.0609
20
-50.2294
11
98.047
21
-50.3878
0
LINE
8
BLACK
6
CONTINUOUS
10
98.047
20
-50.3878
11
98.05
21
-50.395
0
LINE
8
BLACK
6
CONTINUOUS
10
98.05
20
-50.395
11
98.05
21
-54.145
0
LINE
8
BLACK
6
CONTINUOUS
10
98.05
20
-54.145
11
98.047
21
-54.1522
0
LINE
8
BLACK
6
CONTINUOUS
10
98.047
20
-54.1522
11
98.0609
21
-54.3106
0
LINE
8
BLACK
6
CONTINUOUS
10
98.0609
20
-54.3106
11
98.1039
21
-54.4712
0
LINE
8
BLACK
6
CONTINUOUS
10
98.1039
20
-54.4712
11
98.1741
21
-54.6218
0
LINE
8
BLACK
6
CONTINUOUS
10
98.1741
20
-54.6218
11
98.2695
21
-54.758
0
LINE
8
BLACK
6
CONTINUOUS
10
98.2695
20
-54.758
11
98.387
21
-54.8755
0
LINE
8
BLACK
6
CONTINUOUS
10
98.387
20
-54.8755
11
98.5232
21
-54.9709
0
LINE
8
BLACK
6
CONTINUOUS
10
98.5232
20
-54.9709
11
98.6738
21
-55.0411
0
LINE
8
BLACK
6
CONTINUOUS
10
98.6738
20
-55.0411
11
98.8344
21
-55.0841
0
LINE
8
BLACK
6
CONTINUOUS
10
98.8344
20
-55.0841
11
98.9928
21
-55.098
0
LINE
8
BLACK
6
CONTINUOUS
10
98.9928
20
-55.098
11
99
21
-55.095
0
LINE
8
BLACK
6
CONTINUOUS
10
99
20
-55.095
11
99.7
21
-55.095
0
LINE
8
BLACK
6
CONTINUOUS
10
99.7
20
-55.095
11
99.8823
21
-55.111
0
LINE
8
BLACK
6
CONTINUOUS
10
99.8823
20
-55.111
11
100.059
21
-55.1583
0
LINE
8
BLACK
6
CONTINUOUS
10
100.059
20
-55.1583
11
100.225
21
-55.2357
0
LINE
8
BLACK
6
CONTINUOUS
10
100.225
20
-55.2357
11
100.375
21
-55.3407
0
LINE
8
BLACK
6
CONTINUOUS
10
100.375
20
-55.3407
11
100.504
21
-55.4701
0
LINE
8
BLACK
6
CONTINUOUS
10
100.504
20
-55.4701
11
100.609
21
-55.62
0
LINE
8
BLACK
6
CONTINUOUS
10
100.609
20
-55.62
11
100.687
21
-55.7859
0
LINE
8
BLACK
6
CONTINUOUS
10
100.687
20
-55.7859
11
100.734
21
-55.9627
0
LINE
8
BLACK
6
CONTINUOUS
10
100.734
20
-55.9627
11
100.75
21
-56.145
0
LINE
8
BLACK
6
CONTINUOUS
10
100.75
20
-56.145
11
100.75
21
-111.245
0
LINE
8
BLACK
6
CONTINUOUS
10
100.75
20
-111.245
11
100.734
21
-111.427
0
LINE
8
BLACK
6
CONTINUOUS
10
100.734
20
-111.427
11
100.687
21
-111.604
0
LINE
8
BLACK
6
CONTINUOUS
10
100.687
20
-111.604
11
100.609
21
-111.77
0
LINE
8
BLACK
6
CONTINUOUS
10
100.609
20
-111.77
11
100.504
21
-111.92
0
LINE
8
BLACK
6
CONTINUOUS
10
100.504
20
-111.92
11
100.375
21
-112.049
0
LINE
8
BLACK
6
CONTINUOUS
10
100.375
20
-112.049
11
100.225
21
-112.154
0
LINE
8
BLACK
6
CONTINUOUS
10
100.225
20
-112.154
11
100.059
21
-112.232
0
LINE
8
BLACK
6
CONTINUOUS
10
100.059
20
-112.232
11
99.8823
21
-112.279
0
LINE
8
BLACK
6
CONTINUOUS
10
99.8823
20
-112.279
11
99.7
21
-112.295
0
LINE
8
BLACK
6
CONTINUOUS
10
99.7
20
-112.295
11
95
21
-112.295
0
LINE
8
BLACK
6
CONTINUOUS
10
95
20
-112.295
11
94.9913
21
-112.291
0
LINE
8
BLACK
6
CONTINUOUS
10
94.9913
20
-112.291
11
94.7449
21
-112.308
0
LINE
8
BLACK
6
CONTINUOUS
10
94.7449
20
-112.308
11
94.4942
21
-112.357
0
LINE
8
BLACK
6
CONTINUOUS
10
94.4942
20
-112.357
11
94.2522
21
-112.44
0
LINE
8
BLACK
6
CONTINUOUS
10
94.2522
20
-112.44
11
94.0229
21
-112.553
0
LINE
8
BLACK
6
CONTINUOUS
10
94.0229
20
-112.553
11
93.8104
21
-112.695
0
LINE
8
BLACK
6
CONTINUOUS
10
93.8104
20
-112.695
11
93.6182
21
-112.863
0
LINE
8
BLACK
6
CONTINUOUS
10
93.6182
20
-112.863
11
93.4496
21
-113.055
0
LINE
8
BLACK
6
CONTINUOUS
10
93.4496
20
-113.055
11
93.3076
21
-113.268
0
LINE
8
BLACK
6
CONTINUOUS
10
93.3076
20
-113.268
11
93.1946
21
-113.497
0
LINE
8
BLACK
6
CONTINUOUS
10
93.1946
20
-113.497
11
93.1124
21
-113.739
0
LINE
8
BLACK
6
CONTINUOUS
10
93.1124
20
-113.739
11
93.0625
21
-113.99
0
LINE
8
BLACK
6
CONTINUOUS
10
93.0625
20
-113.99
11
93.0464
21
-114.236
0
LINE
8
BLACK
6
CONTINUOUS
10
93.0464
20
-114.236
11
93.05
21
-114.245
0
LINE
8
BLACK
6
CONTINUOUS
10
93.05
20
-114.245
11
93.05
21
-121
0
LINE
8
BLACK
6
CONTINUOUS
10
93.05
20
-121
11
93.0325
21
-121.268
0
LINE
8
BLACK
6
CONTINUOUS
10
93.0325
20
-121.268
11
92.9801
21
-121.531
0
LINE
8
BLACK
6
CONTINUOUS
10
92.9801
20
-121.531
11
92.894
21
-121.785
0
LINE
8
BLACK
6
CONTINUOUS
10
92.894
20
-121.785
11
92.7754
21
-122.025
0
LINE
8
BLACK
6
CONTINUOUS
10
92.7754
20
-122.025
11
92.6264
21
-122.248
0
LINE
8
BLACK
6
CONTINUOUS
10
92.6264
20
-122.248
11
92.4496
21
-122.45
0
LINE
8
BLACK
6
CONTINUOUS
10
92.4496
20
-122.45
11
92.248
21
-122.626
0
LINE
8
BLACK
6
CONTINUOUS
10
92.248
20
-122.626
11
92.025
21
-122.775
0
LINE
8
BLACK
6
CONTINUOUS
10
92.025
20
-122.775
11
91.7845
21
-122.894
0
LINE
8
BLACK
6
CONTINUOUS
10
91.7845
20
-122.894
11
91.5306
21
-122.98
0
LINE
8
BLACK
6
CONTINUOUS
10
91.5306
20
-122.98
11
91.2676
21
-123.032
0
LINE
8
BLACK
6
CONTINUOUS
10
91.2676
20
-123.032
11
91
21
-123.05
0
LINE
8
BLACK
6
CONTINUOUS
10
91
20
-123.05
11
42.5
21
-123.05
0
LINE
8
BLACK
6
CONTINUOUS
10
42.5
20
-123.05
11
42.2324
21
-123.032
0
LINE
8
BLACK
6
CONTINUOUS
10
42.2324
20
-123.032
11
41.9694
21
-122.98
0
LINE
8
BLACK
6
CONTINUOUS
10
41.9694
20
-122.98
11
41.7155
21
-122.894
0
LINE
8
BLACK
6
CONTINUOUS
10
41.7155
20
-122.894
11
41.475
21
-122.775
0
LINE
8
BLACK
6
CONTINUOUS
10
41.475
20
-122.775
11
41.252
21
-122.626
0
LINE
8
BLACK
6
CONTINUOUS
10
41.252
20
-122.626
11
41.0504
21
-122.45
0
LINE
8
BLACK
6
CONTINUOUS
10
41.0504
20
-122.45
11
40.8736
21
-122.248
0
LINE
8
BLACK
6
CONTINUOUS
10
40.8736
20
-122.248
11
40.7246
21
-122.025
0
LINE
8
BLACK
6
CONTINUOUS
10
40.7246
20
-122.025
11
40.606
21
-121.785
0
LINE
8
BLACK
6
CONTINUOUS
10
40.606
20
-121.785
11
40.5199
21
-121.531
0
LINE
8
BLACK
6
CONTINUOUS
10
40.5199
20
-121.531
11
40.4675
21
-121.268
0
LINE
8
BLACK
6
CONTINUOUS
10
40.4675
20
-121.268
11
40.45
21
-121
0
LINE
8
BLACK
6
CONTINUOUS
10
40.45
20
-121
11
40.45
21
-108.745
0
LINE
8
BLACK
6
CONTINUOUS
10
40.45
20
-108.745
11
40.4536
21
-108.736
0
LINE
8
BLACK
6
CONTINUOUS
10
40.4536
20
-108.736
11
40.4375
21
-108.49
0
LINE
8
BLACK
6
CONTINUOUS
10
40.4375
20
-108.49
11
40.3876
21
-108.239
0
LINE
8
BLACK
6
CONTINUOUS
10
40.3876
20
-108.239
11
40.3054
21
-107.997
0
LINE
8
BLACK
6
CONTINUOUS
10
40.3054
20
-107.997
11
40.1924
21
-107.768
0
LINE
8
BLACK
6
CONTINUOUS
10
40.1924
20
-107.768
11
40.0504
21
-107.555
0
LINE
8
BLACK
6
CONTINUOUS
10
40.0504
20
-107.555
11
39.8818
21
-107.363
0
LINE
8
BLACK
6
CONTINUOUS
10
39.8818
20
-107.363
11
39.6896
21
-107.195
0
LINE
8
BLACK
6
CONTINUOUS
10
39.6896
20
-107.195
11
39.4771
21
-107.053
0
LINE
8
BLACK
6
CONTINUOUS
10
39.4771
20
-107.053
11
39.2478
21
-106.94
0
LINE
8
BLACK
6
CONTINUOUS
10
39.2478
20
-106.94
11
39.0058
21
-106.857
0
LINE
8
BLACK
6
CONTINUOUS
10
39.0058
20
-106.857
11
38.7551
21
-106.808
0
LINE
8
BLACK
6
CONTINUOUS
10
38.7551
20
-106.808
11
38.5087
21
-106.791
0
LINE
8
BLACK
6
CONTINUOUS
10
38.5087
20
-106.791
11
38.5
21
-106.795
0
LINE
8
BLACK
6
CONTINUOUS
10
38.5
20
-106.795
11
35
21
-106.795
0
LINE
8
BLACK
6
CONTINUOUS
10
35
20
-106.795
11
34.8177
21
-106.779
0
LINE
8
BLACK
6
CONTINUOUS
10
34.8177
20
-106.779
11
34.6409
21
-106.732
0
LINE
8
BLACK
6
CONTINUOUS
10
34.6409
20
-106.732
11
34.475
21
-106.654
0
LINE
8
BLACK
6
CONTINUOUS
10
34.475
20
-106.654
11
34.3251
21
-106.549
0
LINE
8
BLACK
6
CONTINUOUS
10
34.3251
20
-106.549
11
34.1957
21
-106.42
0
LINE
8
BLACK
6
CONTINUOUS
10
34.1957
20
-106.42
11
34.0907
21
-106.27
0
LINE
8
BLACK
6
CONTINUOUS
10
34.0907
20
-106.27
11
34.0133
21
-106.104
0
LINE
8
BLACK
6
CONTINUOUS
10
34.0133
20
-106.104
11
33.966
21
-105.927
0
LINE
8
BLACK
6
CONTINUOUS
10
33.966
20
-105.927
11
33.95
21
-105.745
0
LINE
8
BLACK
6
CONTINUOUS
10
33.95
20
-105.745
11
33.95
21
-56.145
0
LINE
8
BLACK
6
CONTINUOUS
10
33.95
20
-56.145
11
33.966
21
-55.9627
0
LINE
8
BLACK
6
CONTINUOUS
10
33.966
20
-55.9627
11
34.0133
21
-55.7859
0
LINE
8
BLACK
6
CONTINUOUS
10
34.0133
20
-55.7859
11
34.0907
21
-55.62
0
LINE
8
BLACK
6
CONTINUOUS
10
34.0907
20
-55.62
11
34.1957
21
-55.4701
0
LINE
8
BLACK
6
CONTINUOUS
10
34.1957
20
-55.4701
11
34.3251
21
-55.3407
0
LINE
8
BLACK
6
CONTINUOUS
10
34.3251
20
-55.3407
11
34.475
21
-55.2357
0
LINE
8
BLACK
6
CONTINUOUS
10
34.475
20
-55.2357
11
34.6409
21
-55.1583
0
LINE
8
BLACK
6
CONTINUOUS
10
34.6409
20
-55.1583
11
34.8177
21
-55.111
0
LINE
8
BLACK
6
CONTINUOUS
10
34.8177
20
-55.111
11
35
21
-55.095
0
LINE
8
BLACK
6
CONTINUOUS
10
35
20
-55.095
11
36.5
21
-55.095
0
LINE
8
BLACK
6
CONTINUOUS
10
36.5
20
-55.095
11
36.5072
21
-55.098
0
LINE
8
BLACK
6
CONTINUOUS
10
36.5072
20
-55.098
11
36.6656
21
-55.0841
0
LINE
8
BLACK
6
CONTINUOUS
10
36.6656
20
-55.0841
11
36.8262
21
-55.0411
0
LINE
8
BLACK
6
CONTINUOUS
10
36.8262
20
-55.0411
11
36.9768
21
-54.9709
0
LINE
8
BLACK
6
CONTINUOUS
10
36.9768
20
-54.9709
11
37.113
21
-54.8755
0
LINE
8
BLACK
6
CONTINUOUS
10
37.113
20
-54.8755
11
37.2305
21
-54.758
0
LINE
8
BLACK
6
CONTINUOUS
10
37.2305
20
-54.758
11
37.3259
21
-54.6218
0
LINE
8
BLACK
6
CONTINUOUS
10
37.3259
20
-54.6218
11
37.3961
21
-54.4712
0
LINE
8
BLACK
6
CONTINUOUS
10
37.3961
20
-54.4712
11
37.4391
21
-54.3106
0
LINE
8
BLACK
6
CONTINUOUS
10
37.4391
20
-54.3106
11
37.453
21
-54.1522
0
LINE
8
BLACK
6
CONTINUOUS
10
37.453
20
-54.1522
11
37.45
21
-54.145
0
LINE
8
BLACK
6
CONTINUOUS
10
37.45
20
-54.145
11
37.45
21
-49.945
0
LINE
8
BLACK
6
CONTINUOUS
10
37.45
20
-49.945
11
37.453
21
-49.9378
0
LINE
8
BLACK
6
CONTINUOUS
10
37.453
20
-49.9378
11
37.4391
21
-49.7794
0
LINE
8
BLACK
6
CONTINUOUS
10
37.4391
20
-49.7794
11
37.3961
21
-49.6188
0
LINE
8
BLACK
6
CONTINUOUS
10
37.3961
20
-49.6188
11
37.3259
21
-49.4682
0
LINE
8
BLACK
6
CONTINUOUS
10
37.3259
20
-49.4682
11
37.2305
21
-49.332
0
LINE
8
BLACK
6
CONTINUOUS
10
37.2305
20
-49.332
11
37.113
21
-49.2145
0
LINE
8
BLACK
6
CONTINUOUS
10
37.113
20
-49.2145
11
36.9768
21
-49.1191
0
LINE
8
BLACK
6
CONTINUOUS
10
36.9768
20
-49.1191
11
36.8262
21
-49.0489
0
LINE
8
BLACK
6
CONTINUOUS
10
36.8262
20
-49.0489
11
36.6656
21
-49.0059
0
LINE
8
BLACK
6
CONTINUOUS
10
36.6656
20
-49.0059
11
36.5072
21
-48.992
0
LINE
8
BLACK
6
CONTINUOUS
10
36.5072
20
-48.992
11
36.5
21
-48.995
0
LINE
8
BLACK
6
CONTINUOUS
10
36.5
20
-48.995
11
35
21
-48.995
0
LINE
8
BLACK
6
CONTINUOUS
10
35
20
-48.995
11
34.8177
21
-48.979
0
LINE
8
BLACK
6
CONTINUOUS
10
34.8177
20
-48.979
11
34.6409
21
-48.9317
0
LINE
8
BLACK
6
CONTINUOUS
10
34.6409
20
-48.9317
11
34.475
21
-48.8543
0
LINE
8
BLACK
6
CONTINUOUS
10
34.475
20
-48.8543
11
34.3251
21
-48.7493
0
LINE
8
BLACK
6
CONTINUOUS
10
34.3251
20
-48.7493
11
34.1957
21
-48.6199
0
LINE
8
BLACK
6
CONTINUOUS
10
34.1957
20
-48.6199
11
34.0907
21
-48.47
0
LINE
8
BLACK
6
CONTINUOUS
10
34.0907
20
-48.47
11
34.0133
21
-48.3041
0
LINE
8
BLACK
6
CONTINUOUS
10
34.0133
20
-48.3041
11
33.966
21
-48.1273
0
LINE
8
BLACK
6
CONTINUOUS
10
33.966
20
-48.1273
11
33.95
21
-47.945
0
LINE
8
BLACK
6
CONTINUOUS
10
33.95
20
-47.945
11
33.95
21
-41.245
0
LINE
8
BLACK
6
CONTINUOUS
10
33.95
20
-41.245
11
33.9675
21
-40.9774
0
LINE
8
BLACK
6
CONTINUOUS
10
33.9675
20
-40.9774
11
34.0199
21
-40.7144
0
LINE
8
BLACK
6
CONTINUOUS
10
34.0199
20
-40.7144
11
34.106
21
-40.4605
0
LINE
8
BLACK
6
CONTINUOUS
10
34.106
20
-40.4605
11
34.2246
21
-40.22
0
LINE
8
BLACK
6
CONTINUOUS
10
34.2246
20
-40.22
11
34.3736
21
-39.997
0
LINE
8
BLACK
6
CONTINUOUS
10
34.3736
20
-39.997
11
34.5504
21
-39.7954
0
LINE
8
BLACK
6
CONTINUOUS
10
34.5504
20
-39.7954
11
34.752
21
-39.6186
0
LINE
8
BLACK
6
CONTINUOUS
10
34.752
20
-39.6186
11
34.975
21
-39.4696
0
LINE
8
BLACK
6
CONTINUOUS
10
34.975
20
-39.4696
11
35.2155
21
-39.351
0
LINE
8
BLACK
6
CONTINUOUS
10
35.2155
20
-39.351
11
35.4694
21
-39.2649
0
LINE
8
BLACK
6
CONTINUOUS
10
35.4694
20
-39.2649
11
35.7324
21
-39.2125
0
LINE
8
BLACK
6
CONTINUOUS
10
35.7324
20
-39.2125
11
36
21
-39.195
0
LINE
8
BLACK
6
CONTINUOUS
10
36
20
-39.195
11
64.55
21
-39.195
0
LINE
8
BLACK
6
CONTINUOUS
10
64.55
20
-39.195
11
64.5572
21
-39.198
0
LINE
8
BLACK
6
CONTINUOUS
10
64.5572
20
-39.198
11
64.7156
21
-39.1841
0
LINE
8
BLACK
6
CONTINUOUS
10
64.7156
20
-39.1841
11
64.8762
21
-39.1411
0
LINE
8
BLACK
6
CONTINUOUS
10
64.8762
20
-39.1411
11
65.0268
21
-39.0709
0
LINE
8
BLACK
6
CONTINUOUS
10
65.0268
20
-39.0709
11
65.163
21
-38.9755
0
LINE
8
BLACK
6
CONTINUOUS
10
65.163
20
-38.9755
11
65.2805
21
-38.858
0
LINE
8
BLACK
6
CONTINUOUS
10
65.2805
20
-38.858
11
65.3759
21
-38.7218
0
LINE
8
BLACK
6
CONTINUOUS
10
65.3759
20
-38.7218
11
65.4461
21
-38.5712
0
LINE
8
BLACK
6
CONTINUOUS
10
65.4461
20
-38.5712
11
65.4891
21
-38.4106
0
LINE
8
BLACK
6
CONTINUOUS
10
65.4891
20
-38.4106
11
65.503
21
-38.2522
0
LINE
8
BLACK
6
CONTINUOUS
10
65.503
20
-38.2522
11
65.5
21
-38.245
0
LINE
8
BLACK
6
CONTINUOUS
10
65.5
20
-38.245
11
65.5
21
-37.445
0
LINE
8
BLACK
6
CONTINUOUS
10
65.5
20
-37.445
11
65.516
21
-37.2627
0
LINE
8
BLACK
6
CONTINUOUS
10
65.516
20
-37.2627
11
65.5633
21
-37.0859
0
LINE
8
BLACK
6
CONTINUOUS
10
65.5633
20
-37.0859
11
65.6407
21
-36.92
0
LINE
8
BLACK
6
CONTINUOUS
10
65.6407
20
-36.92
11
65.7457
21
-36.7701
0
LINE
8
BLACK
6
CONTINUOUS
10
65.7457
20
-36.7701
11
65.8751
21
-36.6407
0
LINE
8
BLACK
6
CONTINUOUS
10
65.8751
20
-36.6407
11
66.025
21
-36.5357
0
LINE
8
BLACK
6
CONTINUOUS
10
66.025
20
-36.5357
11
66.1909
21
-36.4583
0
LINE
8
BLACK
6
CONTINUOUS
10
66.1909
20
-36.4583
11
66.3677
21
-36.411
0
LINE
8
BLACK
6
CONTINUOUS
10
66.3677
20
-36.411
11
66.55
21
-36.395
0
LINE
8
BLACK
6
CONTINUOUS
10
66.55
20
-36.395
11
69.6
21
-36.395
0
LINE
8
BLACK
6
CONTINUOUS
10
69.6
20
-36.395
11
69.7823
21
-36.411
0
LINE
8
BLACK
6
CONTINUOUS
10
69.7823
20
-36.411
11
69.9591
21
-36.4583
0
LINE
8
BLACK
6
CONTINUOUS
10
69.9591
20
-36.4583
11
70.125
21
-36.5357
0
LINE
8
BLACK
6
CONTINUOUS
10
70.125
20
-36.5357
11
70.2749
21
-36.6407
0
LINE
8
BLACK
6
CONTINUOUS
10
70.2749
20
-36.6407
11
70.4043
21
-36.7701
0
LINE
8
BLACK
6
CONTINUOUS
10
70.4043
20
-36.7701
11
70.5093
21
-36.92
0
LINE
8
BLACK
6
CONTINUOUS
10
70.5093
20
-36.92
11
70.5867
21
-37.0859
0
LINE
8
BLACK
6
CONTINUOUS
10
70.5867
20
-37.0859
11
70.634
21
-37.2627
0
LINE
8
BLACK
6
CONTINUOUS
10
70.634
20
-37.2627
11
70.65
21
-37.445
0
LINE
8
BLACK
6
CONTINUOUS
10
70.65
20
-37.445
11
70.65
21
-38.245
0
LINE
8
BLACK
6
CONTINUOUS
10
70.65
20
-38.245
11
70.647
21
-38.2522
0
LINE
8
BLACK
6
CONTINUOUS
10
70.647
20
-38.2522
11
70.6609
21
-38.4106
0
LINE
8
BLACK
6
CONTINUOUS
10
70.6609
20
-38.4106
11
70.7039
21
-38.5712
0
LINE
8
BLACK
6
CONTINUOUS
10
70.7039
20
-38.5712
11
70.7741
21
-38.7218
0
LINE
8
BLACK
6
CONTINUOUS
10
70.7741
20
-38.7218
11
70.8695
21
-38.858
0
LINE
8
BLACK
6
CONTINUOUS
10
70.8695
20
-38.858
11
70.987
21
-38.9755
0
LINE
8
BLACK
6
CONTINUOUS
10
70.987
20
-38.9755
11
71.1232
21
-39.0709
0
LINE
8
BLACK
6
CONTINUOUS
10
71.1232
20
-39.0709
11
71.2738
21
-39.1411
0
LINE
8
BLACK
6
CONTINUOUS
10
71.2738
20
-39.1411
11
71.4344
21
-39.1841
0
LINE
8
BLACK
6
CONTINUOUS
10
71.4344
20
-39.1841
11
71.5928
21
-39.198
0
LINE
8
BLACK
6
CONTINUOUS
10
71.5928
20
-39.198
11
71.6
21
-39.195
0
LINE
8
BLACK
6
CONTINUOUS
10
71.6
20
-39.195
11
98.7
21
-39.195
0
LINE
8
BLACK
6
CONTINUOUS
10
98.7
20
-39.195
11
98.9676
21
-39.2125
0
LINE
8
BLACK
6
CONTINUOUS
10
98.9676
20
-39.2125
11
99.2306
21
-39.2649
0
LINE
8
BLACK
6
CONTINUOUS
10
66.5428
20
-36.492
11
66.3844
21
-36.5059
0
LINE
8
BLACK
6
CONTINUOUS
10
66.3844
20
-36.5059
11
66.2238
21
-36.5489
0
LINE
8
BLACK
6
CONTINUOUS
10
66.2238
20
-36.5489
11
66.0732
21
-36.6191
0
LINE
8
BLACK
6
CONTINUOUS
10
66.0732
20
-36.6191
11
65.937
21
-36.7145
0
LINE
8
BLACK
6
CONTINUOUS
10
65.937
20
-36.7145
11
65.8195
21
-36.832
0
LINE
8
BLACK
6
CONTINUOUS
10
65.8195
20
-36.832
11
65.7241
21
-36.9682
0
LINE
8
BLACK
6
CONTINUOUS
10
65.7241
20
-36.9682
11
65.6539
21
-37.1188
0
LINE
8
BLACK
6
CONTINUOUS
10
65.6539
20
-37.1188
11
65.6109
21
-37.2794
0
LINE
8
BLACK
6
CONTINUOUS
10
65.6109
20
-37.2794
11
65.597
21
-37.4378
0
LINE
8
BLACK
6
CONTINUOUS
10
65.597
20
-37.4378
11
65.6
21
-37.445
0
LINE
8
BLACK
6
CONTINUOUS
10
65.6
20
-37.445
11
65.6
21
-38.245
0
LINE
8
BLACK
6
CONTINUOUS
10
65.6
20
-38.245
11
65.584
21
-38.4273
0
LINE
8
BLACK
6
CONTINUOUS
10
65.584
20
-38.4273
11
65.5367
21
-38.6041
0
LINE
8
BLACK
6
CONTINUOUS
10
65.5367
20
-38.6041
11
65.4593
21
-38.77
0
LINE
8
BLACK
6
CONTINUOUS
10
65.4593
20
-38.77
11
65.3543
21
-38.9199
0
LINE
8
BLACK
6
CONTINUOUS
10
65.3543
20
-38.9199
11
65.2249
21
-39.0493
0
LINE
8
BLACK
6
CONTINUOUS
10
65.2249
20
-39.0493
11
65.075
21
-39.1543
0
LINE
8
BLACK
6
CONTINUOUS
10
65.075
20
-39.1543
11
64.9091
21
-39.2317
0
LINE
8
BLACK
6
CONTINUOUS
10
64.9091
20
-39.2317
11
64.7323
21
-39.279
0
LINE
8
BLACK
6
CONTINUOUS
10
64.7323
20
-39.279
11
64.55
21
-39.295
0
LINE
8
BLACK
6
CONTINUOUS
10
64.55
20
-39.295
11
36
21
-39.295
0
LINE
8
BLACK
6
CONTINUOUS
10
36
20
-39.295
11
35.9913
21
-39.2914
0
LINE
8
BLACK
6
CONTINUOUS
10
35.9913
20
-39.2914
11
35.7449
21
-39.3075
0
LINE
8
BLACK
6
CONTINUOUS
10
35.7449
20
-39.3075
11
35.4942
21
-39.3574
0
LINE
8
BLACK
6
CONTINUOUS
10
35.4942
20
-39.3574
11
35.2522
21
-39.4396
0
LINE
8
BLACK
6
CONTINUOUS
10
35.2522
20
-39.4396
11
35.0229
21
-39.5526
0
LINE
8
BLACK
6
CONTINUOUS
10
35.0229
20
-39.5526
11
34.8104
21
-39.6946
0
LINE
8
BLACK
6
CONTINUOUS
10
34.8104
20
-39.6946
11
34.6182
21
-39.8632
0
LINE
8
BLACK
6
CONTINUOUS
10
34.6182
20
-39.8632
11
34.4496
21
-40.0554
0
LINE
8
BLACK
6
CONTINUOUS
10
34.4496
20
-40.0554
11
34.3076
21
-40.2679
0
LINE
8
BLACK
6
CONTINUOUS
10
34.3076
20
-40.2679
11
34.1946
21
-40.4972
0
LINE
8
BLACK
6
CONTINUOUS
10
34.1946
20
-40.4972
11
34.1124
21
-40.7392
0
LINE
8
BLACK
6
CONTINUOUS
10
34.1124
20
-40.7392
11
34.0625
21
-40.9899
0
LINE
8
BLACK
6
CONTINUOUS
10
34.0625
20
-40.9899
11
34.0464
21
-41.2363
0
LINE
8
BLACK
6
CONTINUOUS
10
34.0464
20
-41.2363
11
34.05
21
-41.245
0
LINE
8
BLACK
6
CONTINUOUS
10
34.05
20
-41.245
11
34.05
21
-47.945
0
LINE
8
BLACK
6
CONTINUOUS
10
34.05
20
-47.945
11
34.047
21
-47.9522
0
LINE
8
BLACK
6
CONTINUOUS
10
34.047
20
-47.9522
11
34.0609
21
-48.1106
0
LINE
8
BLACK
6
CONTINUOUS
10
34.0609
20
-48.1106
11
34.1039
21
-48.2712
0
LINE
8
BLACK
6
CONTINUOUS
10
34.1039
20
-48.2712
11
34.1741
21
-48.4218
0
LINE
8
BLACK
6
CONTINUOUS
10
34.1741
20
-48.4218
11
34.2695
21
-48.558
0
LINE
8
BLACK
6
CONTINUOUS
10
34.2695
20
-48.558
11
34.387
21
-48.6755
0
LINE
8
BLACK
6
CONTINUOUS
10
34.387
20
-48.6755
11
34.5232
21
-48.7709
0
LINE
8
BLACK
6
CONTINUOUS
10
34.5232
20
-48.7709
11
34.6738
21
-48.8411
0
LINE
8
BLACK
6
CONTINUOUS
10
34.6738
20
-48.8411
11
34.8344
21
-48.8841
0
LINE
8
BLACK
6
CONTINUOUS
10
34.8344
20
-48.8841
11
34.9928
21
-48.898
0
LINE
8
BLACK
6
CONTINUOUS
10
34.9928
20
-48.898
11
35
21
-48.895
0
LINE
8
BLACK
6
CONTINUOUS
10
35
20
-48.895
11
36.5
21
-48.895
0
LINE
8
BLACK
6
CONTINUOUS
10
36.5
20
-48.895
11
36.6823
21
-48.911
0
LINE
8
BLACK
6
CONTINUOUS
10
36.6823
20
-48.911
11
36.8591
21
-48.9583
0
LINE
8
BLACK
6
CONTINUOUS
10
36.8591
20
-48.9583
11
37.025
21
-49.0357
0
LINE
8
BLACK
6
CONTINUOUS
10
37.025
20
-49.0357
11
37.1749
21
-49.1407
0
LINE
8
BLACK
6
CONTINUOUS
10
37.1749
20
-49.1407
11
37.3043
21
-49.2701
0
LINE
8
BLACK
6
CONTINUOUS
10
37.3043
20
-49.2701
11
37.4093
21
-49.42
0
LINE
8
BLACK
6
CONTINUOUS
10
37.4093
20
-49.42
11
37.4867
21
-49.5859
0
LINE
8
BLACK
6
CONTINUOUS
10
37.4867
20
-49.5859
11
37.534
21
-49.7627
0
LINE
8
BLACK
6
CONTINUOUS
10
37.534
20
-49.7627
11
37.55
21
-49.945
0
LINE
8
BLACK
6
CONTINUOUS
10
37.55
20
-49.945
11
37.55
21
-54.145
0
LINE
8
BLACK
6
CONTINUOUS
10
37.55
20
-54.145
11
37.534
21
-54.3273
0
LINE
8
BLACK
6
CONTINUOUS
10
37.534
20
-54.3273
11
37.4867
21
-54.5041
0
LINE
8
BLACK
6
CONTINUOUS
10
37.4867
20
-54.5041
11
37.4093
21
-54.67
0
LINE
8
BLACK
6
CONTINUOUS
10
37.4093
20
-54.67
11
37.3043
21
-54.8199
0
LINE
8
BLACK
6
CONTINUOUS
10
37.3043
20
-54.8199
11
37.1749
21
-54.9493
0
LINE
8
BLACK
6
CONTINUOUS
10
37.1749
20
-54.9493
11
37.025
21
-55.0543
0
LINE
8
BLACK
6
CONTINUOUS
10
37.025
20
-55.0543
11
36.8591
21
-55.1317
0
LINE
8
BLACK
6
CONTINUOUS
10
36.8591
20
-55.1317
11
36.6823
21
-55.179
0
LINE
8
BLACK
6
CONTINUOUS
10
36.6823
20
-55.179
11
36.5
21
-55.195
0
LINE
8
BLACK
6
CONTINUOUS
10
36.5
20
-55.195
11
35
21
-55.195
0
LINE
8
BLACK
6
CONTINUOUS
10
35
20
-55.195
11
34.9928
21
-55.192
0
LINE
8
BLACK
6
CONTINUOUS
10
34.9928
20
-55.192
11
34.8344
21
-55.2059
0
LINE
8
BLACK
6
CONTINUOUS
10
34.8344
20
-55.2059
11
34.6738
21
-55.2489
0
LINE
8
BLACK
6
CONTINUOUS
10
34.6738
20
-55.2489
11
34.5232
21
-55.3191
0
LINE
8
BLACK
6
CONTINUOUS
10
34.5232
20
-55.3191
11
34.387
21
-55.4145
0
LINE
8
BLACK
6
CONTINUOUS
10
34.387
20
-55.4145
11
34.2695
21
-55.532
0
LINE
8
BLACK
6
CONTINUOUS
10
34.2695
20
-55.532
11
34.1741
21
-55.6682
0
LINE
8
BLACK
6
CONTINUOUS
10
34.1741
20
-55.6682
11
34.1039
21
-55.8188
0
LINE
8
BLACK
6
CONTINUOUS
10
34.1039
20
-55.8188
11
34.0609
21
-55.9794
0
LINE
8
BLACK
6
CONTINUOUS
10
34.0609
20
-55.9794
11
34.047
21
-56.1378
0
LINE
8
BLACK
6
CONTINUOUS
10
34.047
20
-56.1378
11
34.05
21
-56.145
0
LINE
8
BLACK
6
CONTINUOUS
10
34.05
20
-56.145
11
34.05
21
-105.745
0
LINE
8
BLACK
6
CONTINUOUS
10
34.05
20
-105.745
11
34.047
21
-105.752
0
LINE
8
BLACK
6
CONTINUOUS
10
34.047
20
-105.752
11
34.0609
21
-105.911
0
LINE
8
BLACK
6
CONTINUOUS
10
34.0609
20
-105.911
11
34.1039
21
-106.071
0
LINE
8
BLACK
6
CONTINUOUS
10
34.1039
20
-106.071
11
34.1741
21
-106.222
0
LINE
8
BLACK
6
CONTINUOUS
10
34.1741
20
-106.222
11
34.2695
21
-106.358
0
LINE
8
BLACK
6
CONTINUOUS
10
34.2695
20
-106.358
11
34.387
21
-106.476
0
LINE
8
BLACK
6
CONTINUOUS
10
34.387
20
-106.476
11
34.5232
21
-106.571
0
LINE
8
BLACK
6
CONTINUOUS
10
34.5232
20
-106.571
11
34.6738
21
-106.641
0
LINE
8
BLACK
6
CONTINUOUS
10
34.6738
20
-106.641
11
34.8344
21
-106.684
0
LINE
8
BLACK
6
CONTINUOUS
10
34.8344
20
-106.684
11
34.9928
21
-106.698
0
LINE
8
BLACK
6
CONTINUOUS
10
34.9928
20
-106.698
11
35
21
-106.695
0
LINE
8
BLACK
6
CONTINUOUS
10
35
20
-106.695
11
38.5
21
-106.695
0
LINE
8
BLACK
6
CONTINUOUS
10
38.5
20
-106.695
11
38.7676
21
-106.713
0
LINE
8
BLACK
6
CONTINUOUS
10
38.7676
20
-106.713
11
39.0306
21
-106.765
0
LINE
8
BLACK
6
CONTINUOUS
10
39.0306
20
-106.765
11
39.2845
21
-106.851
0
LINE
8
BLACK
6
CONTINUOUS
10
39.2845
20
-106.851
11
39.525
21
-106.97
0
LINE
8
BLACK
6
CONTINUOUS
10
39.525
20
-106.97
11
39.748
21
-107.119
0
LINE
8
BLACK
6
CONTINUOUS
10
39.748
20
-107.119
11
39.9496
21
-107.295
0
LINE
8
BLACK
6
CONTINUOUS
10
39.9496
20
-107.295
11
40.1264
21
-107.497
0
LINE
8
BLACK
6
CONTINUOUS
10
40.1264
20
-107.497
11
40.2754
21
-107.72
0
LINE
8
BLACK
6
CONTINUOUS
10
40.2754
20
-107.72
11
40.394
21
-107.96
0
LINE
8
BLACK
6
CONTINUOUS
10
40.394
20
-107.96
11
40.4801
21
-108.214
0
LINE
8
BLACK
6
CONTINUOUS
10
40.4801
20
-108.214
11
40.5325
21
-108.477
0
LINE
8
BLACK
6
CONTINUOUS
10
40.5325
20
-108.477
11
40.55
21
-108.745
0
LINE
8
BLACK
6
CONTINUOUS
10
40.55
20
-108.745
11
40.55
21
-121
0
LINE
8
BLACK
6
CONTINUOUS
10
40.55
20
-121
11
40.5464
21
-121.009
0
LINE
8
BLACK
6
CONTINUOUS
10
40.5464
20
-121.009
11
40.5625
21
-121.255
0
LINE
8
BLACK
6
CONTINUOUS
10
40.5625
20
-121.255
11
40.6124
21
-121.506
0
LINE
8
BLACK
6
CONTINUOUS
10
40.6124
20
-121.506
11
40.6946
21
-121.748
0
LINE
8
BLACK
6
CONTINUOUS
10
40.6946
20
-121.748
11
40.8076
21
-121.977
0
LINE
8
BLACK
6
CONTINUOUS
10
40.8076
20
-121.977
11
40.9496
21
-122.19
0
LINE
8
BLACK
6
CONTINUOUS
10
40.9496
20
-122.19
11
41.1182
21
-122.382
0
LINE
8
BLACK
6
CONTINUOUS
10
41.1182
20
-122.382
11
41.3104
21
-122.55
0
LINE
8
BLACK
6
CONTINUOUS
10
41.3104
20
-122.55
11
41.5229
21
-122.692
0
LINE
8
BLACK
6
CONTINUOUS
10
41.5229
20
-122.692
11
41.7522
21
-122.805
0
LINE
8
BLACK
6
CONTINUOUS
10
41.7522
20
-122.805
11
41.9942
21
-122.888
0
LINE
8
BLACK
6
CONTINUOUS
10
41.9942
20
-122.888
11
42.2449
21
-122.937
0
LINE
8
BLACK
6
CONTINUOUS
10
42.2449
20
-122.937
11
42.4913
21
-122.954
0
LINE
8
BLACK
6
CONTINUOUS
10
42.4913
20
-122.954
11
42.5
21
-122.95
0
LINE
8
BLACK
6
CONTINUOUS
10
42.5
20
-122.95
11
91
21
-122.95
0
LINE
8
BLACK
6
CONTINUOUS
10
91
20
-122.95
11
91.0087
21
-122.954
0
LINE
8
BLACK
6
CONTINUOUS
10
91.0087
20
-122.954
11
91.2551
21
-122.937
0
LINE
8
BLACK
6
CONTINUOUS
10
91.2551
20
-122.937
11
91.5058
21
-122.888
0
LINE
8
BLACK
6
CONTINUOUS
10
91.5058
20
-122.888
11
91.7478
21
-122.805
0
LINE
8
BLACK
6
CONTINUOUS
10
91.7478
20
-122.805
11
91.9771
21
-122.692
0
LINE
8
BLACK
6
CONTINUOUS
10
91.9771
20
-122.692
11
92.1896
21
-122.55
0
LINE
8
BLACK
6
CONTINUOUS
10
92.1896
20
-122.55
11
92.3818
21
-122.382
0
LINE
8
BLACK
6
CONTINUOUS
10
92.3818
20
-122.382
11
92.5504
21
-122.19
0
LINE
8
BLACK
6
CONTINUOUS
10
92.5504
20
-122.19
11
92.6924
21
-121.977
0
LINE
8
BLACK
6
CONTINUOUS
10
92.6924
20
-121.977
11
92.8054
21
-121.748
0
LINE
8
BLACK
6
CONTINUOUS
10
92.8054
20
-121.748
11
92.8876
21
-121.506
0
LINE
8
BLACK
6
CONTINUOUS
10
92.8876
20
-121.506
11
92.9375
21
-121.255
0
LINE
8
BLACK
6
CONTINUOUS
10
92.9375
20
-121.255
11
92.9536
21
-121.009
0
LINE
8
BLACK
6
CONTINUOUS
10
92.9536
20
-121.009
11
92.95
21
-121
0
LINE
8
BLACK
6
CONTINUOUS
10
92.95
20
-121
11
92.95
21
-114.245
0
LINE
8
BLACK
6
CONTINUOUS
10
92.95
20
-114.245
11
92.9675
21
-113.977
0
LINE
8
BLACK
6
CONTINUOUS
10
92.9675
20
-113.977
11
93.0199
21
-113.714
0
LINE
8
BLACK
6
CONTINUOUS
10
93.0199
20
-113.714
11
93.106
21
-113.46
0
LINE
8
BLACK
6
CONTINUOUS
10
93.106
20
-113.46
11
93.2246
21
-113.22
0
LINE
8
BLACK
6
CONTINUOUS
10
93.2246
20
-113.22
11
93.3736
21
-112.997
0
LINE
8
BLACK
6
CONTINUOUS
10
93.3736
20
-112.997
11
93.5504
21
-112.795
0
LINE
8
BLACK
6
CONTINUOUS
10
93.5504
20
-112.795
11
93.752
21
-112.619
0
LINE
8
BLACK
6
CONTINUOUS
10
93.752
20
-112.619
11
93.975
21
-112.47
0
LINE
8
BLACK
6
CONTINUOUS
10
93.975
20
-112.47
11
94.2155
21
-112.351
0
LINE
8
BLACK
6
CONTINUOUS
10
94.2155
20
-112.351
11
94.4694
21
-112.265
0
LINE
8
BLACK
6
CONTINUOUS
10
94.4694
20
-112.265
11
94.7324
21
-112.213
0
LINE
8
BLACK
6
CONTINUOUS
10
94.7324
20
-112.213
11
95
21
-112.195
0
LINE
8
BLACK
6
CONTINUOUS
10
95
20
-112.195
11
99.7
21
-112.195
0
LINE
8
BLACK
6
CONTINUOUS
10
99.7
20
-112.195
11
99.7072
21
-112.198
0
LINE
8
BLACK
6
CONTINUOUS
10
99.7072
20
-112.198
11
99.8656
21
-112.184
0
LINE
8
BLACK
6
CONTINUOUS
10
99.8656
20
-112.184
11
100.026
21
-112.141
0
LINE
8
BLACK
6
CONTINUOUS
10
100.026
20
-112.141
11
100.177
21
-112.071
0
LINE
8
BLACK
6
CONTINUOUS
10
100.177
20
-112.071
11
100.313
21
-111.976
0
LINE
8
BLACK
6
CONTINUOUS
10
100.313
20
-111.976
11
100.431
21
-111.858
0
LINE
8
BLACK
6
CONTINUOUS
10
100.431
20
-111.858
11
100.526
21
-111.722
0
LINE
8
BLACK
6
CONTINUOUS
10
100.526
20
-111.722
11
100.596
21
-111.571
0
LINE
8
BLACK
6
CONTINUOUS
10
100.596
20
-111.571
11
100.639
21
-111.411
0
LINE
8
BLACK
6
CONTINUOUS
10
100.639
20
-111.411
11
100.653
21
-111.252
0
LINE
8
BLACK
6
CONTINUOUS
10
100.653
20
-111.252
11
100.65
21
-111.245
0
LINE
8
BLACK
6
CONTINUOUS
10
100.65
20
-111.245
11
100.65
21
-56.145
0
LINE
8
BLACK
6
CONTINUOUS
10
100.65
20
-56.145
11
100.653
21
-56.1378
0
LINE
8
BLACK
6
CONTINUOUS
10
100.653
20
-56.1378
11
100.639
21
-55.9794
0
LINE
8
BLACK
6
CONTINUOUS
10
100.639
20
-55.9794
11
100.596
21
-55.8188
0
LINE
8
BLACK
6
CONTINUOUS
10
100.596
20
-55.8188
11
100.526
21
-55.6682
0
LINE
8
BLACK
6
CONTINUOUS
10
100.526
20
-55.6682
11
100.431
21
-55.532
0
LINE
8
BLACK
6
CONTINUOUS
10
100.431
20
-55.532
11
100.313
21
-55.4145
0
LINE
8
BLACK
6
CONTINUOUS
10
100.313
20
-55.4145
11
100.177
21
-55.3191
0
LINE
8
BLACK
6
CONTINUOUS
10
100.177
20
-55.3191
11
100.026
21
-55.2489
0
LINE
8
BLACK
6
CONTINUOUS
10
100.026
20
-55.2489
11
99.8656
21
-55.2059
0
LINE
8
BLACK
6
CONTINUOUS
10
99.8656
20
-55.2059
11
99.7072
21
-55.192
0
LINE
8
BLACK
6
CONTINUOUS
10
99.7072
20
-55.192
11
99.7
21
-55.195
0
LINE
8
BLACK
6
CONTINUOUS
10
99.7
20
-55.195
11
99
21
-55.195
0
LINE
8
BLACK
6
CONTINUOUS
10
99
20
-55.195
11
98.8177
21
-55.179
0
LINE
8
BLACK
6
CONTINUOUS
10
98.8177
20
-55.179
11
98.6409
21
-55.1317
0
LINE
8
BLACK
6
CONTINUOUS
10
98.6409
20
-55.1317
11
98.475
21
-55.0543
0
LINE
8
BLACK
6
CONTINUOUS
10
98.475
20
-55.0543
11
98.3251
21
-54.9493
0
LINE
8
BLACK
6
CONTINUOUS
10
98.3251
20
-54.9493
11
98.1957
21
-54.8199
0
LINE
8
BLACK
6
CONTINUOUS
10
98.1957
20
-54.8199
11
98.0907
21
-54.67
0
LINE
8
BLACK
6
CONTINUOUS
10
98.0907
20
-54.67
11
98.0133
21
-54.5041
0
LINE
8
BLACK
6
CONTINUOUS
10
98.0133
20
-54.5041
11
97.966
21
-54.3273
0
LINE
8
BLACK
6
CONTINUOUS
10
97.966
20
-54.3273
11
97.95
21
-54.145
0
LINE
8
BLACK
6
CONTINUOUS
10
97.95
20
-54.145
11
97.95
21
-50.395
0
LINE
8
BLACK
6
CONTINUOUS
10
97.95
20
-50.395
11
97.966
21
-50.2127
0
LINE
8
BLACK
6
CONTINUOUS
10
97.966
20
-50.2127
11
98.0133
21
-50.0359
0
LINE
8
BLACK
6
CONTINUOUS
10
98.0133
20
-50.0359
11
98.0907
21
-49.87
0
LINE
8
BLACK
6
CONTINUOUS
10
98.0907
20
-49.87
11
98.1957
21
-49.7201
0
LINE
8
BLACK
6
CONTINUOUS
10
98.1957
20
-49.7201
11
98.3251
21
-49.5907
0
LINE
8
BLACK
6
CONTINUOUS
10
98.3251
20
-49.5907
11
98.475
21
-49.4857
0
LINE
8
BLACK
6
CONTINUOUS
10
98.475
20
-49.4857
11
98.6409
21
-49.4083
0
LINE
8
BLACK
6
CONTINUOUS
10
98.6409
20
-49.4083
11
98.8177
21
-49.361
0
LINE
8
BLACK
6
CONTINUOUS
10
98.8177
20
-49.361
11
99
21
-49.345
0
LINE
8
BLACK
6
CONTINUOUS
10
99
20
-49.345
11
99.7
21
-49.345
0
LINE
8
BLACK
6
CONTINUOUS
10
99.7
20
-49.345
11
99.7072
21
-49.348
0
LINE
8
BLACK
6
CONTINUOUS
10
99.7072
20
-49.348
11
99.8656
21
-49.3341
0
LINE
8
BLACK
6
CONTINUOUS
10
99.8656
20
-49.3341
11
100.026
21
-49.2911
0
LINE
8
BLACK
6
CONTINUOUS
10
100.026
20
-49.2911
11
100.177
21
-49.2209
0
LINE
8
BLACK
6
CONTINUOUS
10
100.177
20
-49.2209
11
100.313
21
-49.1255
0
LINE
8
BLACK
6
CONTINUOUS
10
100.313
20
-49.1255
11
100.431
21
-49.008
0
LINE
8
BLACK
6
CONTINUOUS
10
100.431
20
-49.008
11
100.526
21
-48.8718
0
LINE
8
BLACK
6
CONTINUOUS
10
100.526
20
-48.8718
11
100.596
21
-48.7212
0
LINE
8
BLACK
6
CONTINUOUS
10
100.596
20
-48.7212
11
100.639
21
-48.5606
0
LINE
8
BLACK
6
CONTINUOUS
10
100.639
20
-48.5606
11
100.653
21
-48.4022
0
LINE
8
BLACK
6
CONTINUOUS
10
100.653
20
-48.4022
11
100.65
21
-48.395
0
LINE
8
BLACK
6
CONTINUOUS
10
100.65
20
-48.395
11
100.65
21
-41.245
0
LINE
8
BLACK
6
CONTINUOUS
10
100.65
20
-41.245
11
100.654
21
-41.2363
0
LINE
8
BLACK
6
CONTINUOUS
10
100.654
20
-41.2363
11
100.637
21
-40.9899
0
LINE
8
BLACK
6
CONTINUOUS
10
100.637
20
-40.9899
11
100.588
21
-40.7392
0
LINE
8
BLACK
6
CONTINUOUS
10
100.588
20
-40.7392
11
100.505
21
-40.4972
0
LINE
8
BLACK
6
CONTINUOUS
10
100.505
20
-40.4972
11
100.392
21
-40.2679
0
LINE
8
BLACK
6
CONTINUOUS
10
100.392
20
-40.2679
11
100.25
21
-40.0554
0
LINE
8
BLACK
6
CONTINUOUS
10
100.25
20
-40.0554
11
100.082
21
-39.8632
0
LINE
8
BLACK
6
CONTINUOUS
10
100.082
20
-39.8632
11
99.8896
21
-39.6946
0
LINE
8
BLACK
6
CONTINUOUS
10
99.8896
20
-39.6946
11
99.6771
21
-39.5526
0
LINE
8
BLACK
6
CONTINUOUS
10
99.6771
20
-39.5526
11
99.4478
21
-39.4396
0
LINE
8
BLACK
6
CONTINUOUS
10
99.4478
20
-39.4396
11
99.2058
21
-39.3574
0
LINE
8
BLACK
6
CONTINUOUS
10
99.2058
20
-39.3574
11
98.9551
21
-39.3075
0
LINE
8
BLACK
6
CONTINUOUS
10
98.9551
20
-39.3075
11
98.7087
21
-39.2914
0
LINE
8
BLACK
6
CONTINUOUS
10
98.7087
20
-39.2914
11
98.7
21
-39.295
0
LINE
8
BLACK
6
CONTINUOUS
10
98.7
20
-39.295
11
71.6
21
-39.295
0
LINE
8
BLACK
6
CONTINUOUS
10
71.6
20
-39.295
11
71.4177
21
-39.279
0
LINE
8
BLACK
6
CONTINUOUS
10
71.4177
20
-39.279
11
71.2409
21
-39.2317
0
LINE
8
BLACK
6
CONTINUOUS
10
71.2409
20
-39.2317
11
71.075
21
-39.1543
0
LINE
8
BLACK
6
CONTINUOUS
10
71.075
20
-39.1543
11
70.9251
21
-39.0493
0
LINE
8
BLACK
6
CONTINUOUS
10
70.9251
20
-39.0493
11
70.7957
21
-38.9199
0
LINE
8
BLACK
6
CONTINUOUS
10
70.7957
20
-38.9199
11
70.6907
21
-38.77
0
LINE
8
BLACK
6
CONTINUOUS
10
70.6907
20
-38.77
11
70.6133
21
-38.6041
0
LINE
8
BLACK
6
CONTINUOUS
10
70.6133
20
-38.6041
11
70.566
21
-38.4273
0
LINE
8
BLACK
6
CONTINUOUS
10
70.566
20
-38.4273
11
70.55
21
-38.245
0
LINE
8
BLACK
6
CONTINUOUS
10
70.55
20
-38.245
11
70.55
21
-37.445
0
LINE
8
BLACK
6
CONTINUOUS
10
70.55
20
-37.445
11
70.553
21
-37.4378
0
LINE
8
BLACK
6
CONTINUOUS
10
70.553
20
-37.4378
11
70.5391
21
-37.2794
0
LINE
8
BLACK
6
CONTINUOUS
10
70.5391
20
-37.2794
11
70.4961
21
-37.1188
0
LINE
8
BLACK
6
CONTINUOUS
10
70.4961
20
-37.1188
11
70.4259
21
-36.9682
0
LINE
8
BLACK
6
CONTINUOUS
10
70.4259
20
-36.9682
11
70.3305
21
-36.832
0
LINE
8
BLACK
6
CONTINUOUS
10
70.3305
20
-36.832
11
70.213
21
-36.7145
0
LINE
8
BLACK
6
CONTINUOUS
10
70.213
20
-36.7145
11
70.0768
21
-36.6191
0
LINE
8
BLACK
6
CONTINUOUS
10
70.0768
20
-36.6191
11
69.9262
21
-36.5489
0
LINE
8
BLACK
6
CONTINUOUS
10
69.9262
20
-36.5489
11
69.7656
21
-36.5059
0
LINE
8
BLACK
6
CONTINUOUS
10
69.7656
20
-36.5059
11
69.6072
21
-36.492
0
LINE
8
BLACK
6
CONTINUOUS
10
69.6072
20
-36.492
11
69.6
21
-36.495
0
LINE
8
BLACK
6
CONTINUOUS
10
69.6
20
-36.495
11
66.55
21
-36.495
0
LINE
8
BLACK
6
CONTINUOUS
10
66.55
20
-36.495
11
66.5428
21
-36.492
0
LINE
8
BLACK
6
CONTINUOUS
10
102.186
20
-118.241
11
102.279
21
-118.016
0
LINE
8
BLACK
6
CONTINUOUS
10
102.279
20
-118.016
11
102.406
21
-117.809
0
LINE
8
BLACK
6
CONTINUOUS
10
102.406
20
-117.809
11
102.564
21
-117.624
0
LINE
8
BLACK
6
CONTINUOUS
10
102.564
20
-117.624
11
102.749
21
-117.466
0
LINE
8
BLACK
6
CONTINUOUS
10
102.749
20
-117.466
11
102.956
21
-117.339
0
LINE
8
BLACK
6
CONTINUOUS
10
102.956
20
-117.339
11
103.181
21
-117.246
0
LINE
8
BLACK
6
CONTINUOUS
10
103.181
20
-117.246
11
103.418
21
-117.189
0
LINE
8
BLACK
6
CONTINUOUS
10
103.418
20
-117.189
11
103.66
21
-117.17
0
LINE
8
BLACK
6
CONTINUOUS
10
103.66
20
-117.17
11
103.902
21
-117.189
0
LINE
8
BLACK
6
CONTINUOUS
10
103.902
20
-117.189
11
104.139
21
-117.246
0
LINE
8
BLACK
6
CONTINUOUS
10
104.139
20
-117.246
11
104.364
21
-117.339
0
LINE
8
BLACK
6
CONTINUOUS
10
104.364
20
-117.339
11
104.571
21
-117.466
0
LINE
8
BLACK
6
CONTINUOUS
10
104.571
20
-117.466
11
104.756
21
-117.624
0
LINE
8
BLACK
6
CONTINUOUS
10
104.756
20
-117.624
11
104.914
21
-117.809
0
LINE
8
BLACK
6
CONTINUOUS
10
104.914
20
-117.809
11
105.041
21
-118.016
0
LINE
8
BLACK
6
CONTINUOUS
10
105.041
20
-118.016
11
105.134
21
-118.241
0
LINE
8
BLACK
6
CONTINUOUS
10
105.134
20
-118.241
11
105.191
21
-118.478
0
LINE
8
BLACK
6
CONTINUOUS
10
105.191
20
-118.478
11
105.21
21
-118.72
0
LINE
8
BLACK
6
CONTINUOUS
10
105.21
20
-118.72
11
105.191
21
-118.962
0
LINE
8
BLACK
6
CONTINUOUS
10
105.191
20
-118.962
11
105.134
21
-119.199
0
LINE
8
BLACK
6
CONTINUOUS
10
105.134
20
-119.199
11
105.041
21
-119.424
0
LINE
8
BLACK
6
CONTINUOUS
10
105.041
20
-119.424
11
104.914
21
-119.631
0
LINE
8
BLACK
6
CONTINUOUS
10
104.914
20
-119.631
11
104.756
21
-119.816
0
LINE
8
BLACK
6
CONTINUOUS
10
104.756
20
-119.816
11
104.571
21
-119.974
0
LINE
8
BLACK
6
CONTINUOUS
10
104.571
20
-119.974
11
104.364
21
-120.101
0
LINE
8
BLACK
6
CONTINUOUS
10
104.364
20
-120.101
11
104.139
21
-120.194
0
LINE
8
BLACK
6
CONTINUOUS
10
104.139
20
-120.194
11
103.902
21
-120.251
0
LINE
8
BLACK
6
CONTINUOUS
10
103.902
20
-120.251
11
103.66
21
-120.27
0
LINE
8
BLACK
6
CONTINUOUS
10
103.66
20
-120.27
11
103.418
21
-120.251
0
LINE
8
BLACK
6
CONTINUOUS
10
103.418
20
-120.251
11
103.181
21
-120.194
0
LINE
8
BLACK
6
CONTINUOUS
10
103.181
20
-120.194
11
102.956
21
-120.101
0
LINE
8
BLACK
6
CONTINUOUS
10
102.956
20
-120.101
11
102.749
21
-119.974
0
LINE
8
BLACK
6
CONTINUOUS
10
102.749
20
-119.974
11
102.564
21
-119.816
0
LINE
8
BLACK
6
CONTINUOUS
10
102.564
20
-119.816
11
102.406
21
-119.631
0
LINE
8
BLACK
6
CONTINUOUS
10
102.406
20
-119.631
11
102.279
21
-119.424
0
LINE
8
BLACK
6
CONTINUOUS
10
102.279
20
-119.424
11
102.186
21
-119.199
0
LINE
8
BLACK
6
CONTINUOUS
10
102.186
20
-119.199
11
102.129
21
-118.962
0
LINE
8
BLACK
6
CONTINUOUS
10
102.129
20
-118.962
11
102.11
21
-118.72
0
LINE
8
BLACK
6
CONTINUOUS
10
102.11
20
-118.72
11
102.113
21
-118.684
0
LINE
8
BLACK
6
CONTINUOUS
10
102.113
20
-118.684
11
102.129
21
-118.478
0
LINE
8
BLACK
6
CONTINUOUS
10
102.129
20
-118.478
11
102.186
21
-118.241
0
LINE
8
BLACK
6
CONTINUOUS
10
102.272
20
-119.155
11
102.361
21
-119.376
0
LINE
8
BLACK
6
CONTINUOUS
10
102.361
20
-119.376
11
102.486
21
-119.579
0
LINE
8
BLACK
6
CONTINUOUS
10
102.486
20
-119.579
11
102.642
21
-119.76
0
LINE
8
BLACK
6
CONTINUOUS
10
102.642
20
-119.76
11
102.825
21
-119.912
0
LINE
8
BLACK
6
CONTINUOUS
10
102.825
20
-119.912
11
103.031
21
-120.032
0
LINE
8
BLACK
6
CONTINUOUS
10
103.031
20
-120.032
11
103.254
21
-120.117
0
LINE
8
BLACK
6
CONTINUOUS
10
103.254
20
-120.117
11
103.488
21
-120.165
0
LINE
8
BLACK
6
CONTINUOUS
10
103.488
20
-120.165
11
103.726
21
-120.173
0
LINE
8
BLACK
6
CONTINUOUS
10
103.726
20
-120.173
11
103.963
21
-120.143
0
LINE
8
BLACK
6
CONTINUOUS
10
103.963
20
-120.143
11
104.191
21
-120.075
0
LINE
8
BLACK
6
CONTINUOUS
10
104.191
20
-120.075
11
104.405
21
-119.97
0
LINE
8
BLACK
6
CONTINUOUS
10
104.405
20
-119.97
11
104.599
21
-119.831
0
LINE
8
BLACK
6
CONTINUOUS
10
104.599
20
-119.831
11
104.768
21
-119.663
0
LINE
8
BLACK
6
CONTINUOUS
10
104.768
20
-119.663
11
104.907
21
-119.469
0
LINE
8
BLACK
6
CONTINUOUS
10
104.907
20
-119.469
11
105.013
21
-119.256
0
LINE
8
BLACK
6
CONTINUOUS
10
105.013
20
-119.256
11
105.082
21
-119.027
0
LINE
8
BLACK
6
CONTINUOUS
10
105.082
20
-119.027
11
105.113
21
-118.791
0
LINE
8
BLACK
6
CONTINUOUS
10
105.113
20
-118.791
11
105.115
21
-118.72
0
LINE
8
BLACK
6
CONTINUOUS
10
105.115
20
-118.72
11
105.095
21
-118.482
0
LINE
8
BLACK
6
CONTINUOUS
10
105.095
20
-118.482
11
105.037
21
-118.251
0
LINE
8
BLACK
6
CONTINUOUS
10
105.037
20
-118.251
11
104.942
21
-118.032
0
LINE
8
BLACK
6
CONTINUOUS
10
104.942
20
-118.032
11
104.813
21
-117.832
0
LINE
8
BLACK
6
CONTINUOUS
10
104.813
20
-117.832
11
104.652
21
-117.656
0
LINE
8
BLACK
6
CONTINUOUS
10
104.652
20
-117.656
11
104.465
21
-117.508
0
LINE
8
BLACK
6
CONTINUOUS
10
104.465
20
-117.508
11
104.256
21
-117.393
0
LINE
8
BLACK
6
CONTINUOUS
10
104.256
20
-117.393
11
104.032
21
-117.313
0
LINE
8
BLACK
6
CONTINUOUS
10
104.032
20
-117.313
11
103.797
21
-117.271
0
LINE
8
BLACK
6
CONTINUOUS
10
103.797
20
-117.271
11
103.559
21
-117.269
0
LINE
8
BLACK
6
CONTINUOUS
10
103.559
20
-117.269
11
103.323
21
-117.305
0
LINE
8
BLACK
6
CONTINUOUS
10
103.323
20
-117.305
11
103.096
21
-117.379
0
LINE
8
BLACK
6
CONTINUOUS
10
103.096
20
-117.379
11
102.885
21
-117.489
0
LINE
8
BLACK
6
CONTINUOUS
10
102.885
20
-117.489
11
102.694
21
-117.632
0
LINE
8
BLACK
6
CONTINUOUS
10
102.694
20
-117.632
11
102.529
21
-117.804
0
LINE
8
BLACK
6
CONTINUOUS
10
102.529
20
-117.804
11
102.395
21
-118.001
0
LINE
8
BLACK
6
CONTINUOUS
10
102.395
20
-118.001
11
102.295
21
-118.218
0
LINE
8
BLACK
6
CONTINUOUS
10
102.295
20
-118.218
11
102.231
21
-118.447
0
LINE
8
BLACK
6
CONTINUOUS
10
102.231
20
-118.447
11
102.205
21
-118.684
0
LINE
8
BLACK
6
CONTINUOUS
10
102.205
20
-118.684
11
102.219
21
-118.922
0
LINE
8
BLACK
6
CONTINUOUS
10
102.219
20
-118.922
11
102.272
21
-119.155
0
LINE
8
BLACK
6
CONTINUOUS
10
31.0659
20
-118.241
11
31.1589
21
-118.016
0
LINE
8
BLACK
6
CONTINUOUS
10
31.1589
20
-118.016
11
31.286
21
-117.809
0
LINE
8
BLACK
6
CONTINUOUS
10
31.286
20
-117.809
11
31.444
21
-117.624
0
LINE
8
BLACK
6
CONTINUOUS
10
31.444
20
-117.624
11
31.6289
21
-117.466
0
LINE
8
BLACK
6
CONTINUOUS
10
31.6289
20
-117.466
11
31.8363
21
-117.339
0
LINE
8
BLACK
6
CONTINUOUS
10
31.8363
20
-117.339
11
32.061
21
-117.246
0
LINE
8
BLACK
6
CONTINUOUS
10
32.061
20
-117.246
11
32.2975
21
-117.189
0
LINE
8
BLACK
6
CONTINUOUS
10
32.2975
20
-117.189
11
32.54
21
-117.17
0
LINE
8
BLACK
6
CONTINUOUS
10
32.54
20
-117.17
11
32.7825
21
-117.189
0
LINE
8
BLACK
6
CONTINUOUS
10
32.7825
20
-117.189
11
33.019
21
-117.246
0
LINE
8
BLACK
6
CONTINUOUS
10
33.019
20
-117.246
11
33.2437
21
-117.339
0
LINE
8
BLACK
6
CONTINUOUS
10
33.2437
20
-117.339
11
33.4511
21
-117.466
0
LINE
8
BLACK
6
CONTINUOUS
10
33.4511
20
-117.466
11
33.636
21
-117.624
0
LINE
8
BLACK
6
CONTINUOUS
10
33.636
20
-117.624
11
33.794
21
-117.809
0
LINE
8
BLACK
6
CONTINUOUS
10
33.794
20
-117.809
11
33.9211
21
-118.016
0
LINE
8
BLACK
6
CONTINUOUS
10
33.9211
20
-118.016
11
34.0141
21
-118.241
0
LINE
8
BLACK
6
CONTINUOUS
10
34.0141
20
-118.241
11
34.0709
21
-118.478
0
LINE
8
BLACK
6
CONTINUOUS
10
34.0709
20
-118.478
11
34.09
21
-118.72
0
LINE
8
BLACK
6
CONTINUOUS
10
34.09
20
-118.72
11
34.0709
21
-118.962
0
LINE
8
BLACK
6
CONTINUOUS
10
34.0709
20
-118.962
11
34.0141
21
-119.199
0
LINE
8
BLACK
6
CONTINUOUS
10
34.0141
20
-119.199
11
33.9211
21
-119.424
0
LINE
8
BLACK
6
CONTINUOUS
10
33.9211
20
-119.424
11
33.794
21
-119.631
0
LINE
8
BLACK
6
CONTINUOUS
10
33.794
20
-119.631
11
33.636
21
-119.816
0
LINE
8
BLACK
6
CONTINUOUS
10
33.636
20
-119.816
11
33.4511
21
-119.974
0
LINE
8
BLACK
6
CONTINUOUS
10
33.4511
20
-119.974
11
33.2437
21
-120.101
0
LINE
8
BLACK
6
CONTINUOUS
10
33.2437
20
-120.101
11
33.019
21
-120.194
0
LINE
8
BLACK
6
CONTINUOUS
10
33.019
20
-120.194
11
32.7825
21
-120.251
0
LINE
8
BLACK
6
CONTINUOUS
10
32.7825
20
-120.251
11
32.54
21
-120.27
0
LINE
8
BLACK
6
CONTINUOUS
10
32.54
20
-120.27
11
32.2975
21
-120.251
0
LINE
8
BLACK
6
CONTINUOUS
10
32.2975
20
-120.251
11
32.061
21
-120.194
0
LINE
8
BLACK
6
CONTINUOUS
10
32.061
20
-120.194
11
31.8363
21
-120.101
0
LINE
8
BLACK
6
CONTINUOUS
10
31.8363
20
-120.101
11
31.6289
21
-119.974
0
LINE
8
BLACK
6
CONTINUOUS
10
31.6289
20
-119.974
11
31.444
21
-119.816
0
LINE
8
BLACK
6
CONTINUOUS
10
31.444
20
-119.816
11
31.286
21
-119.631
0
LINE
8
BLACK
6
CONTINUOUS
10
31.286
20
-119.631
11
31.1589
21
-119.424
0
LINE
8
BLACK
6
CONTINUOUS
10
31.1589
20
-119.424
11
31.0659
21
-119.199
0
LINE
8
BLACK
6
CONTINUOUS
10
31.0659
20
-119.199
11
31.0091
21
-118.962
0
LINE
8
BLACK
6
CONTINUOUS
10
31.0091
20
-118.962
11
30.99
21
-118.72
0
LINE
8
BLACK
6
CONTINUOUS
10
30.99
20
-118.72
11
30.9928
21
-118.684
0
LINE
8
BLACK
6
CONTINUOUS
10
30.9928
20
-118.684
11
31.0091
21
-118.478
0
LINE
8
BLACK
6
CONTINUOUS
10
31.0091
20
-118.478
11
31.0659
21
-118.241
0
LINE
8
BLACK
6
CONTINUOUS
10
31.1516
20
-119.155
11
31.2413
21
-119.376
0
LINE
8
BLACK
6
CONTINUOUS
10
31.2413
20
-119.376
11
31.3659
21
-119.579
0
LINE
8
BLACK
6
CONTINUOUS
10
31.3659
20
-119.579
11
31.522
21
-119.76
0
LINE
8
BLACK
6
CONTINUOUS
10
31.522
20
-119.76
11
31.7055
21
-119.912
0
LINE
8
BLACK
6
CONTINUOUS
10
31.7055
20
-119.912
11
31.9113
21
-120.032
0
LINE
8
BLACK
6
CONTINUOUS
10
31.9113
20
-120.032
11
32.1341
21
-120.117
0
LINE
8
BLACK
6
CONTINUOUS
10
32.1341
20
-120.117
11
32.3677
21
-120.165
0
LINE
8
BLACK
6
CONTINUOUS
10
32.3677
20
-120.165
11
32.606
21
-120.173
0
LINE
8
BLACK
6
CONTINUOUS
10
32.606
20
-120.173
11
32.8425
21
-120.143
0
LINE
8
BLACK
6
CONTINUOUS
10
32.8425
20
-120.143
11
33.0709
21
-120.075
0
LINE
8
BLACK
6
CONTINUOUS
10
33.0709
20
-120.075
11
33.285
21
-119.97
0
LINE
8
BLACK
6
CONTINUOUS
10
33.285
20
-119.97
11
33.4791
21
-119.831
0
LINE
8
BLACK
6
CONTINUOUS
10
33.4791
20
-119.831
11
33.648
21
-119.663
0
LINE
8
BLACK
6
CONTINUOUS
10
33.648
20
-119.663
11
33.7872
21
-119.469
0
LINE
8
BLACK
6
CONTINUOUS
10
33.7872
20
-119.469
11
33.8928
21
-119.256
0
LINE
8
BLACK
6
CONTINUOUS
10
33.8928
20
-119.256
11
33.9621
21
-119.027
0
LINE
8
BLACK
6
CONTINUOUS
10
33.9621
20
-119.027
11
33.9932
21
-118.791
0
LINE
8
BLACK
6
CONTINUOUS
10
33.9932
20
-118.791
11
33.995
21
-118.72
0
LINE
8
BLACK
6
CONTINUOUS
10
33.995
20
-118.72
11
33.9754
21
-118.482
0
LINE
8
BLACK
6
CONTINUOUS
10
33.9754
20
-118.482
11
33.9173
21
-118.251
0
LINE
8
BLACK
6
CONTINUOUS
10
33.9173
20
-118.251
11
33.8223
21
-118.032
0
LINE
8
BLACK
6
CONTINUOUS
10
33.8223
20
-118.032
11
33.6928
21
-117.832
0
LINE
8
BLACK
6
CONTINUOUS
10
33.6928
20
-117.832
11
33.5323
21
-117.656
0
LINE
8
BLACK
6
CONTINUOUS
10
33.5323
20
-117.656
11
33.3452
21
-117.508
0
LINE
8
BLACK
6
CONTINUOUS
10
33.3452
20
-117.508
11
33.1364
21
-117.393
0
LINE
8
BLACK
6
CONTINUOUS
10
33.1364
20
-117.393
11
32.9117
21
-117.313
0
LINE
8
BLACK
6
CONTINUOUS
10
32.9117
20
-117.313
11
32.6769
21
-117.271
0
LINE
8
BLACK
6
CONTINUOUS
10
32.6769
20
-117.271
11
32.4385
21
-117.269
0
LINE
8
BLACK
6
CONTINUOUS
10
32.4385
20
-117.269
11
32.2028
21
-117.305
0
LINE
8
BLACK
6
CONTINUOUS
10
32.2028
20
-117.305
11
31.9762
21
-117.379
0
LINE
8
BLACK
6
CONTINUOUS
10
31.9762
20
-117.379
11
31.7647
21
-117.489
0
LINE
8
BLACK
6
CONTINUOUS
10
31.7647
20
-117.489
11
31.574
21
-117.632
0
LINE
8
BLACK
6
CONTINUOUS
10
31.574
20
-117.632
11
31.4093
21
-117.804
0
LINE
8
BLACK
6
CONTINUOUS
10
31.4093
20
-117.804
11
31.2749
21
-118.001
0
LINE
8
BLACK
6
CONTINUOUS
10
31.2749
20
-118.001
11
31.1745
21
-118.218
0
LINE
8
BLACK
6
CONTINUOUS
10
31.1745
20
-118.218
11
31.1108
21
-118.447
0
LINE
8
BLACK
6
CONTINUOUS
10
31.1108
20
-118.447
11
31.0855
21
-118.684
0
LINE
8
BLACK
6
CONTINUOUS
10
31.0855
20
-118.684
11
31.0992
21
-118.922
0
LINE
8
BLACK
6
CONTINUOUS
10
31.0992
20
-118.922
11
31.1516
21
-119.155
0
LINE
8
BLACK
6
CONTINUOUS
10
31.0659
20
-51.566
11
31.1589
21
-51.3413
0
LINE
8
BLACK
6
CONTINUOUS
10
31.1589
20
-51.3413
11
31.286
21
-51.1339
0
LINE
8
BLACK
6
CONTINUOUS
10
31.286
20
-51.1339
11
31.444
21
-50.949
0
LINE
8
BLACK
6
CONTINUOUS
10
31.444
20
-50.949
11
31.6289
21
-50.791
0
LINE
8
BLACK
6
CONTINUOUS
10
31.6289
20
-50.791
11
31.8363
21
-50.6639
0
LINE
8
BLACK
6
CONTINUOUS
10
31.8363
20
-50.6639
11
32.061
21
-50.5709
0
LINE
8
BLACK
6
CONTINUOUS
10
32.061
20
-50.5709
11
32.2975
21
-50.5141
0
LINE
8
BLACK
6
CONTINUOUS
10
32.2975
20
-50.5141
11
32.54
21
-50.495
0
LINE
8
BLACK
6
CONTINUOUS
10
32.54
20
-50.495
11
32.7825
21
-50.5141
0
LINE
8
BLACK
6
CONTINUOUS
10
32.7825
20
-50.5141
11
33.019
21
-50.5709
0
LINE
8
BLACK
6
CONTINUOUS
10
33.019
20
-50.5709
11
33.2437
21
-50.6639
0
LINE
8
BLACK
6
CONTINUOUS
10
33.2437
20
-50.6639
11
33.4511
21
-50.791
0
LINE
8
BLACK
6
CONTINUOUS
10
33.4511
20
-50.791
11
33.636
21
-50.949
0
LINE
8
BLACK
6
CONTINUOUS
10
33.636
20
-50.949
11
33.794
21
-51.1339
0
LINE
8
BLACK
6
CONTINUOUS
10
33.794
20
-51.1339
11
33.9211
21
-51.3413
0
LINE
8
BLACK
6
CONTINUOUS
10
33.9211
20
-51.3413
11
34.0141
21
-51.566
0
LINE
8
BLACK
6
CONTINUOUS
10
34.0141
20
-51.566
11
34.0709
21
-51.8025
0
LINE
8
BLACK
6
CONTINUOUS
10
34.0709
20
-51.8025
11
34.09
21
-52.045
0
LINE
8
BLACK
6
CONTINUOUS
10
34.09
20
-52.045
11
34.0709
21
-52.2875
0
LINE
8
BLACK
6
CONTINUOUS
10
34.0709
20
-52.2875
11
34.0141
21
-52.524
0
LINE
8
BLACK
6
CONTINUOUS
10
34.0141
20
-52.524
11
33.9211
21
-52.7487
0
LINE
8
BLACK
6
CONTINUOUS
10
33.9211
20
-52.7487
11
33.794
21
-52.9561
0
LINE
8
BLACK
6
CONTINUOUS
10
33.794
20
-52.9561
11
33.636
21
-53.141
0
LINE
8
BLACK
6
CONTINUOUS
10
33.636
20
-53.141
11
33.4511
21
-53.299
0
LINE
8
BLACK
6
CONTINUOUS
10
33.4511
20
-53.299
11
33.2437
21
-53.4261
0
LINE
8
BLACK
6
CONTINUOUS
10
33.2437
20
-53.4261
11
33.019
21
-53.5191
0
LINE
8
BLACK
6
CONTINUOUS
10
33.019
20
-53.5191
11
32.7825
21
-53.5759
0
LINE
8
BLACK
6
CONTINUOUS
10
32.7825
20
-53.5759
11
32.54
21
-53.595
0
LINE
8
BLACK
6
CONTINUOUS
10
32.54
20
-53.595
11
32.2975
21
-53.5759
0
LINE
8
BLACK
6
CONTINUOUS
10
32.2975
20
-53.5759
11
32.061
21
-53.5191
0
LINE
8
BLACK
6
CONTINUOUS
10
32.061
20
-53.5191
11
31.8363
21
-53.4261
0
LINE
8
BLACK
6
CONTINUOUS
10
31.8363
20
-53.4261
11
31.6289
21
-53.299
0
LINE
8
BLACK
6
CONTINUOUS
10
31.6289
20
-53.299
11
31.444
21
-53.141
0
LINE
8
BLACK
6
CONTINUOUS
10
31.444
20
-53.141
11
31.286
21
-52.9561
0
LINE
8
BLACK
6
CONTINUOUS
10
31.286
20
-52.9561
11
31.1589
21
-52.7487
0
LINE
8
BLACK
6
CONTINUOUS
10
31.1589
20
-52.7487
11
31.0659
21
-52.524
0
LINE
8
BLACK
6
CONTINUOUS
10
31.0659
20
-52.524
11
31.0091
21
-52.2875
0
LINE
8
BLACK
6
CONTINUOUS
10
31.0091
20
-52.2875
11
30.99
21
-52.045
0
LINE
8
BLACK
6
CONTINUOUS
10
30.99
20
-52.045
11
30.9928
21
-52.0095
0
LINE
8
BLACK
6
CONTINUOUS
10
30.9928
20
-52.0095
11
31.0091
21
-51.8025
0
LINE
8
BLACK
6
CONTINUOUS
10
31.0091
20
-51.8025
11
31.0659
21
-51.566
0
LINE
8
BLACK
6
CONTINUOUS
10
31.1516
20
-52.4801
11
31.2413
21
-52.701
0
LINE
8
BLACK
6
CONTINUOUS
10
31.2413
20
-52.701
11
31.3659
21
-52.9043
0
LINE
8
BLACK
6
CONTINUOUS
10
31.3659
20
-52.9043
11
31.522
21
-53.0845
0
LINE
8
BLACK
6
CONTINUOUS
10
31.522
20
-53.0845
11
31.7055
21
-53.2368
0
LINE
8
BLACK
6
CONTINUOUS
10
31.7055
20
-53.2368
11
31.9113
21
-53.3571
0
LINE
8
BLACK
6
CONTINUOUS
10
31.9113
20
-53.3571
11
32.1341
21
-53.4422
0
LINE
8
BLACK
6
CONTINUOUS
10
32.1341
20
-53.4422
11
32.3677
21
-53.4897
0
LINE
8
BLACK
6
CONTINUOUS
10
32.3677
20
-53.4897
11
32.606
21
-53.4985
0
LINE
8
BLACK
6
CONTINUOUS
10
32.606
20
-53.4985
11
32.8425
21
-53.4682
0
LINE
8
BLACK
6
CONTINUOUS
10
32.8425
20
-53.4682
11
33.0709
21
-53.3997
0
LINE
8
BLACK
6
CONTINUOUS
10
33.0709
20
-53.3997
11
33.285
21
-53.2948
0
LINE
8
BLACK
6
CONTINUOUS
10
33.285
20
-53.2948
11
33.4791
21
-53.1563
0
LINE
8
BLACK
6
CONTINUOUS
10
33.4791
20
-53.1563
11
33.648
21
-52.988
0
LINE
8
BLACK
6
CONTINUOUS
10
33.648
20
-52.988
11
33.7872
21
-52.7944
0
LINE
8
BLACK
6
CONTINUOUS
10
33.7872
20
-52.7944
11
33.8928
21
-52.5806
0
LINE
8
BLACK
6
CONTINUOUS
10
33.8928
20
-52.5806
11
33.9621
21
-52.3525
0
LINE
8
BLACK
6
CONTINUOUS
10
33.9621
20
-52.3525
11
33.9932
21
-52.1161
0
LINE
8
BLACK
6
CONTINUOUS
10
33.9932
20
-52.1161
11
33.995
21
-52.045
0
LINE
8
BLACK
6
CONTINUOUS
10
33.995
20
-52.045
11
33.9754
21
-51.8074
0
LINE
8
BLACK
6
CONTINUOUS
10
33.9754
20
-51.8074
11
33.9173
21
-51.5761
0
LINE
8
BLACK
6
CONTINUOUS
10
33.9173
20
-51.5761
11
33.8223
21
-51.3575
0
LINE
8
BLACK
6
CONTINUOUS
10
33.8223
20
-51.3575
11
33.6928
21
-51.1573
0
LINE
8
BLACK
6
CONTINUOUS
10
33.6928
20
-51.1573
11
33.5323
21
-50.9809
0
LINE
8
BLACK
6
CONTINUOUS
10
33.5323
20
-50.9809
11
33.3452
21
-50.8331
0
LINE
8
BLACK
6
CONTINUOUS
10
33.3452
20
-50.8331
11
33.1364
21
-50.7179
0
LINE
8
BLACK
6
CONTINUOUS
10
33.1364
20
-50.7179
11
32.9117
21
-50.6383
0
LINE
8
BLACK
6
CONTINUOUS
10
32.9117
20
-50.6383
11
32.6769
21
-50.5965
0
LINE
8
BLACK
6
CONTINUOUS
10
32.6769
20
-50.5965
11
32.4385
21
-50.5936
0
LINE
8
BLACK
6
CONTINUOUS
10
32.4385
20
-50.5936
11
32.2028
21
-50.6296
0
LINE
8
BLACK
6
CONTINUOUS
10
32.2028
20
-50.6296
11
31.9762
21
-50.7037
0
LINE
8
BLACK
6
CONTINUOUS
10
31.9762
20
-50.7037
11
31.7647
21
-50.8138
0
LINE
8
BLACK
6
CONTINUOUS
10
31.7647
20
-50.8138
11
31.574
21
-50.957
0
LINE
8
BLACK
6
CONTINUOUS
10
31.574
20
-50.957
11
31.4093
21
-51.1294
0
LINE
8
BLACK
6
CONTINUOUS
10
31.4093
20
-51.1294
11
31.2749
21
-51.3263
0
LINE
8
BLACK
6
CONTINUOUS
10
31.2749
20
-51.3263
11
31.1745
21
-51.5426
0
LINE
8
BLACK
6
CONTINUOUS
10
31.1745
20
-51.5426
11
31.1108
21
-51.7724
0
LINE
8
BLACK
6
CONTINUOUS
10
31.1108
20
-51.7724
11
31.0855
21
-52.0095
0
LINE
8
BLACK
6
CONTINUOUS
10
31.0855
20
-52.0095
11
31.0992
21
-52.2475
0
LINE
8
BLACK
6
CONTINUOUS
10
31.0992
20
-52.2475
11
31.1516
21
-52.4801
0
LINE
8
BLACK
6
CONTINUOUS
10
102.186
20
-51.566
11
102.279
21
-51.3413
0
LINE
8
BLACK
6
CONTINUOUS
10
102.279
20
-51.3413
11
102.406
21
-51.1339
0
LINE
8
BLACK
6
CONTINUOUS
10
102.406
20
-51.1339
11
102.564
21
-50.949
0
LINE
8
BLACK
6
CONTINUOUS
10
102.564
20
-50.949
11
102.749
21
-50.791
0
LINE
8
BLACK
6
CONTINUOUS
10
102.749
20
-50.791
11
102.956
21
-50.6639
0
LINE
8
BLACK
6
CONTINUOUS
10
102.956
20
-50.6639
11
103.181
21
-50.5709
0
LINE
8
BLACK
6
CONTINUOUS
10
103.181
20
-50.5709
11
103.418
21
-50.5141
0
LINE
8
BLACK
6
CONTINUOUS
10
103.418
20
-50.5141
11
103.66
21
-50.495
0
LINE
8
BLACK
6
CONTINUOUS
10
103.66
20
-50.495
11
103.902
21
-50.5141
0
LINE
8
BLACK
6
CONTINUOUS
10
103.902
20
-50.5141
11
104.139
21
-50.5709
0
LINE
8
BLACK
6
CONTINUOUS
10
104.139
20
-50.5709
11
104.364
21
-50.6639
0
LINE
8
BLACK
6
CONTINUOUS
10
104.364
20
-50.6639
11
104.571
21
-50.791
0
LINE
8
BLACK
6
CONTINUOUS
10
104.571
20
-50.791
11
104.756
21
-50.949
0
LINE
8
BLACK
6
CONTINUOUS
10
104.756
20
-50.949
11
104.914
21
-51.1339
0
LINE
8
BLACK
6
CONTINUOUS
10
104.914
20
-51.1339
11
105.041
21
-51.3413
0
LINE
8
BLACK
6
CONTINUOUS
10
105.041
20
-51.3413
11
105.134
21
-51.566
0
LINE
8
BLACK
6
CONTINUOUS
10
105.134
20
-51.566
11
105.191
21
-51.8025
0
LINE
8
BLACK
6
CONTINUOUS
10
105.191
20
-51.8025
11
105.21
21
-52.045
0
LINE
8
BLACK
6
CONTINUOUS
10
105.21
20
-52.045
11
105.191
21
-52.2875
0
LINE
8
BLACK
6
CONTINUOUS
10
105.191
20
-52.2875
11
105.134
21
-52.524
0
LINE
8
BLACK
6
CONTINUOUS
10
105.134
20
-52.524
11
105.041
21
-52.7487
0
LINE
8
BLACK
6
CONTINUOUS
10
105.041
20
-52.7487
11
104.914
21
-52.9561
0
LINE
8
BLACK
6
CONTINUOUS
10
104.914
20
-52.9561
11
104.756
21
-53.141
0
LINE
8
BLACK
6
CONTINUOUS
10
104.756
20
-53.141
11
104.571
21
-53.299
0
LINE
8
BLACK
6
CONTINUOUS
10
104.571
20
-53.299
11
104.364
21
-53.4261
0
LINE
8
BLACK
6
CONTINUOUS
10
104.364
20
-53.4261
11
104.139
21
-53.5191
0
LINE
8
BLACK
6
CONTINUOUS
10
104.139
20
-53.5191
11
103.902
21
-53.5759
0
LINE
8
BLACK
6
CONTINUOUS
10
103.902
20
-53.5759
11
103.66
21
-53.595
0
LINE
8
BLACK
6
CONTINUOUS
10
103.66
20
-53.595
11
103.418
21
-53.5759
0
LINE
8
BLACK
6
CONTINUOUS
10
103.418
20
-53.5759
11
103.181
21
-53.5191
0
LINE
8
BLACK
6
CONTINUOUS
10
103.181
20
-53.5191
11
102.956
21
-53.4261
0
LINE
8
BLACK
6
CONTINUOUS
10
102.956
20
-53.4261
11
102.749
21
-53.299
0
LINE
8
BLACK
6
CONTINUOUS
10
102.749
20
-53.299
11
102.564
21
-53.141
0
LINE
8
BLACK
6
CONTINUOUS
10
102.564
20
-53.141
11
102.406
21
-52.9561
0
LINE
8
BLACK
6
CONTINUOUS
10
102.406
20
-52.9561
11
102.279
21
-52.7487
0
LINE
8
BLACK
6
CONTINUOUS
10
102.279
20
-52.7487
11
102.186
21
-52.524
0
LINE
8
BLACK
6
CONTINUOUS
10
102.186
20
-52.524
11
102.129
21
-52.2875
0
LINE
8
BLACK
6
CONTINUOUS
10
102.129
20
-52.2875
11
102.11
21
-52.045
0
LINE
8
BLACK
6
CONTINUOUS
10
102.11
20
-52.045
11
102.113
21
-52.0095
0
LINE
8
BLACK
6
CONTINUOUS
10
102.113
20
-52.0095
11
102.129
21
-51.8025
0
LINE
8
BLACK
6
CONTINUOUS
10
102.129
20
-51.8025
11
102.186
21
-51.566
0
LINE
8
BLACK
6
CONTINUOUS
10
102.272
20
-52.4801
11
102.361
21
-52.701
0
LINE
8
BLACK
6
CONTINUOUS
10
102.361
20
-52.701
11
102.486
21
-52.9043
0
LINE
8
BLACK
6
CONTINUOUS
10
102.486
20
-52.9043
11
102.642
21
-53.0845
0
LINE
8
BLACK
6
CONTINUOUS
10
102.642
20
-53.0845
11
102.825
21
-53.2368
0
LINE
8
BLACK
6
CONTINUOUS
10
102.825
20
-53.2368
11
103.031
21
-53.3571
0
LINE
8
BLACK
6
CONTINUOUS
10
103.031
20
-53.3571
11
103.254
21
-53.4422
0
LINE
8
BLACK
6
CONTINUOUS
10
103.254
20
-53.4422
11
103.488
21
-53.4897
0
LINE
8
BLACK
6
CONTINUOUS
10
103.488
20
-53.4897
11
103.726
21
-53.4985
0
LINE
8
BLACK
6
CONTINUOUS
10
103.726
20
-53.4985
11
103.963
21
-53.4682
0
LINE
8
BLACK
6
CONTINUOUS
10
103.963
20
-53.4682
11
104.191
21
-53.3997
0
LINE
8
BLACK
6
CONTINUOUS
10
104.191
20
-53.3997
11
104.405
21
-53.2948
0
LINE
8
BLACK
6
CONTINUOUS
10
104.405
20
-53.2948
11
104.599
21
-53.1563
0
LINE
8
BLACK
6
CONTINUOUS
10
104.599
20
-53.1563
11
104.768
21
-52.988
0
LINE
8
BLACK
6
CONTINUOUS
10
104.768
20
-52.988
11
104.907
21
-52.7944
0
LINE
8
BLACK
6
CONTINUOUS
10
104.907
20
-52.7944
11
105.013
21
-52.5806
0
LINE
8
BLACK
6
CONTINUOUS
10
105.013
20
-52.5806
11
105.082
21
-52.3525
0
LINE
8
BLACK
6
CONTINUOUS
10
105.082
20
-52.3525
11
105.113
21
-52.1161
0
LINE
8
BLACK
6
CONTINUOUS
10
105.113
20
-52.1161
11
105.115
21
-52.045
0
LINE
8
BLACK
6
CONTINUOUS
10
105.115
20
-52.045
11
105.095
21
-51.8074
0
LINE
8
BLACK
6
CONTINUOUS
10
105.095
20
-51.8074
11
105.037
21
-51.5761
0
LINE
8
BLACK
6
CONTINUOUS
10
105.037
20
-51.5761
11
104.942
21
-51.3575
0
LINE
8
BLACK
6
CONTINUOUS
10
104.942
20
-51.3575
11
104.813
21
-51.1573
0
LINE
8
BLACK
6
CONTINUOUS
10
104.813
20
-51.1573
11
104.652
21
-50.9809
0
LINE
8
BLACK
6
CONTINUOUS
10
104.652
20
-50.9809
11
104.465
21
-50.8331
0
LINE
8
BLACK
6
CONTINUOUS
10
104.465
20
-50.8331
11
104.256
21
-50.7179
0
LINE
8
BLACK
6
CONTINUOUS
10
104.256
20
-50.7179
11
104.032
21
-50.6383
0
LINE
8
BLACK
6
CONTINUOUS
10
104.032
20
-50.6383
11
103.797
21
-50.5965
0
LINE
8
BLACK
6
CONTINUOUS
10
103.797
20
-50.5965
11
103.559
21
-50.5936
0
LINE
8
BLACK
6
CONTINUOUS
10
103.559
20
-50.5936
11
103.323
21
-50.6296
0
LINE
8
BLACK
6
CONTINUOUS
10
103.323
20
-50.6296
11
103.096
21
-50.7037
0
LINE
8
BLACK
6
CONTINUOUS
10
103.096
20
-50.7037
11
102.885
21
-50.8138
0
LINE
8
BLACK
6
CONTINUOUS
10
102.885
20
-50.8138
11
102.694
21
-50.957
0
LINE
8
BLACK
6
CONTINUOUS
10
102.694
20
-50.957
11
102.529
21
-51.1294
0
LINE
8
BLACK
6
CONTINUOUS
10
102.529
20
-51.1294
11
102.395
21
-51.3263
0
LINE
8
BLACK
6
CONTINUOUS
10
102.395
20
-51.3263
11
102.295
21
-51.5426
0
LINE
8
BLACK
6
CONTINUOUS
10
102.295
20
-51.5426
11
102.231
21
-51.7724
0
LINE
8
BLACK
6
CONTINUOUS
10
102.231
20
-51.7724
11
102.205
21
-52.0095
0
LINE
8
BLACK
6
CONTINUOUS
10
102.205
20
-52.0095
11
102.219
21
-52.2475
0
LINE
8
BLACK
6
CONTINUOUS
10
102.219
20
-52.2475
11
102.272
21
-52.4801
0
LINE
8
BLACK
6
CONTINUOUS
10
66.6259
20
-32.471
11
66.7189
21
-32.2463
0
LINE
8
BLACK
6
CONTINUOUS
10
66.7189
20
-32.2463
11
66.846
21
-32.0389
0
LINE
8
BLACK
6
CONTINUOUS
10
66.846
20
-32.0389
11
67.004
21
-31.854
0
LINE
8
BLACK
6
CONTINUOUS
10
67.004
20
-31.854
11
67.1889
21
-31.696
0
LINE
8
BLACK
6
CONTINUOUS
10
67.1889
20
-31.696
11
67.3963
21
-31.5689
0
LINE
8
BLACK
6
CONTINUOUS
10
67.3963
20
-31.5689
11
67.621
21
-31.4759
0
LINE
8
BLACK
6
CONTINUOUS
10
67.621
20
-31.4759
11
67.8575
21
-31.4191
0
LINE
8
BLACK
6
CONTINUOUS
10
67.8575
20
-31.4191
11
68.1
21
-31.4
0
LINE
8
BLACK
6
CONTINUOUS
10
68.1
20
-31.4
11
68.3425
21
-31.4191
0
LINE
8
BLACK
6
CONTINUOUS
10
68.3425
20
-31.4191
11
68.579
21
-31.4759
0
LINE
8
BLACK
6
CONTINUOUS
10
68.579
20
-31.4759
11
68.8037
21
-31.5689
0
LINE
8
BLACK
6
CONTINUOUS
10
68.8037
20
-31.5689
11
69.0111
21
-31.696
0
LINE
8
BLACK
6
CONTINUOUS
10
69.0111
20
-31.696
11
69.196
21
-31.854
0
LINE
8
BLACK
6
CONTINUOUS
10
69.196
20
-31.854
11
69.354
21
-32.0389
0
LINE
8
BLACK
6
CONTINUOUS
10
69.354
20
-32.0389
11
69.4811
21
-32.2463
0
LINE
8
BLACK
6
CONTINUOUS
10
69.4811
20
-32.2463
11
69.5741
21
-32.471
0
LINE
8
BLACK
6
CONTINUOUS
10
69.5741
20
-32.471
11
69.6309
21
-32.7075
0
LINE
8
BLACK
6
CONTINUOUS
10
69.6309
20
-32.7075
11
69.65
21
-32.95
0
LINE
8
BLACK
6
CONTINUOUS
10
69.65
20
-32.95
11
69.6309
21
-33.1925
0
LINE
8
BLACK
6
CONTINUOUS
10
69.6309
20
-33.1925
11
69.5741
21
-33.429
0
LINE
8
BLACK
6
CONTINUOUS
10
69.5741
20
-33.429
11
69.4811
21
-33.6537
0
LINE
8
BLACK
6
CONTINUOUS
10
69.4811
20
-33.6537
11
69.354
21
-33.8611
0
LINE
8
BLACK
6
CONTINUOUS
10
69.354
20
-33.8611
11
69.196
21
-34.046
0
LINE
8
BLACK
6
CONTINUOUS
10
69.196
20
-34.046
11
69.0111
21
-34.204
0
LINE
8
BLACK
6
CONTINUOUS
10
69.0111
20
-34.204
11
68.8037
21
-34.3311
0
LINE
8
BLACK
6
CONTINUOUS
10
68.8037
20
-34.3311
11
68.579
21
-34.4241
0
LINE
8
BLACK
6
CONTINUOUS
10
68.579
20
-34.4241
11
68.3425
21
-34.4809
0
LINE
8
BLACK
6
CONTINUOUS
10
68.3425
20
-34.4809
11
68.1
21
-34.5
0
LINE
8
BLACK
6
CONTINUOUS
10
68.1
20
-34.5
11
67.8575
21
-34.4809
0
LINE
8
BLACK
6
CONTINUOUS
10
67.8575
20
-34.4809
11
67.621
21
-34.4241
0
LINE
8
BLACK
6
CONTINUOUS
10
67.621
20
-34.4241
11
67.3963
21
-34.3311
0
LINE
8
BLACK
6
CONTINUOUS
10
67.3963
20
-34.3311
11
67.1889
21
-34.204
0
LINE
8
BLACK
6
CONTINUOUS
10
67.1889
20
-34.204
11
67.004
21
-34.046
0
LINE
8
BLACK
6
CONTINUOUS
10
67.004
20
-34.046
11
66.846
21
-33.8611
0
LINE
8
BLACK
6
CONTINUOUS
10
66.846
20
-33.8611
11
66.7189
21
-33.6537
0
LINE
8
BLACK
6
CONTINUOUS
10
66.7189
20
-33.6537
11
66.6259
21
-33.429
0
LINE
8
BLACK
6
CONTINUOUS
10
66.6259
20
-33.429
11
66.5691
21
-33.1925
0
LINE
8
BLACK
6
CONTINUOUS
10
66.5691
20
-33.1925
11
66.55
21
-32.95
0
LINE
8
BLACK
6
CONTINUOUS
10
66.55
20
-32.95
11
66.5528
21
-32.9145
0
LINE
8
BLACK
6
CONTINUOUS
10
66.5528
20
-32.9145
11
66.5691
21
-32.7075
0
LINE
8
BLACK
6
CONTINUOUS
10
66.5691
20
-32.7075
11
66.6259
21
-32.471
0
LINE
8
BLACK
6
CONTINUOUS
10
66.7116
20
-33.3851
11
66.8013
21
-33.606
0
LINE
8
BLACK
6
CONTINUOUS
10
66.8013
20
-33.606
11
66.9259
21
-33.8093
0
LINE
8
BLACK
6
CONTINUOUS
10
66.9259
20
-33.8093
11
67.082
21
-33.9895
0
LINE
8
BLACK
6
CONTINUOUS
10
67.082
20
-33.9895
11
67.2655
21
-34.1418
0
LINE
8
BLACK
6
CONTINUOUS
10
67.2655
20
-34.1418
11
67.4713
21
-34.2621
0
LINE
8
BLACK
6
CONTINUOUS
10
67.4713
20
-34.2621
11
67.6941
21
-34.3472
0
LINE
8
BLACK
6
CONTINUOUS
10
67.6941
20
-34.3472
11
67.9277
21
-34.3947
0
LINE
8
BLACK
6
CONTINUOUS
10
67.9277
20
-34.3947
11
68.166
21
-34.4035
0
LINE
8
BLACK
6
CONTINUOUS
10
68.166
20
-34.4035
11
68.4025
21
-34.3732
0
LINE
8
BLACK
6
CONTINUOUS
10
68.4025
20
-34.3732
11
68.6309
21
-34.3047
0
LINE
8
BLACK
6
CONTINUOUS
10
68.6309
20
-34.3047
11
68.845
21
-34.1998
0
LINE
8
BLACK
6
CONTINUOUS
10
68.845
20
-34.1998
11
69.0391
21
-34.0613
0
LINE
8
BLACK
6
CONTINUOUS
10
69.0391
20
-34.0613
11
69.208
21
-33.893
0
LINE
8
BLACK
6
CONTINUOUS
10
69.208
20
-33.893
11
69.3472
21
-33.6994
0
LINE
8
BLACK
6
CONTINUOUS
10
69.3472
20
-33.6994
11
69.4528
21
-33.4856
0
LINE
8
BLACK
6
CONTINUOUS
10
69.4528
20
-33.4856
11
69.5221
21
-33.2575
0
LINE
8
BLACK
6
CONTINUOUS
10
69.5221
20
-33.2575
11
69.5532
21
-33.0211
0
LINE
8
BLACK
6
CONTINUOUS
10
69.5532
20
-33.0211
11
69.555
21
-32.95
0
LINE
8
BLACK
6
CONTINUOUS
10
69.555
20
-32.95
11
69.5354
21
-32.7124
0
LINE
8
BLACK
6
CONTINUOUS
10
69.5354
20
-32.7124
11
69.4773
21
-32.4811
0
LINE
8
BLACK
6
CONTINUOUS
10
69.4773
20
-32.4811
11
69.3823
21
-32.2625
0
LINE
8
BLACK
6
CONTINUOUS
10
69.3823
20
-32.2625
11
69.2528
21
-32.0623
0
LINE
8
BLACK
6
CONTINUOUS
10
69.2528
20
-32.0623
11
69.0923
21
-31.8859
0
LINE
8
BLACK
6
CONTINUOUS
10
69.0923
20
-31.8859
11
68.9052
21
-31.7381
0
LINE
8
BLACK
6
CONTINUOUS
10
68.9052
20
-31.7381
11
68.6964
21
-31.6229
0
LINE
8
BLACK
6
CONTINUOUS
10
68.6964
20
-31.6229
11
68.4717
21
-31.5433
0
LINE
8
BLACK
6
CONTINUOUS
10
68.4717
20
-31.5433
11
68.2369
21
-31.5015
0
LINE
8
BLACK
6
CONTINUOUS
10
68.2369
20
-31.5015
11
67.9985
21
-31.4986
0
LINE
8
BLACK
6
CONTINUOUS
10
67.9985
20
-31.4986
11
67.7628
21
-31.5346
0
LINE
8
BLACK
6
CONTINUOUS
10
67.7628
20
-31.5346
11
67.5362
21
-31.6087
0
LINE
8
BLACK
6
CONTINUOUS
10
67.5362
20
-31.6087
11
67.3247
21
-31.7188
0
LINE
8
BLACK
6
CONTINUOUS
10
67.3247
20
-31.7188
11
67.134
21
-31.862
0
LINE
8
BLACK
6
CONTINUOUS
10
67.134
20
-31.862
11
66.9693
21
-32.0344
0
LINE
8
BLACK
6
CONTINUOUS
10
66.9693
20
-32.0344
11
66.8349
21
-32.2313
0
LINE
8
BLACK
6
CONTINUOUS
10
66.8349
20
-32.2313
11
66.7345
21
-32.4476
0
LINE
8
BLACK
6
CONTINUOUS
10
66.7345
20
-32.4476
11
66.6708
21
-32.6774
0
LINE
8
BLACK
6
CONTINUOUS
10
66.6708
20
-32.6774
11
66.6455
21
-32.9145
0
LINE
8
BLACK
6
CONTINUOUS
10
66.6455
20
-32.9145
11
66.6592
21
-33.1525
0
LINE
8
BLACK
6
CONTINUOUS
10
66.6592
20
-33.1525
11
66.7116
21
-33.3851
  0
ENDSEC
  0
EOF
